STARTFONT 2.1
FONT -FontForge-Lobster-Book-R-Normal--24-240-72-72-P-140-ISO10646-1
SIZE 24 72 72
FONTBOUNDINGBOX 48 36 -11 -12
COMMENT "Generated by fontforge, http://fontforge.sourceforge.net"
COMMENT "Copyright 2010 The Lobster Project Authors (https://github.com/impallari/The-Lobster-Font), with Reserved Font Name "Lobster"."
STARTPROPERTIES 40
FOUNDRY "FontForge"
FAMILY_NAME "Lobster"
WEIGHT_NAME "Book"
SLANT "R"
SETWIDTH_NAME "Normal"
ADD_STYLE_NAME ""
PIXEL_SIZE 24
POINT_SIZE 240
RESOLUTION_X 72
RESOLUTION_Y 72
SPACING "P"
AVERAGE_WIDTH 140
CHARSET_REGISTRY "ISO10646"
CHARSET_ENCODING "1"
FONTNAME_REGISTRY ""
CHARSET_COLLECTIONS "ISO8859-2 ISO8859-5 ISO8859-9 ISO8859-4 ISO10646-1"
FONT_NAME "Lobster-Regular"
FACE_NAME "Lobster Regular"
COPYRIGHT "Copyright 2010 The Lobster Project Authors (https://github.com/impallari/The-Lobster-Font), with Reserved Font Name "Lobster"."
FONT_VERSION "2.100"
FONT_ASCENT 19
FONT_DESCENT 5
UNDERLINE_POSITION -2
UNDERLINE_THICKNESS 2
X_HEIGHT 12
CAP_HEIGHT 17
DEFAULT_CHAR 1
RAW_ASCENT 800
RAW_DESCENT 200
NORM_SPACE 5
RELATIVE_WEIGHT 40
RELATIVE_SETWIDTH 50
SUPERSCRIPT_X 0
SUPERSCRIPT_Y 8
SUPERSCRIPT_SIZE 14
SUBSCRIPT_X 0
SUBSCRIPT_Y 1
SUBSCRIPT_SIZE 14
AVG_LOWERCASE_WIDTH 112
AVG_UPPERCASE_WIDTH 148
ENDPROPERTIES
CHARS 1148
STARTCHAR NULL.dup1
ENCODING 0
SWIDTH 600 0
DWIDTH 14 0
BBX 1 1 0 0
BITMAP
00
ENDCHAR
STARTCHAR nonmarkingreturn
ENCODING 13
SWIDTH 600 0
DWIDTH 14 0
BBX 1 1 0 0
BITMAP
00
ENDCHAR
STARTCHAR space
ENCODING 32
SWIDTH 217 0
DWIDTH 5 0
BBX 1 1 0 0
BITMAP
00
ENDCHAR
STARTCHAR exclam
ENCODING 33
SWIDTH 257 0
DWIDTH 6 0
BBX 7 18 1 0
BITMAP
06
1E
1C
1C
1C
38
38
38
38
30
30
70
60
00
E0
F0
F0
E0
ENDCHAR
STARTCHAR quotedbl
ENCODING 34
SWIDTH 353 0
DWIDTH 8 0
BBX 8 5 2 13
BITMAP
37
66
66
CC
CC
ENDCHAR
STARTCHAR numbersign
ENCODING 35
SWIDTH 659 0
DWIDTH 16 0
BBX 13 15 1 2
BITMAP
0630
0630
0620
0460
0C60
3FF8
4C60
0C40
08C0
18C0
7FF0
98C0
1080
3180
3180
ENDCHAR
STARTCHAR dollar
ENCODING 36
SWIDTH 548 0
DWIDTH 13 0
BBX 13 24 0 -3
BITMAP
0040
0040
0040
03E0
0EB0
0CB8
1CB8
1FF0
1F00
0F00
0780
07C0
03E0
03E0
72E0
7AF0
E6F0
E4E0
64E0
7FC0
1F00
0800
0800
0800
ENDCHAR
STARTCHAR percent
ENCODING 37
SWIDTH 796 0
DWIDTH 19 0
BBX 18 18 1 0
BITMAP
1E0600
3E0C00
730800
631800
E71000
E73000
C66000
C66000
ECC780
78CFC0
019CC0
0118C0
0339C0
0239C0
063180
0C3180
0C1F00
181E00
ENDCHAR
STARTCHAR ampersand
ENCODING 38
SWIDTH 682 0
DWIDTH 16 0
BBX 16 18 0 0
BITMAP
03E0
07F0
0E30
0E30
1C70
1C20
0E00
0F81
0E03
3C7F
78FE
78E8
F890
F810
F830
7CE0
7FC0
1F00
ENDCHAR
STARTCHAR quotesingle
ENCODING 39
SWIDTH 196 0
DWIDTH 5 0
BBX 4 5 2 13
BITMAP
30
70
60
60
C0
ENDCHAR
STARTCHAR parenleft
ENCODING 40
SWIDTH 437 0
DWIDTH 10 0
BBX 9 24 4 -6
BITMAP
0180
0300
0E00
0C00
1800
3800
7000
7000
6000
E000
E000
E000
C000
C000
C000
C000
C000
C000
E000
6000
6000
2000
3000
1000
ENDCHAR
STARTCHAR parenright
ENCODING 41
SWIDTH 413 0
DWIDTH 10 0
BBX 10 24 -2 -6
BITMAP
0600
0200
0300
0300
0380
0180
0180
0180
0180
01C0
0180
0180
0380
0380
0380
0300
0700
0600
0E00
0C00
1800
3000
6000
8000
ENDCHAR
STARTCHAR asterisk
ENCODING 42
SWIDTH 515 0
DWIDTH 12 0
BBX 8 9 2 9
BITMAP
18
58
DB
FF
18
FF
FB
19
18
ENDCHAR
STARTCHAR plus
ENCODING 43
SWIDTH 442 0
DWIDTH 11 0
BBX 10 8 0 4
BITMAP
0600
0600
0C00
7FC0
FF80
0C00
1800
1800
ENDCHAR
STARTCHAR comma
ENCODING 44
SWIDTH 216 0
DWIDTH 5 0
BBX 3 7 1 -3
BITMAP
E0
E0
E0
E0
40
80
80
ENDCHAR
STARTCHAR hyphen
ENCODING 45
SWIDTH 290 0
DWIDTH 7 0
BBX 6 1 0 6
BITMAP
FC
ENDCHAR
STARTCHAR period
ENCODING 46
SWIDTH 263 0
DWIDTH 6 0
BBX 4 4 1 0
BITMAP
E0
E0
F0
E0
ENDCHAR
STARTCHAR slash
ENCODING 47
SWIDTH 311 0
DWIDTH 7 0
BBX 7 24 0 -6
BITMAP
06
06
06
04
0C
0C
0C
08
08
18
18
18
10
30
30
30
30
20
60
60
60
60
40
C0
ENDCHAR
STARTCHAR zero
ENCODING 48
SWIDTH 546 0
DWIDTH 13 0
BBX 13 18 0 0
BITMAP
03E0
07F0
0E38
1C38
3C38
3838
7838
7838
7838
7038
7078
F070
7070
70F0
70E0
71C0
3F80
1F00
ENDCHAR
STARTCHAR one
ENCODING 49
SWIDTH 317 0
DWIDTH 8 0
BBX 8 18 0 0
BITMAP
01
0E
3E
4E
1E
1E
1C
1C
1C
3C
3C
38
38
78
78
70
70
F0
ENDCHAR
STARTCHAR two
ENCODING 50
SWIDTH 492 0
DWIDTH 12 0
BBX 11 18 0 0
BITMAP
0F80
1FC0
31E0
30E0
30E0
38E0
11E0
01C0
0380
0700
0E00
1C00
3000
6000
E820
FFE0
FFC0
8780
ENDCHAR
STARTCHAR three
ENCODING 51
SWIDTH 514 0
DWIDTH 12 0
BBX 12 18 0 0
BITMAP
07C0
1FE0
1870
1870
1870
1CE0
00E0
03C0
0780
01E0
01E0
78F0
F0F0
E0E0
E0E0
E1C0
7F80
3F00
ENDCHAR
STARTCHAR four
ENCODING 52
SWIDTH 476 0
DWIDTH 11 0
BBX 11 18 0 0
BITMAP
0700
0700
0780
0700
0720
0E40
0CC0
18C0
38C0
21E0
7FE0
FFE0
87C0
0380
0380
0700
0700
0F00
ENDCHAR
STARTCHAR five
ENCODING 53
SWIDTH 517 0
DWIDTH 12 0
BBX 12 18 0 0
BITMAP
0010
0FF0
1FF0
19E0
1800
1800
1800
3FC0
33E0
01E0
00E0
38F0
78F0
E0E0
E0E0
E1C0
7F80
3F00
ENDCHAR
STARTCHAR six
ENCODING 54
SWIDTH 500 0
DWIDTH 12 0
BBX 12 18 0 0
BITMAP
03E0
07F0
0E30
1C30
3860
3800
7800
77C0
7DE0
78E0
F070
F070
F0E0
F0E0
70E0
71C0
3F80
1F00
ENDCHAR
STARTCHAR seven
ENCODING 55
SWIDTH 464 0
DWIDTH 11 0
BBX 12 18 1 0
BITMAP
3C10
7FE0
FFE0
C2C0
0180
0380
0300
0600
0E00
1C00
3C00
3800
7800
7800
7000
7000
7800
3800
ENDCHAR
STARTCHAR eight
ENCODING 56
SWIDTH 499 0
DWIDTH 12 0
BBX 12 18 0 0
BITMAP
07C0
0FE0
1C70
3C70
3C70
3C60
1EC0
0F80
0F80
1FC0
73E0
71E0
E0F0
E0F0
E0E0
F1E0
7BC0
1F00
ENDCHAR
STARTCHAR nine
ENCODING 57
SWIDTH 489 0
DWIDTH 12 0
BBX 12 18 0 0
BITMAP
0780
1DE0
38E0
70F0
70F0
70F0
70F0
70F0
71F0
3EF0
00E0
01E0
01E0
61C0
E3C0
E780
7F00
3C00
ENDCHAR
STARTCHAR colon
ENCODING 58
SWIDTH 267 0
DWIDTH 6 0
BBX 5 10 1 1
BITMAP
30
78
78
30
00
00
60
F0
F0
60
ENDCHAR
STARTCHAR semicolon
ENCODING 59
SWIDTH 276 0
DWIDTH 7 0
BBX 5 13 1 -3
BITMAP
30
78
78
30
00
00
60
F0
F0
60
60
40
80
ENDCHAR
STARTCHAR less
ENCODING 60
SWIDTH 358 0
DWIDTH 9 0
BBX 8 9 0 2
BITMAP
01
03
0F
3C
F0
F0
3C
0E
02
ENDCHAR
STARTCHAR equal
ENCODING 61
SWIDTH 515 0
DWIDTH 12 0
BBX 10 8 1 2
BITMAP
7FC0
7FC0
7FC0
0000
0000
FF80
FF80
FF80
ENDCHAR
STARTCHAR greater
ENCODING 62
SWIDTH 362 0
DWIDTH 9 0
BBX 8 9 0 2
BITMAP
20
70
3C
0F
07
1E
38
E0
80
ENDCHAR
STARTCHAR question
ENCODING 63
SWIDTH 441 0
DWIDTH 11 0
BBX 9 18 1 0
BITMAP
1F00
7780
6380
E380
E380
7780
0700
0C00
1800
3000
3000
2000
0000
0000
6000
F000
F000
6000
ENDCHAR
STARTCHAR at
ENCODING 64
SWIDTH 688 0
DWIDTH 17 0
BBX 16 16 0 -2
BITMAP
03F8
0F9C
1C06
3806
33B7
6767
E666
EE66
CCCE
CCCC
CF78
C000
C020
E060
70E0
3FC0
ENDCHAR
STARTCHAR A
ENCODING 65
SWIDTH 668 0
DWIDTH 16 0
BBX 17 20 0 -2
BITMAP
000780
001F00
003700
006F00
00CF00
018F00
018E00
3FCE00
777E00
E61E00
EE1C00
0E1C00
1C1C00
1C3C00
1C3C00
383800
383800
387800
380000
380000
ENDCHAR
STARTCHAR B
ENCODING 66
SWIDTH 641 0
DWIDTH 15 0
BBX 15 18 0 0
BITMAP
03F0
0F78
389C
738C
679C
E718
E770
67F8
0F3C
0F1C
0E1E
0E1E
0E1C
1E1C
1E1C
1D38
1DF8
3DE0
ENDCHAR
STARTCHAR C
ENCODING 67
SWIDTH 497 0
DWIDTH 12 0
BBX 13 18 0 0
BITMAP
03E0
07B0
0F18
1E18
3C38
3C10
7800
7800
7800
7800
7800
F000
F000
7808
7810
7C60
3FC0
1F00
ENDCHAR
STARTCHAR D
ENCODING 68
SWIDTH 663 0
DWIDTH 16 0
BBX 15 18 0 0
BITMAP
03F0
1F7C
381C
778E
678E
E70E
C70E
C70E
2F0E
0F0E
0E0E
0E1E
1E1C
1E3C
1C38
1C78
1FF0
3DE0
ENDCHAR
STARTCHAR E
ENCODING 69
SWIDTH 459 0
DWIDTH 11 0
BBX 12 18 0 0
BITMAP
03C0
07E0
0E30
1C30
1C60
1C00
1E00
0F80
1E00
3C00
7800
7800
F000
F010
F820
F8C0
7F80
3E00
ENDCHAR
STARTCHAR F
ENCODING 70
SWIDTH 459 0
DWIDTH 11 0
BBX 15 18 0 0
BITMAP
07FE
1FFC
77F8
6780
E700
E700
C700
CFE0
2FE0
0E00
0E00
1E00
1E00
1E00
1C00
1C00
3C00
3C00
ENDCHAR
STARTCHAR G
ENCODING 71
SWIDTH 578 0
DWIDTH 14 0
BBX 14 22 0 -4
BITMAP
03F0
0FF8
1E1C
3C1C
7C38
7810
7800
7000
F038
F038
7078
7070
78F0
3F70
00F0
00E0
00E0
3EE0
31C0
31C0
3380
1F00
ENDCHAR
STARTCHAR H
ENCODING 72
SWIDTH 665 0
DWIDTH 16 0
BBX 17 18 0 0
BITMAP
03C780
0F8700
3B8700
778F00
678F00
E78F00
E70E00
67FE00
2FFE00
0F1E00
0E1C00
0E1C00
0E1C00
1E3C00
1E3C00
1C3800
1C3800
3C7800
ENDCHAR
STARTCHAR I
ENCODING 73
SWIDTH 375 0
DWIDTH 9 0
BBX 10 18 0 0
BITMAP
03C0
1F80
3380
6780
6780
E700
C700
CF00
2F00
0F00
0E00
0E00
1E00
1E00
1C00
1C00
1C00
3C00
ENDCHAR
STARTCHAR J
ENCODING 74
SWIDTH 536 0
DWIDTH 13 0
BBX 14 22 0 -4
BITMAP
003C
00FC
01B8
0338
0678
0678
0E70
0670
0270
00F0
00F0
00E0
00E0
01E0
01E0
01E0
01C0
7FC0
67C0
C380
6780
7E00
ENDCHAR
STARTCHAR K
ENCODING 75
SWIDTH 601 0
DWIDTH 14 0
BBX 16 18 0 0
BITMAP
03C7
1F8E
339C
6798
E730
C760
C7C0
6FF0
0F78
0E38
0E38
0E38
1E78
1E70
1C70
1C70
1C70
3C78
ENDCHAR
STARTCHAR L
ENCODING 76
SWIDTH 379 0
DWIDTH 9 0
BBX 16 24 0 -6
BITMAP
03C0
1F80
3380
6780
6780
E700
C700
CF00
2F00
0E00
0E00
0E00
1E00
1E00
1C00
1C00
3C00
3E00
0780
03C0
00F1
007F
003E
000E
ENDCHAR
STARTCHAR M
ENCODING 77
SWIDTH 787 0
DWIDTH 19 0
BBX 17 18 2 0
BITMAP
078380
1B8780
378780
678F80
C78F80
CF8F80
CF9F00
DF9F00
1FB700
1FB700
37AF00
37EF00
37EF00
67CE00
67CE00
478E00
C78E00
C79E00
ENDCHAR
STARTCHAR N
ENCODING 78
SWIDTH 668 0
DWIDTH 16 0
BBX 17 18 0 0
BITMAP
078180
1FC180
33C380
67C300
E7C300
E7C300
E7E300
E6E700
6EE600
0CE600
0CF600
0CF600
1C7E00
1C7C00
187C00
187C00
183C00
383800
ENDCHAR
STARTCHAR O
ENCODING 79
SWIDTH 665 0
DWIDTH 16 0
BBX 16 18 0 0
BITMAP
01F8
0FBC
184E
338E
678F
6707
EF0F
6E0F
3E0F
1E0E
1C0E
1C1E
1C1C
1C3C
1C38
1E70
1FE0
07C0
ENDCHAR
STARTCHAR P
ENCODING 80
SWIDTH 573 0
DWIDTH 14 0
BBX 14 18 0 0
BITMAP
03E0
0F78
381C
779C
678C
E71C
C71C
C71C
6F38
0F70
0FE0
0E00
1E00
1E00
1C00
1C00
1C00
3C00
ENDCHAR
STARTCHAR Q
ENCODING 81
SWIDTH 665 0
DWIDTH 16 0
BBX 16 20 0 -2
BITMAP
01F8
0FBC
184E
338E
678F
6707
EF0F
6E0F
3E0F
1E0E
1C0E
1C1E
1C1C
1C3C
1FB8
1EF8
1EF0
07F0
007E
003C
ENDCHAR
STARTCHAR R
ENCODING 82
SWIDTH 601 0
DWIDTH 14 0
BBX 14 18 0 0
BITMAP
03F0
1F78
389C
679C
E79C
C718
C770
67F0
0F78
0E38
0E38
0E38
1E78
1E70
1C70
1C70
1C70
3C78
ENDCHAR
STARTCHAR S
ENCODING 83
SWIDTH 570 0
DWIDTH 14 0
BBX 12 18 1 0
BITMAP
07C0
0FF0
1C30
1C30
1C70
1E20
1E00
0F00
0780
03C0
13E0
79E0
E0E0
E0E0
E0E0
E1C0
7F80
3F00
ENDCHAR
STARTCHAR T
ENCODING 84
SWIDTH 481 0
DWIDTH 12 0
BBX 17 18 0 0
BITMAP
07F080
1FFF80
31FF80
61CF00
E1C000
C3C000
C3C000
C3C000
638000
038000
078000
078000
070000
070000
0F0000
0F0000
0F0000
0E0000
ENDCHAR
STARTCHAR U
ENCODING 85
SWIDTH 716 0
DWIDTH 17 0
BBX 18 18 0 0
BITMAP
03C1C0
1FC1C0
33C3C0
6383C0
E38380
C78380
C78780
C70780
270700
0F0700
0E0700
0E0F00
0E0F00
0E0E00
0E1E00
0F3C00
07F800
03E000
ENDCHAR
STARTCHAR V
ENCODING 86
SWIDTH 615 0
DWIDTH 15 0
BBX 16 18 0 0
BITMAP
03C1
1FC3
33C3
63C2
63C6
E3C4
C3C4
C3CC
23C8
03C8
03D8
03D0
03D0
03E0
03E0
03E0
03C0
03C0
ENDCHAR
STARTCHAR W
ENCODING 87
SWIDTH 962 0
DWIDTH 23 0
BBX 25 18 0 0
BITMAP
03C1C180
1FC3C100
33C3C300
63C3C200
63C7C200
E3C7C600
C3C7C400
C3CFC400
23CBCC00
03CBC800
03DBC800
03D3D800
03D1D000
03E1F000
03E1E000
03E1E000
03C1E000
03C1C000
ENDCHAR
STARTCHAR X
ENCODING 88
SWIDTH 620 0
DWIDTH 15 0
BBX 15 18 0 0
BITMAP
03C6
1FC4
33CC
63D8
61D0
E1F0
C1E0
C1E0
21E0
00E0
01F0
01F0
03F0
02F0
0678
0478
0C78
1878
ENDCHAR
STARTCHAR Y
ENCODING 89
SWIDTH 620 0
DWIDTH 15 0
BBX 17 18 0 0
BITMAP
03C180
1FC100
33C300
63C200
61E600
E1E400
C1E400
C1E800
20F800
00F800
00F000
00F000
00F000
00E000
01E000
01E000
01E000
01E000
ENDCHAR
STARTCHAR Z
ENCODING 90
SWIDTH 542 0
DWIDTH 13 0
BBX 13 18 0 0
BITMAP
1FF8
3C78
38F0
30F0
01E0
01E0
03C0
03C0
0780
0780
0F00
0F00
1E00
1E00
3C30
3C70
78F0
FFE0
ENDCHAR
STARTCHAR bracketleft
ENCODING 91
SWIDTH 400 0
DWIDTH 10 0
BBX 10 24 0 -6
BITMAP
07C0
0600
0E00
0E00
0C00
0C00
1C00
1C00
1C00
1800
1800
3800
3800
3800
3000
3000
7000
7000
6000
6000
6000
E000
E000
F800
ENDCHAR
STARTCHAR backslash
ENCODING 92
SWIDTH 362 0
DWIDTH 9 0
BBX 7 24 1 -6
BITMAP
C0
C0
40
40
60
60
60
20
30
30
30
30
10
18
18
18
08
08
0C
0C
0C
04
06
06
ENDCHAR
STARTCHAR bracketright
ENCODING 93
SWIDTH 400 0
DWIDTH 10 0
BBX 10 24 -1 -6
BITMAP
0FC0
0180
0180
0180
0380
0380
0300
0300
0700
0700
0700
0600
0600
0E00
0E00
0C00
0C00
0C00
1C00
1C00
1800
1800
1800
F800
ENDCHAR
STARTCHAR asciicircum
ENCODING 94
SWIDTH 421 0
DWIDTH 10 0
BBX 7 5 1 13
BITMAP
04
0C
1C
36
C2
ENDCHAR
STARTCHAR underscore
ENCODING 95
SWIDTH 444 0
DWIDTH 11 0
BBX 9 1 1 1
BITMAP
FF80
ENDCHAR
STARTCHAR grave
ENCODING 96
SWIDTH 201 0
DWIDTH 5 0
BBX 3 4 1 13
BITMAP
C0
C0
60
60
ENDCHAR
STARTCHAR a
ENCODING 97
SWIDTH 526 0
DWIDTH 13 0
BBX 14 12 0 0
BITMAP
0EF0
3DE0
78E0
71E0
F1E0
F1C0
E1C0
E3C4
E3C8
F7C8
FDF0
79E0
ENDCHAR
STARTCHAR b
ENCODING 98
SWIDTH 444 0
DWIDTH 11 0
BBX 10 17 0 0
BITMAP
0400
3C00
3C00
3800
3800
3F80
7F80
79C0
71C0
71C0
F1C0
F180
E180
E380
F700
FE00
7C00
ENDCHAR
STARTCHAR c
ENCODING 99
SWIDTH 384 0
DWIDTH 9 0
BBX 10 12 0 0
BITMAP
0F00
3F80
7980
7180
F000
F000
E000
E000
E040
E080
FF00
7C00
ENDCHAR
STARTCHAR d
ENCODING 100
SWIDTH 525 0
DWIDTH 13 0
BBX 14 17 0 0
BITMAP
0008
0070
0070
00F0
00F0
0EE0
3DE0
78E0
71E0
F1E0
F1C0
E1C0
E3C4
E3C8
F7C8
FDF0
79E0
ENDCHAR
STARTCHAR e
ENCODING 101
SWIDTH 384 0
DWIDTH 9 0
BBX 10 12 0 0
BITMAP
0F00
3F80
7980
7180
F300
F600
FC00
E000
E040
E080
FF00
7C00
ENDCHAR
STARTCHAR f
ENCODING 102
SWIDTH 267 0
DWIDTH 6 0
BBX 14 24 -5 -6
BITMAP
0078
00FC
00E4
01E0
01C0
01C0
01F0
03C0
03C0
0380
0380
0780
0780
0780
0700
0700
0F00
0F00
3E00
4E00
8E00
9E00
FC00
7800
ENDCHAR
STARTCHAR g
ENCODING 103
SWIDTH 507 0
DWIDTH 12 0
BBX 13 18 0 -6
BITMAP
0EF0
3DE0
78E0
71E0
F1E0
F1C0
E1C0
E3C0
E3C8
F790
FFB0
7BE0
0F80
1F80
2700
2700
3F00
1C00
ENDCHAR
STARTCHAR h
ENCODING 104
SWIDTH 505 0
DWIDTH 12 0
BBX 14 17 -1 0
BITMAP
0200
1E00
1E00
1C00
1C00
1DC0
3FE0
3CE0
3CE0
38E0
78E0
79E0
79C0
71C4
71C8
F1F8
F0E0
ENDCHAR
STARTCHAR i
ENCODING 105
SWIDTH 267 0
DWIDTH 6 0
BBX 7 17 0 0
BITMAP
18
3C
3C
18
00
78
78
78
70
70
F0
F0
E0
E2
E6
FC
70
ENDCHAR
STARTCHAR j
ENCODING 106
SWIDTH 240 0
DWIDTH 6 0
BBX 12 23 -5 -6
BITMAP
00C0
01E0
01E0
00C0
0000
01C0
03C0
03C0
0380
0380
0780
0780
0780
0710
0720
0F60
0F80
1E00
7E00
CE00
DE00
FC00
7800
ENDCHAR
STARTCHAR k
ENCODING 107
SWIDTH 518 0
DWIDTH 12 0
BBX 14 17 -1 0
BITMAP
0200
1E00
1E00
1C00
1C00
1C70
3CC0
3D80
3BC0
3FE0
7DE0
79E0
79E0
71E4
71EC
F1F8
F0F0
ENDCHAR
STARTCHAR l
ENCODING 108
SWIDTH 267 0
DWIDTH 6 0
BBX 7 17 0 0
BITMAP
0C
3C
3C
38
38
38
78
78
70
70
F0
F0
E2
E2
FE
FC
70
ENDCHAR
STARTCHAR m
ENCODING 109
SWIDTH 752 0
DWIDTH 18 0
BBX 20 12 -1 0
BITMAP
1FEF00
3FFF80
3CF380
38E380
39E380
79E780
79E780
71C700
71C710
73C720
F3C7E0
F3C380
ENDCHAR
STARTCHAR n
ENCODING 110
SWIDTH 505 0
DWIDTH 12 0
BBX 14 12 -1 0
BITMAP
1FC0
3FE0
3CE0
38E0
38E0
79E0
79E0
71C0
71C4
71C8
F1F8
F0F0
ENDCHAR
STARTCHAR o
ENCODING 111
SWIDTH 439 0
DWIDTH 11 0
BBX 13 12 0 0
BITMAP
0F00
3D80
3988
7198
F1E0
F180
E180
E180
E300
E700
FE00
7C00
ENDCHAR
STARTCHAR p
ENCODING 112
SWIDTH 468 0
DWIDTH 11 0
BBX 13 19 -2 -6
BITMAP
0E00
1FE0
1FF0
1E78
1C78
1C78
3C78
3C70
3870
38F0
39E0
7FC0
7F80
7000
7000
7000
F000
F000
8000
ENDCHAR
STARTCHAR q
ENCODING 113
SWIDTH 486 0
DWIDTH 12 0
BBX 12 18 0 -6
BITMAP
0EF0
3DE0
78E0
71E0
F1E0
F1C0
E1C0
E3C0
E3C0
F780
FF80
7B80
0780
0780
0700
0700
0F00
0800
ENDCHAR
STARTCHAR r
ENCODING 114
SWIDTH 376 0
DWIDTH 9 0
BBX 10 12 -1 0
BITMAP
1DC0
3FC0
3CC0
3800
3800
7800
7800
7000
7000
7000
F000
F000
ENDCHAR
STARTCHAR s
ENCODING 115
SWIDTH 382 0
DWIDTH 9 0
BBX 11 13 -1 0
BITMAP
0300
0F00
0F00
1F00
1700
1700
2700
2700
67A0
E7C0
C780
7F00
3C00
ENDCHAR
STARTCHAR t
ENCODING 116
SWIDTH 267 0
DWIDTH 6 0
BBX 7 16 0 0
BITMAP
0C
3C
38
38
7E
78
78
70
70
70
F0
F0
E2
E6
FC
70
ENDCHAR
STARTCHAR u
ENCODING 117
SWIDTH 505 0
DWIDTH 12 0
BBX 13 12 0 0
BITMAP
79E0
79E0
79C0
71C0
71C0
F3C0
F3C0
E380
E388
F790
FBF0
71C0
ENDCHAR
STARTCHAR v
ENCODING 118
SWIDTH 414 0
DWIDTH 10 0
BBX 10 12 0 0
BITMAP
3980
79C0
78C0
7080
7080
F180
F180
E100
E300
E600
FC00
7800
ENDCHAR
STARTCHAR w
ENCODING 119
SWIDTH 661 0
DWIDTH 16 0
BBX 16 12 0 0
BITMAP
79E6
79EF
79C2
71C2
71C2
F3C6
F3C6
E384
E38C
F798
FBF0
71E0
ENDCHAR
STARTCHAR x
ENCODING 120
SWIDTH 522 0
DWIDTH 13 0
BBX 14 13 0 0
BITMAP
0070
0E70
1F30
2730
4760
47C0
4780
8780
8784
0B88
13D8
33F0
61E0
ENDCHAR
STARTCHAR y
ENCODING 121
SWIDTH 486 0
DWIDTH 12 0
BBX 13 18 0 -6
BITMAP
79E0
79E0
79C0
71C0
71C0
F3C0
F3C0
E388
E390
F790
FFA0
77C0
0F00
3700
6F00
4F00
7E00
3C00
ENDCHAR
STARTCHAR z
ENCODING 122
SWIDTH 428 0
DWIDTH 10 0
BBX 10 12 0 0
BITMAP
1FC0
3380
7380
2700
0F00
0E00
1E00
1C00
3800
7980
7F80
FF00
ENDCHAR
STARTCHAR braceleft
ENCODING 123
SWIDTH 352 0
DWIDTH 8 0
BBX 9 24 1 -6
BITMAP
0780
0F00
0C00
1C00
1C00
1C00
1800
1800
1800
1800
3800
E000
3000
3000
3000
7000
7000
6000
6000
E000
E000
E000
F000
7000
ENDCHAR
STARTCHAR bar
ENCODING 124
SWIDTH 532 0
DWIDTH 13 0
BBX 2 24 5 -6
BITMAP
C0
C0
C0
C0
C0
C0
C0
C0
C0
C0
C0
C0
C0
C0
C0
C0
C0
C0
C0
C0
C0
C0
C0
C0
ENDCHAR
STARTCHAR braceright
ENCODING 125
SWIDTH 352 0
DWIDTH 8 0
BBX 9 24 -2 -6
BITMAP
0700
0780
0380
0380
0380
0300
0300
0700
0700
0600
0600
0600
0380
0600
0E00
0C00
0C00
0C00
1C00
1C00
1C00
1800
7800
F000
ENDCHAR
STARTCHAR asciitilde
ENCODING 126
SWIDTH 431 0
DWIDTH 10 0
BBX 10 3 1 13
BITMAP
0800
7FC0
8F00
ENDCHAR
STARTCHAR uni00A0
ENCODING 160
SWIDTH 217 0
DWIDTH 5 0
BBX 1 1 0 0
BITMAP
00
ENDCHAR
STARTCHAR exclamdown
ENCODING 161
SWIDTH 219 0
DWIDTH 5 0
BBX 8 18 -2 -6
BITMAP
0E
0F
0F
0E
00
00
0C
0C
1C
18
18
38
38
38
38
78
70
F0
ENDCHAR
STARTCHAR cent
ENCODING 162
SWIDTH 384 0
DWIDTH 9 0
BBX 10 17 0 0
BITMAP
0100
0300
0200
0FC0
3AC0
36C0
7580
6400
E400
EC00
E800
E800
7900
3F00
1000
1000
1000
ENDCHAR
STARTCHAR sterling
ENCODING 163
SWIDTH 455 0
DWIDTH 11 0
BBX 12 18 0 0
BITMAP
01E0
03F0
0730
0F30
0E00
0E00
0E00
1E00
7FC0
1C00
1C00
1C00
3C00
3800
3810
7FF0
7FF0
83E0
ENDCHAR
STARTCHAR currency
ENCODING 164
SWIDTH 500 0
DWIDTH 12 0
BBX 8 9 2 4
BITMAP
81
FF
7E
43
C3
C3
66
FF
81
ENDCHAR
STARTCHAR yen
ENCODING 165
SWIDTH 558 0
DWIDTH 13 0
BBX 12 18 2 0
BITMAP
7830
7820
7860
7840
3CC0
3C80
3C80
3D80
1F00
1F00
1E00
7FC0
1E00
FFC0
3C00
3C00
3C00
3C00
ENDCHAR
STARTCHAR brokenbar
ENCODING 166
SWIDTH 532 0
DWIDTH 13 0
BBX 2 24 5 -6
BITMAP
C0
C0
C0
C0
C0
C0
C0
C0
C0
C0
C0
00
00
C0
C0
C0
C0
C0
C0
C0
C0
C0
C0
C0
ENDCHAR
STARTCHAR section
ENCODING 167
SWIDTH 542 0
DWIDTH 13 0
BBX 13 19 0 -1
BITMAP
01F0
07B0
0718
0E10
0E10
0F00
1F80
3BC0
39E0
3CF0
1E70
0F30
07B0
23E0
73C0
E380
C380
E300
7E00
ENDCHAR
STARTCHAR dieresis
ENCODING 168
SWIDTH 392 0
DWIDTH 9 0
BBX 8 3 1 14
BITMAP
66
E7
66
ENDCHAR
STARTCHAR copyright
ENCODING 169
SWIDTH 587 0
DWIDTH 14 0
BBX 12 12 1 2
BITMAP
1F80
39C0
6060
4F20
D990
9090
9010
D010
59A0
6F60
30C0
1F80
ENDCHAR
STARTCHAR ordfeminine
ENCODING 170
SWIDTH 345 0
DWIDTH 8 0
BBX 7 6 1 11
BITMAP
3E
6C
CC
CC
CC
FC
ENDCHAR
STARTCHAR guillemotleft
ENCODING 171
SWIDTH 589 0
DWIDTH 14 0
BBX 13 8 0 2
BITMAP
0318
0E70
39C0
6300
E300
18C0
0E70
0210
ENDCHAR
STARTCHAR logicalnot
ENCODING 172
SWIDTH 444 0
DWIDTH 11 0
BBX 10 5 0 2
BITMAP
7FC0
8380
0380
0380
0380
ENDCHAR
STARTCHAR uni00AD
ENCODING 173
SWIDTH 290 0
DWIDTH 7 0
BBX 6 1 0 6
BITMAP
FC
ENDCHAR
STARTCHAR registered
ENCODING 174
SWIDTH 553 0
DWIDTH 13 0
BBX 11 12 1 2
BITMAP
1F00
31C0
6040
DF20
9120
9120
9F20
9220
D120
51C0
31C0
1F00
ENDCHAR
STARTCHAR macron
ENCODING 175
SWIDTH 446 0
DWIDTH 11 0
BBX 8 1 2 14
BITMAP
FF
ENDCHAR
STARTCHAR degree
ENCODING 176
SWIDTH 314 0
DWIDTH 8 0
BBX 6 8 1 9
BITMAP
38
6C
CC
CC
CC
C8
D8
F0
ENDCHAR
STARTCHAR plusminus
ENCODING 177
SWIDTH 479 0
DWIDTH 12 0
BBX 10 11 1 3
BITMAP
0600
0600
0C00
7FC0
FF80
0C00
1800
1800
1800
0000
FF00
ENDCHAR
STARTCHAR uni00B2
ENCODING 178
SWIDTH 328 0
DWIDTH 8 0
BBX 7 10 1 8
BITMAP
3C
6C
6E
6C
0C
18
30
60
40
FC
ENDCHAR
STARTCHAR uni00B3
ENCODING 179
SWIDTH 336 0
DWIDTH 8 0
BBX 7 10 1 8
BITMAP
1C
3E
66
36
1C
0C
6E
CE
CC
78
ENDCHAR
STARTCHAR acute
ENCODING 180
SWIDTH 316 0
DWIDTH 8 0
BBX 5 5 3 13
BITMAP
38
30
60
40
C0
ENDCHAR
STARTCHAR uni00B5
ENCODING 181
SWIDTH 505 0
DWIDTH 12 0
BBX 15 16 -2 -4
BITMAP
1E78
1E78
1E70
1C70
1C70
3CF0
3CF0
3CE0
38E2
39E4
7FFC
7C70
7000
7000
7000
C000
ENDCHAR
STARTCHAR paragraph
ENCODING 182
SWIDTH 542 0
DWIDTH 13 0
BBX 10 20 2 -2
BITMAP
1F00
3F80
7EC0
FEC0
FEC0
FEC0
FEC0
FDC0
FD80
7D80
3F80
1F80
1B80
1B00
1B00
3B00
3700
3600
3600
7600
ENDCHAR
STARTCHAR periodcentered
ENCODING 183
SWIDTH 434 0
DWIDTH 10 0
BBX 5 5 3 4
BITMAP
70
F0
F8
F0
70
ENDCHAR
STARTCHAR cedilla
ENCODING 184
SWIDTH 227 0
DWIDTH 5 0
BBX 6 6 0 -5
BITMAP
30
20
78
1C
9C
78
ENDCHAR
STARTCHAR uni00B9
ENCODING 185
SWIDTH 229 0
DWIDTH 6 0
BBX 4 10 1 8
BITMAP
10
F0
30
30
60
60
60
60
E0
C0
ENDCHAR
STARTCHAR ordmasculine
ENCODING 186
SWIDTH 329 0
DWIDTH 8 0
BBX 6 7 1 11
BITMAP
38
7C
C8
C8
C8
C8
F0
ENDCHAR
STARTCHAR guillemotright
ENCODING 187
SWIDTH 586 0
DWIDTH 14 0
BBX 13 8 0 2
BITMAP
2180
18C0
0E70
0318
0738
38E0
6300
8400
ENDCHAR
STARTCHAR onequarter
ENCODING 188
SWIDTH 749 0
DWIDTH 18 0
BBX 17 18 1 0
BITMAP
101800
F01800
303000
302000
606000
604000
60C000
618000
E19980
C30B00
031B00
061B00
041300
0C3F80
080600
180600
300600
300600
ENDCHAR
STARTCHAR onehalf
ENCODING 189
SWIDTH 745 0
DWIDTH 18 0
BBX 17 18 1 0
BITMAP
101800
F01800
303000
302000
606000
604000
60C000
618000
E18F00
C31B80
031B80
061B00
040300
0C0600
080C00
181800
303100
303F00
ENDCHAR
STARTCHAR threequarters
ENCODING 190
SWIDTH 836 0
DWIDTH 20 0
BBX 19 18 1 0
BITMAP
1C0600
3E0600
660C00
360800
1C1800
0C1000
6E3000
CE2000
CC6660
78C3E0
00C6C0
0186C0
0104C0
030FE0
020180
060180
040180
0C0180
ENDCHAR
STARTCHAR questiondown
ENCODING 191
SWIDTH 439 0
DWIDTH 11 0
BBX 9 18 0 -6
BITMAP
0300
0780
0780
0300
0000
0100
0200
0200
0600
0C00
1800
7000
F700
E380
E380
E380
F700
7C00
ENDCHAR
STARTCHAR Agrave
ENCODING 192
SWIDTH 668 0
DWIDTH 16 0
BBX 17 25 0 -2
BITMAP
000C00
000C00
000600
000600
000000
000780
001F00
003700
006F00
00CF00
018F00
018E00
3FCE00
777E00
E61E00
EE1C00
0E1C00
1C1C00
1C3C00
1C3C00
383800
383800
387800
380000
380000
ENDCHAR
STARTCHAR Aacute
ENCODING 193
SWIDTH 668 0
DWIDTH 16 0
BBX 18 26 0 -2
BITMAP
0000C0
0001C0
000180
000380
000300
000000
000780
001F00
003700
006F00
00CF00
018F00
018E00
3FCE00
777E00
E61E00
EE1C00
0E1C00
1C1C00
1C3C00
1C3C00
383800
383800
387800
380000
380000
ENDCHAR
STARTCHAR Acircumflex
ENCODING 194
SWIDTH 668 0
DWIDTH 16 0
BBX 18 26 0 -2
BITMAP
000080
000180
0003C0
0006C0
001840
000000
000780
001F00
003700
006F00
00CF00
018F00
018E00
3FCE00
777E00
E61E00
EE1C00
0E1C00
1C1C00
1C3C00
1C3C00
383800
383800
387800
380000
380000
ENDCHAR
STARTCHAR Atilde
ENCODING 195
SWIDTH 668 0
DWIDTH 16 0
BBX 19 24 0 -2
BITMAP
000F20
003FE0
000100
000000
000780
001F00
003700
006F00
00CF00
018F00
018E00
3FCE00
777E00
E61E00
EE1C00
0E1C00
1C1C00
1C3C00
1C3C00
383800
383800
387800
380000
380000
ENDCHAR
STARTCHAR Adieresis
ENCODING 196
SWIDTH 668 0
DWIDTH 16 0
BBX 18 24 0 -2
BITMAP
0018C0
001DC0
0018C0
000000
000780
001F00
003700
006F00
00CF00
018F00
018E00
3FCE00
777E00
E61E00
EE1C00
0E1C00
1C1C00
1C3C00
1C3C00
383800
383800
387800
380000
380000
ENDCHAR
STARTCHAR Aring
ENCODING 197
SWIDTH 668 0
DWIDTH 16 0
BBX 17 25 0 -2
BITMAP
000700
000500
000500
000700
000000
000780
001F00
003700
006F00
00CF00
018F00
018E00
3FCE00
777E00
E61E00
EE1C00
0E1C00
1C1C00
1C3C00
1C3C00
383800
383800
387800
380000
380000
ENDCHAR
STARTCHAR AE
ENCODING 198
SWIDTH 764 0
DWIDTH 18 0
BBX 22 20 0 -2
BITMAP
000784
001FF8
003778
006F00
00CF00
018F00
018E00
3F8E00
777FE0
E61FC0
EE1C00
0E1C00
1C1C00
1C3C00
1C3C00
383FE0
383FE0
387FC0
380000
380000
ENDCHAR
STARTCHAR Ccedilla
ENCODING 199
SWIDTH 497 0
DWIDTH 12 0
BBX 13 23 0 -5
BITMAP
03E0
07B0
0F18
1E18
3C38
3C30
7800
7800
7800
7800
7800
F000
F000
F808
7810
7830
3FC0
1F00
0400
0780
0180
0900
1E00
ENDCHAR
STARTCHAR Egrave
ENCODING 200
SWIDTH 459 0
DWIDTH 11 0
BBX 12 24 0 0
BITMAP
0380
0180
0180
0180
0000
0000
03C0
07E0
0E30
1C30
1C60
1C00
1E00
0F80
1E00
3C00
7800
7800
F000
F010
F820
F8C0
7F80
3E00
ENDCHAR
STARTCHAR Eacute
ENCODING 201
SWIDTH 459 0
DWIDTH 11 0
BBX 13 24 0 0
BITMAP
0038
0070
0060
00C0
00C0
0000
03C0
07E0
0E30
1C30
1C60
1C00
1E00
0F80
1E00
3C00
7800
7800
F000
F010
F820
F8C0
7F80
3E00
ENDCHAR
STARTCHAR Ecircumflex
ENCODING 202
SWIDTH 459 0
DWIDTH 11 0
BBX 12 24 0 0
BITMAP
0060
00E0
01E0
0330
0410
0000
03C0
07E0
0E30
1C30
1C60
1C00
1E00
0F80
1E00
3C00
7800
7800
F000
F010
F820
F8C0
7F80
3E00
ENDCHAR
STARTCHAR Edieresis
ENCODING 203
SWIDTH 459 0
DWIDTH 11 0
BBX 13 23 0 0
BITMAP
0310
03B8
0338
0000
0000
03C0
07E0
0E30
1C30
1C60
1C00
1E00
0F80
1E00
3C00
7800
7800
F000
F010
F820
F8C0
7F80
3E00
ENDCHAR
STARTCHAR Igrave
ENCODING 204
SWIDTH 375 0
DWIDTH 9 0
BBX 10 23 0 0
BITMAP
0700
0300
0300
0300
0000
03C0
1F80
3380
6780
6780
E700
C700
CF00
2F00
0F00
0E00
0E00
1E00
1E00
1C00
1C00
1C00
3C00
ENDCHAR
STARTCHAR Iacute
ENCODING 205
SWIDTH 375 0
DWIDTH 9 0
BBX 12 24 0 0
BITMAP
0070
0060
00C0
00C0
0180
0000
03C0
1F80
3380
6780
6780
E700
C700
CF00
2F00
0F00
0E00
0E00
1E00
1E00
1C00
1C00
1C00
3C00
ENDCHAR
STARTCHAR Icircumflex
ENCODING 206
SWIDTH 375 0
DWIDTH 9 0
BBX 11 24 0 0
BITMAP
0040
00C0
01C0
0360
0C20
0000
03C0
1F80
3380
6780
6780
E700
C700
CF00
2F00
0F00
0E00
0E00
1E00
1E00
1C00
1C00
1C00
3C00
ENDCHAR
STARTCHAR Idieresis
ENCODING 207
SWIDTH 375 0
DWIDTH 9 0
BBX 12 22 0 0
BITMAP
0660
0E70
0660
0000
03C0
1F80
3380
6780
6780
E700
C700
CF00
2F00
0F00
0E00
0E00
1E00
1E00
1C00
1C00
1C00
3C00
ENDCHAR
STARTCHAR Eth
ENCODING 208
SWIDTH 663 0
DWIDTH 16 0
BBX 15 18 0 0
BITMAP
03F0
1F7C
381E
778E
E78E
E70E
C70E
CF0E
3FCE
0E0E
0E0E
0E1E
1E1C
1E3C
1C38
1C78
1FF0
3DE0
ENDCHAR
STARTCHAR Ntilde
ENCODING 209
SWIDTH 686 0
DWIDTH 16 0
BBX 17 22 0 0
BITMAP
007C80
00FF00
010400
000000
078180
1FC180
33C380
67C300
E7C300
E7C300
E7E300
E6E700
6EE600
0CE600
0CF600
0CF600
1C7E00
1C7C00
187C00
187C00
183C00
383800
ENDCHAR
STARTCHAR Ograve
ENCODING 210
SWIDTH 665 0
DWIDTH 16 0
BBX 16 24 0 0
BITMAP
01C0
00C0
00C0
00C0
0000
0000
01F8
0FBC
184E
338E
678F
6707
EF0F
6E0F
3E0F
1E0E
1C0E
1C1E
1C1C
1C3C
1C38
1E70
1FE0
07C0
ENDCHAR
STARTCHAR Oacute
ENCODING 211
SWIDTH 665 0
DWIDTH 16 0
BBX 16 24 0 0
BITMAP
000C
001C
0018
0030
0020
0000
01F8
0FBC
184E
338E
678F
6707
EF0F
6E0F
3E0F
1E0E
1C0E
1C1E
1C1C
1C3C
1C38
1E70
1FE0
07C0
ENDCHAR
STARTCHAR Ocircumflex
ENCODING 212
SWIDTH 665 0
DWIDTH 16 0
BBX 16 24 0 0
BITMAP
0010
0030
0078
00C8
0104
0000
01F8
0FBC
184E
338E
678F
6707
EF0F
6E0F
3E0F
1E0E
1C0E
1C1E
1C1C
1C3C
1C38
1E70
1FE0
07C0
ENDCHAR
STARTCHAR Otilde
ENCODING 213
SWIDTH 665 0
DWIDTH 16 0
BBX 16 22 0 0
BITMAP
00FF
01FE
0008
0000
01F8
0FBC
184E
338E
678F
6707
EF0F
6E0F
3E0F
1E0E
1C0E
1C1E
1C1C
1C3C
1C38
1E70
1FE0
07C0
ENDCHAR
STARTCHAR Odieresis
ENCODING 214
SWIDTH 665 0
DWIDTH 16 0
BBX 16 22 0 0
BITMAP
018C
01DC
018C
0000
01F8
0FBC
184E
338E
678F
6707
EF0F
6E0F
3E0F
1E0E
1C0E
1C1E
1C1C
1C3C
1C38
1E70
1FE0
07C0
ENDCHAR
STARTCHAR multiply
ENCODING 215
SWIDTH 414 0
DWIDTH 10 0
BBX 8 8 1 4
BITMAP
42
E7
7E
3C
3C
7E
E7
42
ENDCHAR
STARTCHAR Oslash
ENCODING 216
SWIDTH 658 0
DWIDTH 16 0
BBX 15 19 0 -1
BITMAP
0030
03F0
0FBC
39EE
73AE
676E
EF4E
CE4E
7E4E
1E4E
1CDE
1C9C
1C9C
3CB8
1DB8
1DF0
1FC0
0F00
0300
ENDCHAR
STARTCHAR Ugrave
ENCODING 217
SWIDTH 716 0
DWIDTH 17 0
BBX 18 24 0 0
BITMAP
003000
003800
001800
001800
000000
000000
03C1C0
1FC3C0
3383C0
638380
E38380
C78380
C70780
C70780
070700
0F0700
0E0F00
0E0F00
0E0E00
0E1E00
0E1C00
0F7C00
0FF800
07E000
ENDCHAR
STARTCHAR Uacute
ENCODING 218
SWIDTH 716 0
DWIDTH 17 0
BBX 18 24 0 0
BITMAP
000600
000C00
000C00
001800
001800
000000
03C1C0
1FC3C0
3383C0
638380
E38380
C78380
C70780
C70780
070700
0F0700
0E0F00
0E0F00
0E0E00
0E1E00
0E1C00
0F7C00
0FF800
07E000
ENDCHAR
STARTCHAR Ucircumflex
ENCODING 219
SWIDTH 716 0
DWIDTH 17 0
BBX 18 24 0 0
BITMAP
000400
000E00
001E00
003200
004100
000000
03C1C0
1FC3C0
3383C0
638380
E38380
C78380
C70780
C70780
070700
0F0700
0E0F00
0E0F00
0E0E00
0E1E00
0E1C00
0F7C00
0FF800
07E000
ENDCHAR
STARTCHAR Udieresis
ENCODING 220
SWIDTH 716 0
DWIDTH 17 0
BBX 18 23 0 0
BITMAP
003300
007700
007300
000000
000000
03C1C0
1FC3C0
3383C0
638380
E38380
C78380
C70780
C70780
070700
0F0700
0E0F00
0E0F00
0E0E00
0E1E00
0E1C00
0F7C00
0FF800
07E000
ENDCHAR
STARTCHAR Yacute
ENCODING 221
SWIDTH 620 0
DWIDTH 15 0
BBX 17 24 0 0
BITMAP
000380
000700
000600
000600
000C00
000000
03C180
1FC100
33C300
63C200
61E600
E1E400
C1E400
C1E800
20F800
00F800
00F000
00F000
00F000
00E000
01E000
01E000
01E000
01E000
ENDCHAR
STARTCHAR Thorn
ENCODING 222
SWIDTH 583 0
DWIDTH 14 0
BBX 14 18 0 0
BITMAP
01C0
0380
0380
07F0
1FB8
379C
671C
E70C
CF1C
CF1C
6E1C
0E38
1E70
1FE0
1E00
1C00
1C00
3C00
ENDCHAR
STARTCHAR germandbls
ENCODING 223
SWIDTH 480 0
DWIDTH 12 0
BBX 12 23 -2 -6
BITMAP
01E0
03F0
0730
0F30
0E30
0E60
1E60
1EC0
1CE0
1C60
1C70
3C30
3C30
3870
3870
7AF0
7BC0
7800
7000
7000
F000
F000
8000
ENDCHAR
STARTCHAR agrave
ENCODING 224
SWIDTH 526 0
DWIDTH 13 0
BBX 14 18 0 0
BITMAP
0700
0300
0300
0300
0000
0000
0EF0
3DE0
78E0
71E0
F1E0
F1C0
E1C0
E3C4
E3C8
F7C8
FDF0
79E0
ENDCHAR
STARTCHAR aacute
ENCODING 225
SWIDTH 526 0
DWIDTH 13 0
BBX 14 18 0 0
BITMAP
00E0
01C0
0180
0300
0300
0000
0EF0
3DE0
78E0
71E0
F1E0
F1C0
E1C0
E3C4
E3C8
F7C8
FDF0
79E0
ENDCHAR
STARTCHAR acircumflex
ENCODING 226
SWIDTH 526 0
DWIDTH 13 0
BBX 14 18 0 0
BITMAP
00C0
01C0
03C0
0640
0820
0000
0EF0
3DE0
78E0
71E0
F1E0
F1C0
E1C0
E3C4
E3C8
F7C8
FDF0
79E0
ENDCHAR
STARTCHAR atilde
ENCODING 227
SWIDTH 526 0
DWIDTH 13 0
BBX 14 17 0 0
BITMAP
0788
0FF0
13E0
0000
0000
0EF0
3DE0
78E0
71E0
F1E0
F1C0
E1C0
E3C4
E3C8
F7C8
FDF0
79E0
ENDCHAR
STARTCHAR adieresis
ENCODING 228
SWIDTH 526 0
DWIDTH 13 0
BBX 14 17 0 0
BITMAP
0660
0E70
0660
0000
0000
0EF0
3DE0
78E0
71E0
F1E0
F1C0
E1C0
E3C4
E3C8
F7C8
FDF0
79E0
ENDCHAR
STARTCHAR aring
ENCODING 229
SWIDTH 526 0
DWIDTH 13 0
BBX 14 17 0 0
BITMAP
0380
0380
0280
0380
0000
0EF0
3DE0
78E0
71E0
F1E0
F1C0
E1C0
E3C4
E3C8
F7C8
FDF0
79E0
ENDCHAR
STARTCHAR ae
ENCODING 230
SWIDTH 650 0
DWIDTH 16 0
BBX 16 12 0 0
BITMAP
0F3C
3BFE
21E6
01E6
01CE
3FDC
FBF8
E3C0
E3C1
E7C2
FDFC
79F0
ENDCHAR
STARTCHAR ccedilla
ENCODING 231
SWIDTH 384 0
DWIDTH 9 0
BBX 10 17 0 -5
BITMAP
0F00
3F80
7980
7100
F000
F000
E000
E000
E0C0
F180
FE00
7C00
0800
1E00
0600
2600
3C00
ENDCHAR
STARTCHAR egrave
ENCODING 232
SWIDTH 384 0
DWIDTH 9 0
BBX 10 18 0 0
BITMAP
0C00
0E00
0600
0600
0000
0000
0F00
3F80
7980
7180
F300
F600
FC00
E000
E040
E080
FF00
7C00
ENDCHAR
STARTCHAR eacute
ENCODING 233
SWIDTH 384 0
DWIDTH 9 0
BBX 10 18 0 0
BITMAP
01C0
0180
0380
0300
0600
0000
0F00
3F80
7980
7180
F300
F600
FC00
E000
E040
E080
FF00
7C00
ENDCHAR
STARTCHAR ecircumflex
ENCODING 234
SWIDTH 384 0
DWIDTH 9 0
BBX 10 18 0 0
BITMAP
0100
0380
0780
0C80
1040
0000
0F00
3F80
7980
7180
F300
F600
FC00
E000
E040
E080
FF00
7C00
ENDCHAR
STARTCHAR edieresis
ENCODING 235
SWIDTH 384 0
DWIDTH 9 0
BBX 10 17 0 0
BITMAP
18C0
1DC0
18C0
0000
0000
0F00
3F80
7980
7180
F300
F600
FC00
E000
E040
E080
FF00
7C00
ENDCHAR
STARTCHAR igrave
ENCODING 236
SWIDTH 267 0
DWIDTH 6 0
BBX 7 18 0 0
BITMAP
70
30
30
18
00
00
78
78
78
70
70
F0
F0
E0
E2
E6
FC
70
ENDCHAR
STARTCHAR iacute
ENCODING 237
SWIDTH 267 0
DWIDTH 6 0
BBX 7 18 0 0
BITMAP
06
0C
0C
18
18
00
78
78
78
70
70
F0
F0
E0
E2
E6
FC
70
ENDCHAR
STARTCHAR icircumflex
ENCODING 238
SWIDTH 267 0
DWIDTH 6 0
BBX 7 18 0 0
BITMAP
04
1C
3C
66
82
00
78
78
78
70
70
F0
F0
E0
E2
E6
FC
70
ENDCHAR
STARTCHAR idieresis
ENCODING 239
SWIDTH 267 0
DWIDTH 6 0
BBX 7 17 0 0
BITMAP
66
EE
66
00
00
78
78
78
70
70
F0
F0
E0
E2
E6
FC
70
ENDCHAR
STARTCHAR eth
ENCODING 240
SWIDTH 526 0
DWIDTH 13 0
BBX 14 18 0 0
BITMAP
0080
03C8
01F8
07E0
04E0
00E0
0EE0
3DE0
78E0
71E0
F1E0
F1C0
E1C0
E3C4
E3C8
F7C8
FDF0
79E0
ENDCHAR
STARTCHAR ntilde
ENCODING 241
SWIDTH 505 0
DWIDTH 12 0
BBX 14 17 -1 0
BITMAP
0788
0FF0
11E0
0000
0000
1FC0
3FE0
3CE0
38E0
38E0
79E0
79E0
71C0
71C4
71C8
F1F8
F0F0
ENDCHAR
STARTCHAR ograve
ENCODING 242
SWIDTH 433 0
DWIDTH 10 0
BBX 13 18 0 0
BITMAP
0E00
0600
0600
0300
0000
0000
0F00
3F80
7988
7198
F3E0
E180
E180
E380
E300
E700
FE00
7800
ENDCHAR
STARTCHAR oacute
ENCODING 243
SWIDTH 439 0
DWIDTH 11 0
BBX 13 18 0 0
BITMAP
01C0
0180
0380
0300
0600
0000
0F00
3D80
3988
7198
F1E0
F180
E180
E180
E300
E700
FE00
7C00
ENDCHAR
STARTCHAR ocircumflex
ENCODING 244
SWIDTH 433 0
DWIDTH 10 0
BBX 13 18 0 0
BITMAP
0100
0300
0780
0C80
3080
0000
0F00
3F80
7988
7198
F3E0
E180
E180
E380
E300
E700
FE00
7800
ENDCHAR
STARTCHAR otilde
ENCODING 245
SWIDTH 433 0
DWIDTH 10 0
BBX 13 17 0 0
BITMAP
1E20
3FC0
4F80
0000
0000
0F00
3F80
7988
7198
F3E0
E180
E180
E380
E300
E700
FE00
7800
ENDCHAR
STARTCHAR odieresis
ENCODING 246
SWIDTH 433 0
DWIDTH 10 0
BBX 13 17 0 0
BITMAP
1980
19C0
1980
0000
0000
0F00
3F80
7988
7198
F3E0
E180
E180
E380
E300
E700
FE00
7800
ENDCHAR
STARTCHAR divide
ENCODING 247
SWIDTH 415 0
DWIDTH 10 0
BBX 9 12 1 2
BITMAP
0C00
1E00
1E00
0C00
0000
FF80
0000
0000
3800
3C00
3C00
3800
ENDCHAR
STARTCHAR oslash
ENCODING 248
SWIDTH 428 0
DWIDTH 10 0
BBX 13 13 -2 -1
BITMAP
03C8
0F70
1E60
1C60
3CE0
3DE0
3B60
3E60
3CC0
3DC0
3F80
3E00
E000
ENDCHAR
STARTCHAR ugrave
ENCODING 249
SWIDTH 505 0
DWIDTH 12 0
BBX 13 18 0 0
BITMAP
0E00
0600
0600
0300
0000
0000
79E0
79E0
79C0
71C0
71C0
F3C0
F3C0
E380
E388
F790
FBF0
71C0
ENDCHAR
STARTCHAR uacute
ENCODING 250
SWIDTH 505 0
DWIDTH 12 0
BBX 13 18 0 0
BITMAP
00C0
01C0
0180
0300
0300
0000
79E0
79E0
79C0
71C0
71C0
F3C0
F3C0
E380
E388
F790
FBF0
71C0
ENDCHAR
STARTCHAR ucircumflex
ENCODING 251
SWIDTH 505 0
DWIDTH 12 0
BBX 13 18 0 0
BITMAP
0080
0380
0780
0CC0
1040
0000
79E0
79E0
79C0
71C0
71C0
F3C0
F3C0
E380
E388
F790
FBF0
71C0
ENDCHAR
STARTCHAR udieresis
ENCODING 252
SWIDTH 505 0
DWIDTH 12 0
BBX 13 17 0 0
BITMAP
0CC0
1CE0
0CC0
0000
0000
79E0
79E0
79C0
71C0
71C0
F3C0
F3C0
E380
E388
F790
FBF0
71C0
ENDCHAR
STARTCHAR yacute
ENCODING 253
SWIDTH 505 0
DWIDTH 12 0
BBX 13 24 0 -6
BITMAP
00C0
0180
0180
0300
0300
0000
79E0
79E0
79C0
71C0
71C0
F3C0
F3C0
E388
E390
F790
FFA0
77C0
0F00
3700
6F00
4F00
7E00
3C00
ENDCHAR
STARTCHAR thorn
ENCODING 254
SWIDTH 473 0
DWIDTH 11 0
BBX 13 24 -2 -6
BITMAP
0300
0700
0F00
0F00
0E00
0E00
0FE0
1FF0
1E78
1C78
1C78
3C78
3C70
3870
38F0
38E0
7FC0
7F80
7000
7000
7000
F000
F000
8000
ENDCHAR
STARTCHAR ydieresis
ENCODING 255
SWIDTH 505 0
DWIDTH 12 0
BBX 13 23 0 -6
BITMAP
18C0
1DC0
18C0
0000
0000
79E0
79E0
79C0
71C0
71C0
F3C0
F3C0
E388
E390
F790
FFA0
77C0
0F00
3700
6F00
4F00
7E00
3C00
ENDCHAR
STARTCHAR Amacron
ENCODING 256
SWIDTH 668 0
DWIDTH 16 0
BBX 19 24 0 -2
BITMAP
001FE0
000000
000000
000000
000780
001F00
003700
006F00
00CF00
018F00
018E00
3FCE00
777E00
E61E00
EE1C00
0E1C00
1C1C00
1C3C00
1C3C00
383800
383800
387800
380000
380000
ENDCHAR
STARTCHAR amacron
ENCODING 257
SWIDTH 526 0
DWIDTH 13 0
BBX 14 17 0 0
BITMAP
0FF0
0000
0000
0000
0000
0EF0
3DE0
78E0
71E0
F1E0
F1C0
E1C0
E3C4
E3C8
F7C8
FDF0
79E0
ENDCHAR
STARTCHAR Abreve
ENCODING 258
SWIDTH 668 0
DWIDTH 16 0
BBX 20 25 0 -2
BITMAP
001830
001C60
000FC0
000000
000000
000780
001F00
003700
006F00
00CF00
018F00
018E00
3FCE00
777E00
E61E00
EE1C00
0E1C00
1C1C00
1C3C00
1C3C00
383800
383800
387800
380000
380000
ENDCHAR
STARTCHAR abreve
ENCODING 259
SWIDTH 526 0
DWIDTH 13 0
BBX 14 18 0 0
BITMAP
0C30
0C30
0E60
07C0
0000
0000
0EF0
3DE0
78E0
71E0
F1E0
F1C0
E1C0
E3C4
E3C8
F7C8
FDF0
79E0
ENDCHAR
STARTCHAR Aogonek
ENCODING 260
SWIDTH 668 0
DWIDTH 16 0
BBX 17 22 0 -4
BITMAP
000780
001F00
003700
006F00
00CF00
018F00
018E00
3FCE00
777E00
E61E00
EE1C00
0E1C00
1C1C00
1C3C00
1C3C00
383800
383800
387800
382000
386000
006800
007000
ENDCHAR
STARTCHAR aogonek
ENCODING 261
SWIDTH 526 0
DWIDTH 13 0
BBX 14 16 0 -4
BITMAP
0EF0
3DE0
78E0
71E0
F1E0
F1C0
E1C0
E3C4
E3C8
F7C8
FDF0
79E0
0080
0180
0190
01E0
ENDCHAR
STARTCHAR Cacute
ENCODING 262
SWIDTH 497 0
DWIDTH 12 0
BBX 13 24 0 0
BITMAP
0038
0030
0060
0060
00C0
0000
03E0
07B0
0F18
1E18
3C38
3C10
7800
7800
7800
7800
7800
F000
F000
7808
7810
7C60
3FC0
1F00
ENDCHAR
STARTCHAR cacute
ENCODING 263
SWIDTH 384 0
DWIDTH 9 0
BBX 11 18 0 0
BITMAP
00E0
01C0
0180
0300
0300
0000
0F00
3F80
7980
7180
F000
F000
E000
E000
E040
E080
FF00
7C00
ENDCHAR
STARTCHAR Ccircumflex
ENCODING 264
SWIDTH 497 0
DWIDTH 12 0
BBX 13 24 0 0
BITMAP
0060
00E0
01E0
0330
0410
0000
03E0
07B0
0F18
1E18
3C38
3C10
7800
7800
7800
7800
7800
F000
F000
7808
7810
7C60
3FC0
1F00
ENDCHAR
STARTCHAR ccircumflex
ENCODING 265
SWIDTH 384 0
DWIDTH 9 0
BBX 10 18 0 0
BITMAP
0100
0380
0780
0C80
1040
0000
0F00
3F80
7980
7180
F000
F000
E000
E000
E040
E080
FF00
7C00
ENDCHAR
STARTCHAR Cdotaccent
ENCODING 266
SWIDTH 497 0
DWIDTH 12 0
BBX 13 24 0 0
BITMAP
0070
0078
0078
0070
0000
0000
03E0
07B0
0F18
1E18
3C38
3C10
7800
7800
7800
7800
7800
F000
F000
7808
7810
7C60
3FC0
1F00
ENDCHAR
STARTCHAR cdotaccent
ENCODING 267
SWIDTH 384 0
DWIDTH 9 0
BBX 10 18 0 0
BITMAP
0300
0780
0780
0300
0000
0000
0F00
3F80
7980
7180
F000
F000
E000
E000
E040
E080
FF00
7C00
ENDCHAR
STARTCHAR Ccaron
ENCODING 268
SWIDTH 497 0
DWIDTH 12 0
BBX 14 24 0 0
BITMAP
010C
01B0
00E0
00C0
0080
0000
03E0
07B0
0F18
1E18
3C38
3C10
7800
7800
7800
7800
7800
F000
F000
7808
7810
7C60
3FC0
1F00
ENDCHAR
STARTCHAR ccaron
ENCODING 269
SWIDTH 384 0
DWIDTH 9 0
BBX 12 18 0 0
BITMAP
0430
06C0
0780
0300
0200
0000
0F00
3F80
7980
7100
F000
F000
E000
E000
E080
F180
FF00
7C00
ENDCHAR
STARTCHAR Dcaron
ENCODING 270
SWIDTH 663 0
DWIDTH 16 0
BBX 15 24 0 0
BITMAP
010C
00B8
00E0
00C0
0080
0000
03F0
1F7C
381C
778E
678E
E70E
C70E
C70E
2F0E
0F0E
0E0E
0E1E
1E1C
1E3C
1C38
1C78
1FF0
3DE0
ENDCHAR
STARTCHAR dcaron
ENCODING 271
SWIDTH 525 0
DWIDTH 13 0
BBX 16 18 0 0
BITMAP
0003
000F
0073
0073
00F6
00F0
0EE0
3DE0
78E0
71E0
F1E0
F1C0
E1C0
E3C4
E3C8
F7C8
FDF0
79E0
ENDCHAR
STARTCHAR Dcroat
ENCODING 272
SWIDTH 663 0
DWIDTH 16 0
BBX 15 18 0 0
BITMAP
03F0
1F7C
381E
778E
E78E
E70E
C70E
CF0E
3FCE
0E0E
0E0E
0E1E
1E1C
1E3C
1C38
1C78
1FF0
3DE0
ENDCHAR
STARTCHAR dcroat
ENCODING 273
SWIDTH 525 0
DWIDTH 13 0
BBX 14 16 0 0
BITMAP
0078
0070
03FC
00F0
0EF0
3DE0
78E0
71E0
F1E0
F1C0
E1C0
E3C4
E3C8
F7C8
FDF0
79E0
ENDCHAR
STARTCHAR Emacron
ENCODING 274
SWIDTH 459 0
DWIDTH 11 0
BBX 13 22 0 0
BITMAP
03F8
0400
0000
0000
03C0
07E0
0E30
1C30
1C60
1C00
1E00
0F80
1E00
3C00
7800
7800
F000
F010
F820
F8C0
7F80
3E00
ENDCHAR
STARTCHAR emacron
ENCODING 275
SWIDTH 384 0
DWIDTH 9 0
BBX 10 17 0 0
BITMAP
3FC0
0000
0000
0000
0000
0F00
3F80
7980
7180
F300
F600
FC00
E000
E040
E080
FF00
7C00
ENDCHAR
STARTCHAR Ebreve
ENCODING 276
SWIDTH 459 0
DWIDTH 11 0
BBX 14 23 0 0
BITMAP
070C
0318
03F0
0000
0000
03C0
07E0
0E30
1C30
1C60
1C00
1E00
0F80
1E00
3C00
7800
7800
F000
F010
F820
F8C0
7F80
3E00
ENDCHAR
STARTCHAR ebreve
ENCODING 277
SWIDTH 384 0
DWIDTH 9 0
BBX 10 18 0 0
BITMAP
30C0
30C0
39C0
1F00
0000
0000
0F00
3F80
7980
7180
F300
F600
FC00
E000
E040
E080
FF00
7C00
ENDCHAR
STARTCHAR Edotaccent
ENCODING 278
SWIDTH 459 0
DWIDTH 11 0
BBX 12 24 0 0
BITMAP
00E0
00E0
00F0
00E0
0000
0000
03C0
07E0
0E30
1C30
1C60
1C00
1E00
0F80
1E00
3C00
7800
7800
F000
F010
F820
F8C0
7F80
3E00
ENDCHAR
STARTCHAR edotaccent
ENCODING 279
SWIDTH 384 0
DWIDTH 9 0
BBX 10 18 0 0
BITMAP
0300
0780
0780
0300
0000
0000
0F00
3F80
7980
7180
F300
F600
FC00
E000
E040
E080
FF00
7C00
ENDCHAR
STARTCHAR Eogonek
ENCODING 280
SWIDTH 459 0
DWIDTH 11 0
BBX 12 22 0 -4
BITMAP
07C0
1F60
1C30
3C30
3830
3C60
1C00
0E00
1F80
3C00
7800
7800
F000
F800
F830
7C60
7FC0
1F00
0300
0200
0740
0380
ENDCHAR
STARTCHAR eogonek
ENCODING 281
SWIDTH 384 0
DWIDTH 9 0
BBX 10 16 0 -4
BITMAP
0F00
3F80
7980
7180
F300
F600
FC00
E000
E040
E180
FF00
7C00
0800
1800
1900
1E00
ENDCHAR
STARTCHAR Ecaron
ENCODING 282
SWIDTH 459 0
DWIDTH 11 0
BBX 14 24 0 0
BITMAP
010C
00B8
00E0
00C0
0080
0000
03C0
07E0
0E30
1C30
1C60
1C00
1E00
0F80
1E00
3C00
7800
7800
F000
F010
F820
F8C0
7F80
3E00
ENDCHAR
STARTCHAR ecaron
ENCODING 283
SWIDTH 384 0
DWIDTH 9 0
BBX 12 18 0 0
BITMAP
0430
04C0
0780
0300
0200
0000
0F00
3F80
7980
7180
F300
F600
FC00
E000
E040
E080
FF00
7C00
ENDCHAR
STARTCHAR Gcircumflex
ENCODING 284
SWIDTH 578 0
DWIDTH 14 0
BBX 14 28 0 -4
BITMAP
0010
0070
00F0
0198
0208
0000
03F0
0FF8
1E1C
3C1C
7C38
7800
7800
7000
F038
F038
7070
7070
78F0
3F70
00F0
00E0
00E0
3EE0
31C0
31C0
3380
1F00
ENDCHAR
STARTCHAR gcircumflex
ENCODING 285
SWIDTH 507 0
DWIDTH 12 0
BBX 13 24 0 -6
BITMAP
00C0
01C0
03C0
0640
0820
0000
0EF0
3DE0
78E0
71E0
F1E0
F1C0
E1C0
E3C0
E3C8
F790
FFB0
7BE0
0F80
1F80
2700
2700
3F00
1C00
ENDCHAR
STARTCHAR Gbreve
ENCODING 286
SWIDTH 578 0
DWIDTH 14 0
BBX 15 27 0 -4
BITMAP
0186
018E
00FC
0000
0000
03F0
0FF8
1E1C
3C1C
7C38
7810
7800
7000
F038
F038
7078
7070
78F0
3F70
00F0
00E0
00E0
3EE0
31C0
31C0
3380
1F00
ENDCHAR
STARTCHAR gbreve
ENCODING 287
SWIDTH 507 0
DWIDTH 12 0
BBX 13 23 0 -6
BITMAP
0C30
0C70
07C0
0000
0000
0EF0
3DE0
78E0
71E0
F1E0
F1C0
E1C0
E3C0
E3C8
F790
FFB0
7BE0
0F80
1F80
2700
2700
3F00
1C00
ENDCHAR
STARTCHAR Gdotaccent
ENCODING 288
SWIDTH 578 0
DWIDTH 14 0
BBX 14 28 0 -4
BITMAP
0060
00F0
00F0
0060
0000
0000
03F0
0FF8
1E1C
3C1C
7C38
7810
7800
7000
F038
F038
7078
7070
78F0
3F70
00F0
00E0
00E0
3EE0
31C0
31C0
3380
1F00
ENDCHAR
STARTCHAR gdotaccent
ENCODING 289
SWIDTH 507 0
DWIDTH 12 0
BBX 13 24 0 -6
BITMAP
0180
03C0
03C0
0180
0000
0000
0EF0
3DE0
78E0
71E0
F1E0
F1C0
E1C0
E3C0
E3C8
F790
FFB0
7BE0
0F80
1F80
2700
2700
3F00
1C00
ENDCHAR
STARTCHAR Gcommaaccent
ENCODING 290
SWIDTH 578 0
DWIDTH 14 0
BBX 13 24 0 -6
BITMAP
03E0
07F0
0E38
1E38
3C70
3820
7800
7800
F800
F038
F038
F070
F070
F070
F0F0
78E0
7FE0
1EE0
0000
0200
0600
0600
0200
0400
ENDCHAR
STARTCHAR gcommaaccent
ENCODING 291
SWIDTH 507 0
DWIDTH 12 0
BBX 13 24 0 -6
BITMAP
0080
0100
0300
0380
0100
0000
0EF0
3DE0
78E0
71E0
F1E0
F1C0
E1C0
E3C0
E3C8
F790
FFB0
7BE0
0F80
1F80
2700
2700
3F00
1C00
ENDCHAR
STARTCHAR Hcircumflex
ENCODING 292
SWIDTH 665 0
DWIDTH 16 0
BBX 17 24 0 0
BITMAP
000400
000C00
001C00
003600
00C200
000000
03C780
0F8700
3B8700
778F00
678F00
E78F00
E70E00
67FE00
2FFE00
0F1E00
0E1C00
0E1C00
0E1C00
1E3C00
1E3C00
1C3800
1C3800
3C7800
ENDCHAR
STARTCHAR hcircumflex
ENCODING 293
SWIDTH 505 0
DWIDTH 12 0
BBX 14 22 -1 0
BITMAP
0100
0300
0780
0C80
3080
0000
1E00
1E00
1C00
1C00
1DC0
3FE0
3CE0
3CE0
38E0
78E0
79E0
79C0
71C4
71C8
F1F8
F0E0
ENDCHAR
STARTCHAR Hbar
ENCODING 294
SWIDTH 665 0
DWIDTH 16 0
BBX 18 18 0 0
BITMAP
03C780
0F8700
3B8700
738700
678F00
EFFFC0
E70E00
E70E00
67FE00
0F1E00
0F1E00
0E1C00
0E1C00
1E3C00
1E3C00
1C3800
1C3800
3C7800
ENDCHAR
STARTCHAR hbar
ENCODING 295
SWIDTH 505 0
DWIDTH 12 0
BBX 14 17 -1 0
BITMAP
1E00
1E00
7F80
1C00
1C00
3DC0
3FE0
3CE0
3CE0
38E0
78E0
79E0
79C0
71C4
71C8
F1F8
F0E0
ENDCHAR
STARTCHAR Itilde
ENCODING 296
SWIDTH 375 0
DWIDTH 9 0
BBX 13 22 0 0
BITMAP
0788
0FF0
1080
0000
03C0
1F80
3380
6780
6780
E700
C700
CF00
2F00
0F00
0E00
0E00
1E00
1E00
1C00
1C00
1C00
3C00
ENDCHAR
STARTCHAR itilde
ENCODING 297
SWIDTH 267 0
DWIDTH 6 0
BBX 7 17 0 0
BITMAP
3A
7E
9C
00
00
78
78
78
70
70
F0
F0
E0
E2
E6
FC
70
ENDCHAR
STARTCHAR Imacron
ENCODING 298
SWIDTH 375 0
DWIDTH 9 0
BBX 12 22 0 0
BITMAP
0FF0
0000
0000
0000
03C0
1F80
3380
6780
6780
E700
C700
CF00
2F00
0F00
0E00
0E00
1E00
1E00
1C00
1C00
1C00
3C00
ENDCHAR
STARTCHAR imacron
ENCODING 299
SWIDTH 267 0
DWIDTH 6 0
BBX 7 17 0 0
BITMAP
7E
80
00
00
00
78
78
78
70
70
F0
F0
E0
E2
E6
FC
70
ENDCHAR
STARTCHAR Ibreve
ENCODING 300
SWIDTH 375 0
DWIDTH 9 0
BBX 13 23 0 0
BITMAP
0C18
0E30
07E0
0000
0000
03C0
1F80
3380
6780
6780
E700
C700
CF00
2F00
0F00
0E00
0E00
1E00
1E00
1C00
1C00
1C00
3C00
ENDCHAR
STARTCHAR ibreve
ENCODING 301
SWIDTH 267 0
DWIDTH 6 0
BBX 8 18 0 0
BITMAP
63
63
66
3C
00
00
78
78
78
70
70
F0
F0
E0
E2
E6
FC
70
ENDCHAR
STARTCHAR Iogonek
ENCODING 302
SWIDTH 375 0
DWIDTH 9 0
BBX 10 28 0 -5
BITMAP
0E00
0600
0600
0600
0000
03C0
1F80
3380
6780
6780
E700
C700
CF00
2F00
0F00
0E00
0E00
1E00
1E00
1C00
1C00
1C00
3C00
1000
3000
6000
7200
3C00
ENDCHAR
STARTCHAR iogonek
ENCODING 303
SWIDTH 267 0
DWIDTH 6 0
BBX 8 22 -1 -5
BITMAP
0C
1E
1E
0C
00
1C
3C
3C
38
38
78
78
70
71
73
7E
38
40
C0
C0
C8
78
ENDCHAR
STARTCHAR Idotaccent
ENCODING 304
SWIDTH 375 0
DWIDTH 9 0
BBX 10 23 0 0
BITMAP
01C0
01C0
01C0
01C0
0000
03C0
1F80
3380
6780
6780
E700
C700
CF00
2F00
0F00
0E00
0E00
1E00
1E00
1C00
1C00
1C00
3C00
ENDCHAR
STARTCHAR dotlessi
ENCODING 305
SWIDTH 267 0
DWIDTH 6 0
BBX 7 12 0 0
BITMAP
78
78
78
70
70
F0
F0
E0
E2
E6
FC
70
ENDCHAR
STARTCHAR IJ
ENCODING 306
SWIDTH 663 0
DWIDTH 16 0
BBX 16 22 0 -4
BITMAP
03C3
1F8F
338F
678E
678E
E71E
C71E
CF1E
2F1C
0F1C
0E3C
0E3C
1E38
1E38
1C78
1C78
1C78
3F70
19F0
18F0
19E0
0FC0
ENDCHAR
STARTCHAR ij
ENCODING 307
SWIDTH 507 0
DWIDTH 12 0
BBX 13 23 0 -6
BITMAP
1860
3CF0
3CF0
1860
0000
78F0
78E0
78E0
71E0
71E0
F1C0
F1C0
E3C0
E3C8
E390
FBB0
73E0
0F80
1F80
2700
2700
3F00
1C00
ENDCHAR
STARTCHAR Jcircumflex
ENCODING 308
SWIDTH 536 0
DWIDTH 13 0
BBX 15 28 0 -4
BITMAP
0004
000C
001E
0062
0082
0000
003C
00FC
01B8
0338
0678
0678
0E70
0670
0270
00F0
00F0
00E0
00E0
01E0
01E0
01E0
01C0
7FC0
67C0
C380
6780
7E00
ENDCHAR
STARTCHAR jcircumflex
ENCODING 309
SWIDTH 240 0
DWIDTH 6 0
BBX 12 24 -5 -6
BITMAP
0060
00E0
01E0
0320
0410
0000
01C0
03C0
03C0
0380
0380
0780
0780
0780
0710
0720
0F60
0F80
1E00
7E00
CE00
DE00
FC00
7800
ENDCHAR
STARTCHAR Kcommaaccent
ENCODING 310
SWIDTH 601 0
DWIDTH 14 0
BBX 16 23 0 -5
BITMAP
03C7
1F8E
339C
6798
E730
C760
C7C0
6FF0
0F78
0E38
0E38
0E38
1E78
1E70
1C70
1C70
1C70
3C78
0000
0300
0380
0100
0300
ENDCHAR
STARTCHAR kcommaaccent
ENCODING 311
SWIDTH 518 0
DWIDTH 12 0
BBX 14 23 -1 -6
BITMAP
0200
1E00
1E00
1C00
1C00
1C70
3CC0
3D80
3BC0
3FE0
7DE0
79E0
79E0
71E4
71EC
F1F8
F0F0
0000
0400
0E00
0600
0400
0800
ENDCHAR
STARTCHAR kgreenlandic
ENCODING 312
SWIDTH 518 0
DWIDTH 12 0
BBX 14 12 -1 0
BITMAP
1C70
3CC0
3D80
3BC0
3FE0
7DE0
79E0
79E0
71E4
71EC
F1F8
F0F0
ENDCHAR
STARTCHAR Lacute
ENCODING 313
SWIDTH 379 0
DWIDTH 9 0
BBX 16 30 0 -6
BITMAP
0070
0060
0060
00C0
0180
0000
03C0
1F80
3380
6780
6780
E700
C700
CF00
2F00
0E00
0E00
0E00
1E00
1E00
1C00
1C00
3C00
3E00
0780
03C0
00F1
007F
003E
000E
ENDCHAR
STARTCHAR lacute
ENCODING 314
SWIDTH 267 0
DWIDTH 6 0
BBX 9 23 0 0
BITMAP
0380
0300
0600
0600
0C00
0000
0C00
3C00
3C00
3800
3800
3800
7800
7800
7000
7000
F000
F000
E200
E200
FE00
FC00
7000
ENDCHAR
STARTCHAR Lcommaaccent
ENCODING 315
SWIDTH 379 0
DWIDTH 9 0
BBX 16 24 0 -6
BITMAP
03C0
1F80
3380
6780
6780
E700
C700
CF00
2F00
0E00
0E00
0E00
1E00
1E00
1C00
1C00
3C00
3E00
0780
13C0
38F1
307F
103E
200E
ENDCHAR
STARTCHAR lcommaaccent
ENCODING 316
SWIDTH 267 0
DWIDTH 6 0
BBX 7 23 0 -6
BITMAP
0C
3C
3C
38
38
38
78
78
70
70
F0
F0
E2
E2
FE
FC
70
00
40
E0
C0
40
80
ENDCHAR
STARTCHAR Lcaron
ENCODING 317
SWIDTH 379 0
DWIDTH 9 0
BBX 16 30 0 -6
BITMAP
0104
0118
01F0
00C0
0080
0000
03C0
1F80
3380
6780
6780
E700
C700
CF00
2F00
0E00
0E00
0E00
1E00
1E00
1C00
1C00
3C00
3E00
0780
03C0
00F1
007F
003E
000E
ENDCHAR
STARTCHAR lcaron
ENCODING 318
SWIDTH 267 0
DWIDTH 6 0
BBX 10 18 0 0
BITMAP
0180
01C0
3DC0
3C80
3900
3800
3800
7800
7800
7000
7000
F000
F000
F000
E200
E600
FC00
7000
ENDCHAR
STARTCHAR Ldot
ENCODING 319
SWIDTH 605 0
DWIDTH 15 0
BBX 16 24 0 -6
BITMAP
03C0
0F80
3380
6780
6780
E700
C700
CF00
6F00
0F00
0E38
0E38
1E38
1E38
1C00
1C00
3C00
3E00
0700
03C0
00F1
007F
003E
000E
ENDCHAR
STARTCHAR ldot
ENCODING 320
SWIDTH 353 0
DWIDTH 8 0
BBX 8 17 0 0
BITMAP
1C
3C
3C
38
38
78
78
7B
77
73
F0
F0
F0
E0
E0
F8
70
ENDCHAR
STARTCHAR Lslash
ENCODING 321
SWIDTH 392 0
DWIDTH 9 0
BBX 16 24 0 -6
BITMAP
03C0
1F80
3380
6780
6780
E720
C7C0
CF80
2F00
1F00
3E00
0E00
1E00
1E00
1C00
1C00
3C00
3E00
0780
03C0
00F1
007F
003E
000E
ENDCHAR
STARTCHAR lslash
ENCODING 322
SWIDTH 286 0
DWIDTH 7 0
BBX 9 17 -1 0
BITMAP
0600
1E00
1E00
1C00
1C80
1F80
3E00
3C00
3800
F800
F800
7800
7100
7100
7F00
7E00
3800
ENDCHAR
STARTCHAR Nacute
ENCODING 323
SWIDTH 702 0
DWIDTH 17 0
BBX 17 24 0 0
BITMAP
000380
000300
000600
000600
000C00
000000
078180
1FC180
33C380
67C300
E7C300
E7C300
E7E300
E6E700
6EE600
0CE600
0CF600
0CF600
1C7E00
1C7C00
187C00
187C00
183C00
383800
ENDCHAR
STARTCHAR nacute
ENCODING 324
SWIDTH 505 0
DWIDTH 12 0
BBX 14 18 -1 0
BITMAP
0070
0060
00C0
00C0
0180
0000
1FC0
3FE0
3CE0
38E0
38E0
79E0
79E0
71C0
71C4
71C8
F1F8
F0F0
ENDCHAR
STARTCHAR Ncommaaccent
ENCODING 325
SWIDTH 668 0
DWIDTH 16 0
BBX 17 24 0 -6
BITMAP
078180
1FC180
33C380
67C300
E7C300
E7C300
E7E300
E6E700
6EE600
0CE600
0CF600
0CF600
1C7E00
1C7C00
187C00
187C00
183C00
383800
000000
010000
038000
030000
010000
020000
ENDCHAR
STARTCHAR ncommaaccent
ENCODING 326
SWIDTH 505 0
DWIDTH 12 0
BBX 14 18 -1 -6
BITMAP
1FC0
3FE0
3CE0
38E0
38E0
79E0
79E0
71C0
71C4
71C8
F1F8
F0F0
0000
0800
0C00
0C00
0C00
0800
ENDCHAR
STARTCHAR Ncaron
ENCODING 327
SWIDTH 668 0
DWIDTH 16 0
BBX 18 24 0 0
BITMAP
002040
001180
001E00
000C00
000800
000000
078180
1FC180
33C380
67C300
E7C300
E7C300
E7E300
E6E700
6EE600
0CE600
0CF600
0CF600
1C7E00
1C7C00
187C00
187C00
183C00
383800
ENDCHAR
STARTCHAR ncaron
ENCODING 328
SWIDTH 505 0
DWIDTH 12 0
BBX 14 18 -1 0
BITMAP
0430
02E0
03C0
0300
0200
0000
1FC0
3FE0
3CE0
38E0
38E0
79E0
79E0
71C0
71C4
71C8
F1F8
F0F0
ENDCHAR
STARTCHAR napostrophe
ENCODING 329
SWIDTH 505 0
DWIDTH 12 0
BBX 14 18 -1 0
BITMAP
3000
3800
1800
1000
2000
0000
1FC0
3FE0
3CE0
38E0
38E0
79E0
79E0
71C0
71C4
71C8
F1F8
F0F0
ENDCHAR
STARTCHAR Eng
ENCODING 330
SWIDTH 723 0
DWIDTH 17 0
BBX 18 22 1 -4
BITMAP
07C1C0
1FC180
3BC180
63C380
67C300
E7E300
E7E300
E6E300
6EE700
0EE600
0CF600
0C7600
0C7E00
1C7C00
183C00
183C00
183C00
383800
073800
063000
067000
03C000
ENDCHAR
STARTCHAR eng
ENCODING 331
SWIDTH 505 0
DWIDTH 12 0
BBX 11 18 -1 -6
BITMAP
3DC0
3FE0
3CE0
38E0
38E0
79E0
79E0
71C0
71C0
71C0
F3C0
F3C0
0780
1B80
2380
2780
3F00
1E00
ENDCHAR
STARTCHAR Omacron
ENCODING 332
SWIDTH 665 0
DWIDTH 16 0
BBX 16 22 0 0
BITMAP
01FE
0200
0000
0000
01F8
0FBC
184E
338E
678F
6707
EF0F
6E0F
3E0F
1E0E
1C0E
1C1E
1C1C
1C3C
1C38
1E70
1FE0
07C0
ENDCHAR
STARTCHAR omacron
ENCODING 333
SWIDTH 433 0
DWIDTH 10 0
BBX 13 17 0 0
BITMAP
1FC0
2000
0000
0000
0000
0F00
3F80
7988
7198
F3E0
E180
E180
E380
E300
E700
FE00
7800
ENDCHAR
STARTCHAR Obreve
ENCODING 334
SWIDTH 665 0
DWIDTH 16 0
BBX 16 23 0 0
BITMAP
0183
01C7
00FC
0000
0000
01F8
0FBC
184E
338E
678F
6707
EF0F
6E0F
3E0F
1E0E
1C0E
1C1E
1C1C
1C3C
1C38
1E70
1FE0
07C0
ENDCHAR
STARTCHAR obreve
ENCODING 335
SWIDTH 433 0
DWIDTH 10 0
BBX 13 18 0 0
BITMAP
1860
1860
18C0
0F80
0000
0000
0F00
3F80
7988
7198
F3E0
E180
E180
E380
E300
E700
FE00
7800
ENDCHAR
STARTCHAR Ohungarumlaut
ENCODING 336
SWIDTH 665 0
DWIDTH 16 0
BBX 18 23 0 0
BITMAP
001DC0
003300
003200
006600
000000
01F800
0FBC00
184E00
338E00
678F00
670700
EF0F00
6E0F00
3E0F00
1E0E00
1C0E00
1C1E00
1C1C00
1C3C00
1C3800
1E7000
1FE000
07C000
ENDCHAR
STARTCHAR ohungarumlaut
ENCODING 337
SWIDTH 433 0
DWIDTH 10 0
BBX 13 18 0 0
BITMAP
0770
0660
0CC0
1980
0000
0000
0F00
3F80
7988
7198
F3E0
E180
E180
E380
E300
E700
FE00
7800
ENDCHAR
STARTCHAR OE
ENCODING 338
SWIDTH 846 0
DWIDTH 20 0
BBX 22 18 0 0
BITMAP
01FFFC
0FBFF8
18CE78
338E00
678F00
670700
EF0700
6E0F00
3E0FE0
1E0FC0
1C0E00
1C1E00
1C1C00
1C1C00
1C3800
1C7FC0
1EFFC0
07FFC0
ENDCHAR
STARTCHAR oe
ENCODING 339
SWIDTH 663 0
DWIDTH 16 0
BBX 17 12 0 0
BITMAP
0F1E00
3FFB00
79F300
73E300
F3E200
E1E400
E1F800
E1C080
E3C180
F3E300
FEFE00
7C7800
ENDCHAR
STARTCHAR Racute
ENCODING 340
SWIDTH 601 0
DWIDTH 14 0
BBX 14 24 0 0
BITMAP
001C
0038
0030
0060
0060
0000
03F0
1F78
389C
679C
E79C
C718
C770
67F0
0F78
0E38
0E38
0E38
1E78
1E70
1C70
1C70
1C70
3C78
ENDCHAR
STARTCHAR racute
ENCODING 341
SWIDTH 376 0
DWIDTH 9 0
BBX 11 18 -1 0
BITMAP
00E0
01C0
0180
0300
0300
0000
1DC0
3FC0
3CC0
3800
3800
7800
7800
7000
7000
7000
F000
F000
ENDCHAR
STARTCHAR Rcommaaccent
ENCODING 342
SWIDTH 601 0
DWIDTH 14 0
BBX 14 23 0 -5
BITMAP
03F0
1F78
389C
679C
E79C
C718
C770
67F0
0F78
0E38
0E38
0E38
1E78
1E70
1C70
1C70
1C70
3C78
0000
0300
0300
0300
0200
ENDCHAR
STARTCHAR rcommaaccent
ENCODING 343
SWIDTH 376 0
DWIDTH 9 0
BBX 10 18 -1 -6
BITMAP
1DC0
3FC0
3CC0
3800
3800
7800
7800
7000
7000
7000
F000
F000
0000
1000
3800
1800
1000
2000
ENDCHAR
STARTCHAR Rcaron
ENCODING 344
SWIDTH 601 0
DWIDTH 14 0
BBX 15 24 0 0
BITMAP
0086
005C
0070
0060
0040
0000
03F0
1F78
389C
679C
E79C
C718
C770
67F0
0F78
0E38
0E38
0E38
1E78
1E70
1C70
1C70
1C70
3C78
ENDCHAR
STARTCHAR rcaron
ENCODING 345
SWIDTH 376 0
DWIDTH 9 0
BBX 11 18 -1 0
BITMAP
0860
0D80
0700
0600
0400
0000
1DC0
3FC0
3CC0
3800
3800
7800
7800
7000
7000
7000
F000
F000
ENDCHAR
STARTCHAR Sacute
ENCODING 346
SWIDTH 570 0
DWIDTH 14 0
BBX 12 24 1 0
BITMAP
0030
0060
0060
00C0
0080
0000
07C0
0FF0
1C30
1C30
1C70
1E20
1E00
0F00
0780
03C0
13E0
79E0
E0E0
E0E0
E0E0
E1C0
7F80
3F00
ENDCHAR
STARTCHAR sacute
ENCODING 347
SWIDTH 382 0
DWIDTH 9 0
BBX 11 18 -1 0
BITMAP
00E0
00C0
0180
0180
0300
0100
0F00
0F00
1F00
1700
1700
2700
2700
6780
E7E0
C780
7F00
3C00
ENDCHAR
STARTCHAR Scircumflex
ENCODING 348
SWIDTH 570 0
DWIDTH 14 0
BBX 12 24 1 0
BITMAP
0060
00E0
01E0
0330
0410
0000
07C0
0FF0
1C30
1C30
1C70
1E20
1E00
0F00
0780
03C0
13E0
79E0
E0E0
E0E0
E0E0
E1C0
7F80
3F00
ENDCHAR
STARTCHAR scircumflex
ENCODING 349
SWIDTH 382 0
DWIDTH 9 0
BBX 11 18 -1 0
BITMAP
0100
0380
0780
0C80
1040
0100
0F00
0F00
1F00
1700
1700
2700
2700
6780
E7E0
C780
7F00
3C00
ENDCHAR
STARTCHAR Scedilla
ENCODING 350
SWIDTH 570 0
DWIDTH 14 0
BBX 12 23 1 -5
BITMAP
07C0
0FF0
1C30
1C30
1C70
1E20
1E00
0F00
0780
03C0
13E0
79E0
F0E0
E0E0
E0E0
E1E0
7FC0
3F00
0800
0F00
1300
2700
1E00
ENDCHAR
STARTCHAR scedilla
ENCODING 351
SWIDTH 382 0
DWIDTH 9 0
BBX 11 18 -1 -5
BITMAP
0300
0F00
0F00
1F00
1700
1700
2700
2700
67A0
E7C0
CF80
7F00
3C00
1000
3C00
0C00
4C00
7800
ENDCHAR
STARTCHAR Scaron
ENCODING 352
SWIDTH 570 0
DWIDTH 14 0
BBX 14 24 1 0
BITMAP
010C
00B8
00F0
00C0
0040
0000
07C0
0FF0
1C30
1C30
1C70
1E20
1E00
0F00
0780
03C0
13E0
79E0
E0E0
E0E0
E0E0
E1C0
7F80
3F00
ENDCHAR
STARTCHAR scaron
ENCODING 353
SWIDTH 369 0
DWIDTH 9 0
BBX 11 18 -1 0
BITMAP
0860
05C0
0780
0600
0200
0100
0F00
0F00
1F00
1700
1700
2700
2700
6780
E7E0
C780
7F00
3C00
ENDCHAR
STARTCHAR uni0162
ENCODING 354
SWIDTH 481 0
DWIDTH 12 0
BBX 17 23 0 -5
BITMAP
07F080
1FFF80
31FF80
61CF00
E1C000
C3C000
C3C000
C3C000
638000
038000
078000
078000
070000
070000
0F0000
0F0000
0F0000
0E0000
040000
070000
0B8000
130000
0F0000
ENDCHAR
STARTCHAR uni0163
ENCODING 355
SWIDTH 267 0
DWIDTH 6 0
BBX 8 21 -1 -5
BITMAP
06
1E
1C
1C
3F
3C
3C
38
38
38
78
78
71
73
7E
38
20
78
1C
98
78
ENDCHAR
STARTCHAR Tcaron
ENCODING 356
SWIDTH 481 0
DWIDTH 12 0
BBX 17 24 0 0
BITMAP
008200
008C00
00F000
006000
004000
000000
07F080
1FFF80
31FF80
61CF00
E1C000
C3C000
C3C000
C3C000
638000
038000
078000
078000
070000
070000
0F0000
0F0000
0F0000
0E0000
ENDCHAR
STARTCHAR tcaron
ENCODING 357
SWIDTH 267 0
DWIDTH 6 0
BBX 10 18 0 0
BITMAP
01C0
01C0
04C0
3C80
3900
3800
7E00
7800
7800
7000
7000
7000
F000
F000
E200
E600
FC00
7000
ENDCHAR
STARTCHAR Tbar
ENCODING 358
SWIDTH 481 0
DWIDTH 12 0
BBX 17 18 0 0
BITMAP
07F080
1FFF80
71FF80
61C700
E1C000
C3C000
C3C000
C38000
238000
078000
3FF800
078000
070000
070000
0F0000
0F0000
0F0000
0E0000
ENDCHAR
STARTCHAR tbar
ENCODING 359
SWIDTH 267 0
DWIDTH 6 0
BBX 7 16 0 0
BITMAP
0C
3C
38
38
7E
78
FC
70
70
F0
F0
E2
E2
F6
FC
70
ENDCHAR
STARTCHAR Utilde
ENCODING 360
SWIDTH 716 0
DWIDTH 17 0
BBX 18 22 0 0
BITMAP
003FC0
00FF80
000400
000000
03C1C0
1FC3C0
3383C0
638380
E38380
C78380
C70780
C70780
070700
0F0700
0E0F00
0E0F00
0E0E00
0E1E00
0E1C00
0F7C00
0FF800
07E000
ENDCHAR
STARTCHAR utilde
ENCODING 361
SWIDTH 505 0
DWIDTH 12 0
BBX 13 17 0 0
BITMAP
0F10
1FE0
23C0
0000
0000
79E0
79E0
79C0
71C0
71C0
F3C0
F3C0
E380
E388
F790
FBF0
71C0
ENDCHAR
STARTCHAR Umacron
ENCODING 362
SWIDTH 716 0
DWIDTH 17 0
BBX 18 22 0 0
BITMAP
007F80
000000
000000
000000
03C1C0
1FC3C0
3383C0
638380
E38380
C78380
C70780
C70780
070700
0F0700
0E0F00
0E0F00
0E0E00
0E1E00
0E1C00
0F7C00
0FF800
07E000
ENDCHAR
STARTCHAR umacron
ENCODING 363
SWIDTH 505 0
DWIDTH 12 0
BBX 13 17 0 0
BITMAP
1FE0
0000
0000
0000
0000
79E0
79E0
79C0
71C0
71C0
F3C0
F3C0
E380
E388
F790
FBF0
71C0
ENDCHAR
STARTCHAR Ubreve
ENCODING 364
SWIDTH 716 0
DWIDTH 17 0
BBX 18 23 0 0
BITMAP
0060C0
007180
003F00
000000
000000
03C1C0
1FC3C0
3383C0
638380
E38380
C78380
C70780
C70780
070700
0F0700
0E0F00
0E0F00
0E0E00
0E1E00
0E1C00
0F7C00
0FF800
07E000
ENDCHAR
STARTCHAR ubreve
ENCODING 365
SWIDTH 505 0
DWIDTH 12 0
BBX 13 18 0 0
BITMAP
1870
1860
1CE0
0F80
0000
0000
79E0
79E0
79C0
71C0
71C0
F3C0
F3C0
E380
E388
F790
FBF0
71C0
ENDCHAR
STARTCHAR Uring
ENCODING 366
SWIDTH 716 0
DWIDTH 17 0
BBX 18 23 0 0
BITMAP
001C00
001600
001600
001C00
000000
03C1C0
1FC3C0
3383C0
638380
E38380
C78380
C70780
C70780
070700
0F0700
0E0F00
0E0F00
0E0E00
0E1E00
0E1C00
0F7C00
0FF800
07E000
ENDCHAR
STARTCHAR uring
ENCODING 367
SWIDTH 505 0
DWIDTH 12 0
BBX 13 17 0 0
BITMAP
0300
0780
0480
0700
0000
79E0
79E0
79C0
71C0
71C0
F3C0
F3C0
E380
E388
F790
FBF0
71C0
ENDCHAR
STARTCHAR Uhungarumlaut
ENCODING 368
SWIDTH 716 0
DWIDTH 17 0
BBX 19 24 0 0
BITMAP
000EE0
001D80
001980
003300
000000
000000
03C1C0
1FC3C0
3383C0
638380
E38380
C78380
C70780
C70780
070700
0F0700
0E0F00
0E0F00
0E0E00
0E1E00
0E1C00
0F7C00
0FF800
07E000
ENDCHAR
STARTCHAR uhungarumlaut
ENCODING 369
SWIDTH 505 0
DWIDTH 12 0
BBX 13 18 0 0
BITMAP
0770
0660
0CC0
0980
1000
0000
79E0
79E0
79C0
71C0
71C0
F3C0
F3C0
E380
E388
F790
FBF0
71C0
ENDCHAR
STARTCHAR Uogonek
ENCODING 370
SWIDTH 716 0
DWIDTH 17 0
BBX 18 28 0 -5
BITMAP
003000
003800
001800
001800
000000
03C1C0
1FC3C0
3383C0
638380
E38380
C78380
C70780
C70780
270700
0F0700
0E0F00
0E0F00
0E0E00
0E1E00
0E1C00
0E3C00
0FF800
07F000
010000
030000
030000
032000
03C000
ENDCHAR
STARTCHAR uogonek
ENCODING 371
SWIDTH 505 0
DWIDTH 12 0
BBX 13 17 0 -5
BITMAP
79E0
79E0
79C0
71C0
71C0
F3C0
F3C0
E380
E388
F790
FBF0
71C0
0100
0300
0300
03E0
01C0
ENDCHAR
STARTCHAR Wcircumflex
ENCODING 372
SWIDTH 962 0
DWIDTH 23 0
BBX 25 24 0 0
BITMAP
00002000
00006000
0000E000
0003A000
00061000
00000000
03C1C180
1FC3C100
33C3C300
63C3C200
63C7C200
E3C7C600
C3C7C400
C3CFC400
23CBCC00
03CBC800
03DBC800
03D3D800
03D1D000
03E1F000
03E1E000
03E1E000
03C1E000
03C1C000
ENDCHAR
STARTCHAR wcircumflex
ENCODING 373
SWIDTH 661 0
DWIDTH 16 0
BBX 16 18 0 0
BITMAP
0020
0060
00E0
01B0
0610
0000
79E6
79EF
79C2
71C2
71C2
F3C6
F3C6
E384
E38C
F798
FBF0
71E0
ENDCHAR
STARTCHAR Ycircumflex
ENCODING 374
SWIDTH 620 0
DWIDTH 15 0
BBX 17 24 0 0
BITMAP
000400
000C00
001C00
003600
00C200
000000
03C180
1FC100
33C300
63C200
61E600
E1E400
C1E400
C1E800
20F800
00F800
00F000
00F000
00F000
00E000
01E000
01E000
01E000
01E000
ENDCHAR
STARTCHAR ycircumflex
ENCODING 375
SWIDTH 505 0
DWIDTH 12 0
BBX 13 24 0 -6
BITMAP
0180
0380
0780
0CC0
1040
0000
79E0
79E0
79C0
71C0
71C0
F3C0
F3C0
E388
E390
F790
FFA0
77C0
0F00
3700
6F00
4F00
7E00
3C00
ENDCHAR
STARTCHAR Ydieresis
ENCODING 376
SWIDTH 620 0
DWIDTH 15 0
BBX 17 22 0 0
BITMAP
007300
007700
003300
000000
03C180
1FC100
33C300
63C200
61E600
E1E400
C1E400
C1E800
20F800
00F800
00F000
00F000
00F000
00E000
01E000
01E000
01E000
01E000
ENDCHAR
STARTCHAR Zacute
ENCODING 377
SWIDTH 542 0
DWIDTH 13 0
BBX 13 24 0 0
BITMAP
0018
0038
0030
0060
0060
0000
1FF8
3C78
38F0
30F0
01E0
01E0
03C0
03C0
0780
0780
0F00
0F00
1E00
1E00
3C30
3C70
78F0
FFE0
ENDCHAR
STARTCHAR zacute
ENCODING 378
SWIDTH 428 0
DWIDTH 10 0
BBX 10 18 0 0
BITMAP
00C0
0180
0180
0300
0200
0000
1FC0
3380
7380
2700
0F00
0E00
1E00
1C00
3800
7980
7F80
FF00
ENDCHAR
STARTCHAR Zdotaccent
ENCODING 379
SWIDTH 530 0
DWIDTH 13 0
BBX 13 22 0 0
BITMAP
00C0
01C0
00C0
0000
1FF8
3C78
38F0
30F0
01E0
01E0
03C0
03C0
0780
0780
0F00
0F00
1E00
1E00
3C30
3C70
78F0
FFE0
ENDCHAR
STARTCHAR zdotaccent
ENCODING 380
SWIDTH 428 0
DWIDTH 10 0
BBX 10 17 0 0
BITMAP
0300
0700
0300
0000
0000
1FC0
3380
7380
2700
0F00
0E00
1E00
1C00
3800
7980
7F80
FF00
ENDCHAR
STARTCHAR Zcaron
ENCODING 381
SWIDTH 542 0
DWIDTH 13 0
BBX 14 24 0 0
BITMAP
0104
0098
00F0
00E0
0040
0000
1FF8
3C78
38F0
30F0
01E0
01E0
03C0
03C0
0780
0780
0F00
0F00
1E00
1E00
3C30
3C70
78F0
FFE0
ENDCHAR
STARTCHAR zcaron
ENCODING 382
SWIDTH 428 0
DWIDTH 10 0
BBX 12 18 0 0
BITMAP
0C70
04C0
0780
0300
0200
0000
1FC0
3380
7380
2700
0F00
0E00
1E00
1C00
3800
7980
7F80
FF00
ENDCHAR
STARTCHAR longs
ENCODING 383
SWIDTH 267 0
DWIDTH 6 0
BBX 14 24 -5 -6
BITMAP
0078
00FC
00E4
01E0
01C0
01C0
07C0
03C0
0380
0380
0380
0380
0780
0700
0700
0700
0F00
0F00
3E00
4E00
8E00
9E00
FC00
7800
ENDCHAR
STARTCHAR uni018F
ENCODING 399
SWIDTH 544 0
DWIDTH 13 0
BBX 13 18 0 0
BITMAP
07C0
1FE0
3FF0
30F8
2078
0078
0078
0078
03F8
0E78
3CF0
38F0
70E0
71E0
E1C0
6380
7700
3E00
ENDCHAR
STARTCHAR florin
ENCODING 402
SWIDTH 267 0
DWIDTH 6 0
BBX 17 24 -6 -6
BITMAP
000F00
001F00
003B80
007300
007000
00F000
03FC00
00E000
00E000
01E000
01E000
01C000
03C000
03C000
038000
038000
078000
070000
070000
0F0000
EE0000
CE0000
DC0000
780000
ENDCHAR
STARTCHAR Ohorn
ENCODING 416
SWIDTH 665 0
DWIDTH 16 0
BBX 17 21 0 0
BITMAP
000180
000180
000180
01F980
0FBF00
184E00
338E00
678F00
670700
EF0F00
6E0F00
3E0F00
1E0E00
1C0E00
1C1E00
1C1C00
1C3C00
1C3800
1E7000
1FE000
07C000
ENDCHAR
STARTCHAR ohorn
ENCODING 417
SWIDTH 439 0
DWIDTH 11 0
BBX 12 15 0 0
BITMAP
0030
0030
0020
0F60
3DC0
7980
7180
F180
F180
E180
E380
E300
F700
FE00
7800
ENDCHAR
STARTCHAR Uhorn
ENCODING 431
SWIDTH 716 0
DWIDTH 17 0
BBX 21 22 0 0
BITMAP
000018
000018
000018
000030
03C1E0
1FC3C0
3383C0
638380
E38380
C78380
C70780
C70780
070700
0F0700
0E0F00
0E0F00
0E0E00
0E1E00
0E1C00
0F7C00
0FF800
07E000
ENDCHAR
STARTCHAR uhorn
ENCODING 432
SWIDTH 505 0
DWIDTH 12 0
BBX 13 16 0 0
BITMAP
0018
0018
0018
0010
79E0
79E0
79C0
71C0
71C0
F3C0
F3C0
E380
E388
F790
FBF0
71C0
ENDCHAR
STARTCHAR uni01B7
ENCODING 439
SWIDTH 555 0
DWIDTH 13 0
BBX 14 18 0 0
BITMAP
0FFC
1C78
38F0
18E0
01C0
03C0
0780
0780
07E0
01F0
00F0
00F0
00F0
70F0
60E0
E1E0
77C0
3F00
ENDCHAR
STARTCHAR uni01CD
ENCODING 461
SWIDTH 668 0
DWIDTH 16 0
BBX 21 26 0 -2
BITMAP
000418
000220
0003C0
000380
000100
000000
000780
001F00
003700
006F00
00CF00
018F00
018E00
3FCE00
777E00
E61E00
EE1C00
0E1C00
1C1C00
1C3C00
1C3C00
383800
383800
387800
380000
380000
ENDCHAR
STARTCHAR uni01CE
ENCODING 462
SWIDTH 526 0
DWIDTH 13 0
BBX 14 18 0 0
BITMAP
0218
0260
03C0
0180
0100
0000
0EF0
3DE0
78E0
71E0
F1E0
F1C0
E1C0
E3C4
E3C8
F7C8
FDF0
79E0
ENDCHAR
STARTCHAR uni01CF
ENCODING 463
SWIDTH 375 0
DWIDTH 9 0
BBX 13 24 0 0
BITMAP
0208
0130
01E0
01C0
0080
0000
03C0
1F80
3380
6780
6780
E700
C700
CF00
2F00
0F00
0E00
0E00
1E00
1E00
1C00
1C00
1C00
3C00
ENDCHAR
STARTCHAR uni01D0
ENCODING 464
SWIDTH 267 0
DWIDTH 6 0
BBX 9 18 0 0
BITMAP
2180
3600
1C00
1800
1000
0000
7800
7800
7800
7000
7000
F000
F000
E000
E200
E600
FC00
7000
ENDCHAR
STARTCHAR uni01D1
ENCODING 465
SWIDTH 665 0
DWIDTH 16 0
BBX 17 24 0 0
BITMAP
002080
002300
003C00
001800
001000
000000
01F800
0FBC00
184E00
338E00
678F00
670700
EF0F00
6E0F00
3E0F00
1E0E00
1C0E00
1C1E00
1C1C00
1C3C00
1C3800
1E7000
1FE000
07C000
ENDCHAR
STARTCHAR uni01D2
ENCODING 466
SWIDTH 433 0
DWIDTH 10 0
BBX 13 18 0 0
BITMAP
0860
05C0
0780
0700
0200
0000
0F00
3F80
7988
7198
F3E0
E180
E180
E380
E300
E700
FE00
7800
ENDCHAR
STARTCHAR uni01D3
ENCODING 467
SWIDTH 716 0
DWIDTH 17 0
BBX 18 24 0 0
BITMAP
0010C0
000B00
000E00
000C00
000800
000000
03C1C0
1FC3C0
3383C0
638380
E38380
C78380
C70780
C70780
070700
0F0700
0E0F00
0E0F00
0E0E00
0E1E00
0E1C00
0F7C00
0FF800
07E000
ENDCHAR
STARTCHAR uni01D4
ENCODING 468
SWIDTH 505 0
DWIDTH 12 0
BBX 13 18 0 0
BITMAP
0430
06C0
0380
0300
0200
0000
79E0
79E0
79C0
71C0
71C0
F3C0
F3C0
E380
E388
F790
FBF0
71C0
ENDCHAR
STARTCHAR uni01D5
ENCODING 469
SWIDTH 716 0
DWIDTH 17 0
BBX 18 24 0 0
BITMAP
003F80
004000
003100
007380
007380
000000
03C1C0
1FC3C0
3383C0
638380
E38380
C78380
C70780
C70780
070700
0F0700
0E0F00
0E0F00
0E0E00
0E1E00
0E1C00
0F7C00
0FF800
07E000
ENDCHAR
STARTCHAR uni01D6
ENCODING 470
SWIDTH 505 0
DWIDTH 12 0
BBX 13 20 0 0
BITMAP
0FF0
0000
0000
0CC0
1CE0
0CC0
0000
0000
79E0
79E0
79C0
71C0
71C0
F3C0
F3C0
E380
E388
F790
FBF0
71C0
ENDCHAR
STARTCHAR uni01D7
ENCODING 471
SWIDTH 716 0
DWIDTH 17 0
BBX 18 24 0 0
BITMAP
000700
00CEC0
00EDC0
00D8C0
000000
000000
03C1C0
1FC3C0
3383C0
638380
E38380
C78380
C70780
C70780
070700
0F0700
0E0F00
0E0F00
0E0E00
0E1E00
0E1C00
0F7C00
0FF800
07E000
ENDCHAR
STARTCHAR uni01D8
ENCODING 472
SWIDTH 505 0
DWIDTH 12 0
BBX 13 23 0 0
BITMAP
00E0
00C0
01C0
0180
0300
0000
0CC0
1CE0
0CC0
0000
0000
79E0
79E0
79C0
71C0
71C0
F3C0
F3C0
E380
E388
F790
FBF0
71C0
ENDCHAR
STARTCHAR uni01D9
ENCODING 473
SWIDTH 716 0
DWIDTH 17 0
BBX 18 24 0 0
BITMAP
001180
005680
00FDC0
00C8C0
000000
000000
03C1C0
1FC3C0
3383C0
638380
E38380
C78380
C70780
C70780
070700
0F0700
0E0F00
0E0F00
0E0E00
0E1E00
0E1C00
0F7C00
0FF800
07E000
ENDCHAR
STARTCHAR uni01DA
ENCODING 474
SWIDTH 505 0
DWIDTH 12 0
BBX 13 22 0 0
BITMAP
0430
02E0
03C0
0300
0100
0CC0
1CE0
0CC0
0000
0000
79E0
79E0
79C0
71C0
71C0
F3C0
F3C0
E380
E388
F790
FBF0
71C0
ENDCHAR
STARTCHAR uni01DB
ENCODING 475
SWIDTH 716 0
DWIDTH 17 0
BBX 18 24 0 0
BITMAP
001C00
00CCC0
00EDC0
00CCC0
000000
000000
03C1C0
1FC3C0
3383C0
638380
E38380
C78380
C70780
C70780
070700
0F0700
0E0F00
0E0F00
0E0E00
0E1E00
0E1C00
0F7C00
0FF800
07E000
ENDCHAR
STARTCHAR uni01DC
ENCODING 476
SWIDTH 505 0
DWIDTH 12 0
BBX 13 22 0 0
BITMAP
0600
0600
0700
0300
0000
0CC0
1CE0
0CC0
0000
0000
79E0
79E0
79C0
71C0
71C0
F3C0
F3C0
E380
E388
F790
FBF0
71C0
ENDCHAR
STARTCHAR uni01E4
ENCODING 484
SWIDTH 601 0
DWIDTH 14 0
BBX 14 22 0 -4
BITMAP
03F0
0FF8
1E1C
3C1C
7C38
7800
7800
7000
F038
F1FC
7070
7070
78F0
3F70
00F0
00E0
00E0
3EE0
31C0
31C0
3380
1F00
ENDCHAR
STARTCHAR uni01E5
ENCODING 485
SWIDTH 507 0
DWIDTH 12 0
BBX 13 18 0 -6
BITMAP
0EF0
3DE0
78E0
71E0
F1E0
F1C0
E1C0
E3C0
E3C8
F790
FFB0
7BE0
0F80
1F80
7FC0
A700
3F00
3C00
ENDCHAR
STARTCHAR Gcaron
ENCODING 486
SWIDTH 578 0
DWIDTH 14 0
BBX 16 28 0 -4
BITMAP
00C7
004C
0078
0030
0020
0000
03F0
0FF8
1E1C
3C1C
7C38
7810
7800
7000
F038
F038
7078
7070
78F0
3F70
00F0
00E0
00E0
3EE0
31C0
31C0
3380
1F00
ENDCHAR
STARTCHAR gcaron
ENCODING 487
SWIDTH 507 0
DWIDTH 12 0
BBX 13 24 0 -6
BITMAP
0218
0260
03C0
0180
0100
0000
0EF0
3DE0
78E0
71E0
F1E0
F1C0
E1C0
E3C0
E3C8
F790
FFB0
7BE0
0F80
1F80
2700
2700
3F00
1C00
ENDCHAR
STARTCHAR uni01E8
ENCODING 488
SWIDTH 601 0
DWIDTH 14 0
BBX 17 24 0 0
BITMAP
002080
003300
001E00
001C00
001800
000000
03C700
1F8E00
339C00
679800
E73000
C76000
C7C000
6FF000
0F7800
0E3800
0E3800
0E3800
1E7800
1E7000
1C7000
1C7000
1C7000
3C7800
ENDCHAR
STARTCHAR uni01E9
ENCODING 489
SWIDTH 518 0
DWIDTH 12 0
BBX 14 22 -1 0
BITMAP
0104
0098
00F0
00E0
0040
0200
1E00
1E00
1C00
1C00
1C70
3CC0
3D80
3BC0
3FE0
7DE0
79E0
79E0
71E4
71EC
F1F8
F0F0
ENDCHAR
STARTCHAR uni01EA
ENCODING 490
SWIDTH 665 0
DWIDTH 16 0
BBX 16 29 0 -5
BITMAP
01C0
00C0
00C0
00C0
0000
0000
01F8
0FBC
184E
338E
678F
6707
EF0F
6E0F
3E0F
1E0E
1C0E
1C1E
1C1C
1C3C
1C38
1E70
1FE0
07C0
0600
0C00
0C00
0EC0
0780
ENDCHAR
STARTCHAR uni01EB
ENCODING 491
SWIDTH 433 0
DWIDTH 10 0
BBX 13 17 0 -5
BITMAP
0F00
3F80
7988
7198
F3E0
E180
E180
E380
E300
E700
FE00
7800
6000
4000
C000
E400
7800
ENDCHAR
STARTCHAR uni01EE
ENCODING 494
SWIDTH 525 0
DWIDTH 13 0
BBX 14 24 0 0
BITMAP
0104
0118
01F0
00C0
0080
0000
0FFC
1C78
38F0
18E0
01C0
03C0
0780
0780
07E0
01F0
00F0
00F0
00F0
70F0
60E0
E1E0
77C0
3F00
ENDCHAR
STARTCHAR uni01EF
ENCODING 495
SWIDTH 600 0
DWIDTH 14 0
BBX 12 24 0 -6
BITMAP
0830
04C0
0780
0700
0200
0000
3FC0
7380
6700
6F00
0E00
1E00
1C00
3800
1C30
1E20
0E40
0EC0
0F00
7E00
CE00
9E00
FC00
7800
ENDCHAR
STARTCHAR uni01F4
ENCODING 500
SWIDTH 578 0
DWIDTH 14 0
BBX 14 28 0 -4
BITMAP
001C
0038
0030
0070
0060
0000
03F0
0FF8
1E1C
3C1C
7C38
7800
7800
7000
F038
F038
7070
7070
78F0
3F70
00F0
00E0
00E0
3EE0
31C0
31C0
3380
1F00
ENDCHAR
STARTCHAR uni01F5
ENCODING 501
SWIDTH 507 0
DWIDTH 12 0
BBX 13 24 0 -6
BITMAP
00E0
01C0
0180
0300
0300
0000
0EF0
3DE0
78E0
71E0
F1E0
F1C0
E1C0
E3C0
E3C8
F790
FFB0
7BE0
0F80
1F80
2700
2700
3F00
1C00
ENDCHAR
STARTCHAR Aringacute
ENCODING 506
SWIDTH 668 0
DWIDTH 16 0
BBX 19 26 0 -2
BITMAP
0000E0
0000C0
000180
000380
000680
000680
000300
000F80
003700
006F00
00CF00
018F00
018E00
3FCE00
777E00
E61E00
EE1C00
0E1C00
1C1C00
1C3C00
1C3C00
383800
383800
387800
380000
380000
ENDCHAR
STARTCHAR aringacute
ENCODING 507
SWIDTH 526 0
DWIDTH 13 0
BBX 14 19 0 0
BITMAP
00E0
00C0
0180
0280
0280
0380
0000
0EF0
3DE0
78E0
71E0
F1E0
F1C0
E1C0
E3C4
E3C8
F7C8
FDF0
79E0
ENDCHAR
STARTCHAR AEacute
ENCODING 508
SWIDTH 764 0
DWIDTH 18 0
BBX 22 26 0 -2
BITMAP
000070
000060
0000C0
0000C0
000180
000000
000784
001FF8
003778
006F00
00CF00
018F00
018E00
3F8E00
777FE0
E61FC0
EE1C00
0E1C00
1C1C00
1C3C00
1C3C00
383FE0
383FE0
387FC0
380000
380000
ENDCHAR
STARTCHAR aeacute
ENCODING 509
SWIDTH 650 0
DWIDTH 16 0
BBX 16 18 0 0
BITMAP
001C
0018
0030
0030
0060
0000
0F3C
3BFE
21E6
01E6
01CE
3FDC
FBF8
E3C0
E3C1
E7C2
FDFC
79F0
ENDCHAR
STARTCHAR Oslashacute
ENCODING 510
SWIDTH 658 0
DWIDTH 16 0
BBX 15 25 0 -1
BITMAP
0006
000C
000C
0018
0030
0000
0030
03F0
0FBC
39EE
73AE
676E
EF4E
CE4E
7E4E
1E4E
1CDE
1C9C
1C9C
3CB8
1DB8
1DF0
1FC0
0F00
0300
ENDCHAR
STARTCHAR oslashacute
ENCODING 511
SWIDTH 428 0
DWIDTH 10 0
BBX 13 19 -2 -1
BITMAP
0030
0070
0060
00C0
00C0
0000
03C8
0F70
1E60
1C60
3CE0
3DE0
3B60
3E60
3CC0
3DC0
3F80
3E00
E000
ENDCHAR
STARTCHAR uni0200
ENCODING 512
SWIDTH 668 0
DWIDTH 16 0
BBX 17 25 0 -2
BITMAP
00EE00
003300
001300
001980
000000
000780
001F00
003700
006F00
00CF00
018F00
018E00
3FCE00
777E00
E61E00
EE1C00
0E1C00
1C1C00
1C3C00
1C3C00
383800
383800
387800
380000
380000
ENDCHAR
STARTCHAR uni0201
ENCODING 513
SWIDTH 526 0
DWIDTH 13 0
BBX 14 18 0 0
BITMAP
3B00
1980
0C80
0440
0000
0000
0EF0
3DE0
78E0
71E0
F1E0
F1C0
E1C0
E3C4
E3C8
F7C8
FDF0
79E0
ENDCHAR
STARTCHAR uni0202
ENCODING 514
SWIDTH 668 0
DWIDTH 16 0
BBX 19 25 0 -2
BITMAP
0007C0
000CE0
001860
000000
000000
000780
001F00
003700
006F00
00CF00
018F00
018E00
3FCE00
777E00
E61E00
EE1C00
0E1C00
1C1C00
1C3C00
1C3C00
383800
383800
387800
380000
380000
ENDCHAR
STARTCHAR uni0203
ENCODING 515
SWIDTH 526 0
DWIDTH 13 0
BBX 14 17 0 0
BITMAP
03C0
0EE0
1870
1870
0000
0EF0
3DE0
78E0
71E0
F1E0
F1C0
E1C0
E3C4
E3C8
F7C8
FDF0
79E0
ENDCHAR
STARTCHAR uni0204
ENCODING 516
SWIDTH 459 0
DWIDTH 11 0
BBX 12 24 0 0
BITMAP
1B80
0CC0
0440
0260
0000
0000
03C0
07E0
0E30
1C30
1C60
1C00
1E00
0F80
1E00
3C00
7800
7800
F000
F010
F820
F8C0
7F80
3E00
ENDCHAR
STARTCHAR uni0205
ENCODING 517
SWIDTH 384 0
DWIDTH 9 0
BBX 10 18 0 0
BITMAP
EE00
7600
3300
1980
0000
0000
0F00
3F80
7980
7180
F300
F600
FC00
E000
E0C0
F180
FF00
7C00
ENDCHAR
STARTCHAR uni0206
ENCODING 518
SWIDTH 459 0
DWIDTH 11 0
BBX 14 23 0 0
BITMAP
01F0
03B8
0618
0004
0000
03C0
07E0
0E30
1C30
1C60
1C00
1E00
0F80
1E00
3C00
7800
7800
F000
F010
F820
F8C0
7F80
3E00
ENDCHAR
STARTCHAR uni0207
ENCODING 519
SWIDTH 384 0
DWIDTH 9 0
BBX 10 17 0 0
BITMAP
0F00
3F80
70C0
60C0
0000
0F00
3F80
7980
7180
F300
F600
FC00
E000
E040
E080
FF00
7C00
ENDCHAR
STARTCHAR uni0208
ENCODING 520
SWIDTH 375 0
DWIDTH 9 0
BBX 10 23 0 0
BITMAP
3700
1980
0980
0CC0
0000
03C0
0F80
3B80
7780
6780
E700
C700
C700
6F00
0F00
0E00
0E00
1E00
1E00
1C00
1C00
1C00
3C00
ENDCHAR
STARTCHAR uni0209
ENCODING 521
SWIDTH 267 0
DWIDTH 6 0
BBX 9 18 -2 0
BITMAP
CC00
6600
3200
1300
0000
0000
1E00
1E00
1E00
1C00
1C00
3C00
3C00
3800
3880
3980
3F00
1C00
ENDCHAR
STARTCHAR uni020A
ENCODING 522
SWIDTH 375 0
DWIDTH 9 0
BBX 12 23 0 0
BITMAP
07E0
0E70
1C30
0000
0000
03C0
1F80
3380
6780
6780
E700
C700
CF00
2F00
0F00
0E00
0E00
1E00
1E00
1C00
1C00
1C00
3C00
ENDCHAR
STARTCHAR uni020B
ENCODING 523
SWIDTH 267 0
DWIDTH 6 0
BBX 7 17 0 0
BITMAP
3C
7E
C6
00
00
78
78
78
70
70
F0
F0
E0
E2
E6
FC
70
ENDCHAR
STARTCHAR uni020C
ENCODING 524
SWIDTH 665 0
DWIDTH 16 0
BBX 16 24 0 0
BITMAP
06E0
0330
0110
0198
0000
0000
01F8
0FBC
184E
338E
678F
6707
EF0F
6E0F
3E0F
1E0E
1C0E
1C1E
1C1C
1C3C
1C38
1E70
1FE0
07C0
ENDCHAR
STARTCHAR uni020D
ENCODING 525
SWIDTH 433 0
DWIDTH 10 0
BBX 13 18 0 0
BITMAP
EE00
6600
3300
1980
0000
0000
0F00
3F80
7988
7198
F3E0
E180
E180
E380
E300
E700
FE00
7800
ENDCHAR
STARTCHAR uni020E
ENCODING 526
SWIDTH 665 0
DWIDTH 16 0
BBX 16 23 0 0
BITMAP
007C
00EE
0187
0000
0000
01F8
0FBC
184E
338E
678F
6707
EF0F
6E0F
3E0F
1E0E
1C0E
1C1E
1C1C
1C3C
1C38
1E70
1FE0
07C0
ENDCHAR
STARTCHAR uni020F
ENCODING 527
SWIDTH 433 0
DWIDTH 10 0
BBX 13 17 0 0
BITMAP
0F80
1DC0
30C0
30C0
0000
0F00
3F80
7988
7198
F3E0
E180
E180
E380
E300
E700
FE00
7800
ENDCHAR
STARTCHAR uni0210
ENCODING 528
SWIDTH 601 0
DWIDTH 14 0
BBX 14 24 0 0
BITMAP
1D80
0CC0
0660
0320
0000
0000
03F0
1F78
389C
679C
E79C
C718
C770
67F0
0F78
0E38
0E38
0E38
1E78
1E70
1C70
1C70
1C70
3C78
ENDCHAR
STARTCHAR uni0211
ENCODING 529
SWIDTH 376 0
DWIDTH 9 0
BBX 10 18 -1 0
BITMAP
EE00
7600
3300
1980
0000
0000
1DC0
3FC0
3CC0
3800
3800
7800
7800
7000
7000
7000
F000
F000
ENDCHAR
STARTCHAR uni0212
ENCODING 530
SWIDTH 601 0
DWIDTH 14 0
BBX 14 23 0 0
BITMAP
01F0
03B8
061C
0000
0000
03F0
1F78
389C
679C
E79C
C718
C770
67F0
0F78
0E38
0E38
0E38
1E78
1E70
1C70
1C70
1C70
3C78
ENDCHAR
STARTCHAR uni0213
ENCODING 531
SWIDTH 376 0
DWIDTH 9 0
BBX 11 17 -1 0
BITMAP
07C0
1FE0
1860
2000
0000
1DC0
3FC0
3CC0
3800
3800
7800
7800
7000
7000
7000
F000
F000
ENDCHAR
STARTCHAR uni0214
ENCODING 532
SWIDTH 716 0
DWIDTH 17 0
BBX 18 24 0 0
BITMAP
01B800
00CC00
004400
002600
000000
000000
03C1C0
1FC3C0
3383C0
638380
E38380
C78380
C70780
C70780
070700
0F0700
0E0F00
0E0F00
0E0E00
0E1E00
0E1C00
0F7C00
0FF800
07E000
ENDCHAR
STARTCHAR uni0215
ENCODING 533
SWIDTH 505 0
DWIDTH 12 0
BBX 13 18 0 0
BITMAP
EE00
3300
1300
1980
0000
0000
79E0
79E0
79C0
71C0
71C0
F3C0
F3C0
E380
E388
F790
FBF0
71C0
ENDCHAR
STARTCHAR uni0216
ENCODING 534
SWIDTH 716 0
DWIDTH 17 0
BBX 18 23 0 0
BITMAP
001F00
007380
006180
008000
000000
03C1C0
1FC3C0
3383C0
638380
E38380
C78380
C70780
C70780
070700
0F0700
0E0F00
0E0F00
0E0E00
0E1E00
0E1C00
0F7C00
0FF800
07E000
ENDCHAR
STARTCHAR uni0217
ENCODING 535
SWIDTH 505 0
DWIDTH 12 0
BBX 13 17 0 0
BITMAP
0780
1DC0
38E0
0000
0000
79E0
79E0
79C0
71C0
71C0
F3C0
F3C0
E380
E388
F790
FBF0
71C0
ENDCHAR
STARTCHAR Scommaaccent
ENCODING 536
SWIDTH 570 0
DWIDTH 14 0
BBX 12 23 1 -5
BITMAP
07C0
0FF0
1C30
1C30
1C70
1E20
1E00
0F00
0780
03C0
13E0
79E0
E0E0
E0E0
E0E0
E1C0
7F80
3F00
0000
1800
1C00
0800
1000
ENDCHAR
STARTCHAR scommaaccent
ENCODING 537
SWIDTH 382 0
DWIDTH 9 0
BBX 11 19 -1 -6
BITMAP
0300
0F00
0F00
1F00
1700
1700
2700
2700
67A0
E7C0
C780
7F00
3C00
0000
1000
3800
1800
1000
2000
ENDCHAR
STARTCHAR uni021A
ENCODING 538
SWIDTH 481 0
DWIDTH 12 0
BBX 17 24 0 -6
BITMAP
07F080
1FFF80
31FF80
61CF00
E1C000
C3C000
C3C000
C3C000
638000
038000
078000
078000
070000
070000
0F0000
0F0000
0F0000
0E0000
000000
040000
0E0000
0C0000
040000
080000
ENDCHAR
STARTCHAR uni021B
ENCODING 539
SWIDTH 267 0
DWIDTH 6 0
BBX 7 22 0 -6
BITMAP
0C
3C
38
38
7E
78
78
70
70
70
F0
F0
E2
E6
FC
70
00
40
E0
C0
40
80
ENDCHAR
STARTCHAR uni021E
ENCODING 542
SWIDTH 665 0
DWIDTH 16 0
BBX 17 24 0 0
BITMAP
002080
003300
001E00
001C00
001800
000000
03C780
0F8700
3B8700
778F00
678F00
E78F00
E70E00
67FE00
2FFE00
0F1E00
0E1C00
0E1C00
0E1C00
1E3C00
1E3C00
1C3800
1C3800
3C7800
ENDCHAR
STARTCHAR uni021F
ENCODING 543
SWIDTH 600 0
DWIDTH 14 0
BBX 15 22 -1 0
BITMAP
0082
008C
00F8
0060
0040
0200
1E00
1E00
1C00
1C00
1DC0
3FE0
3CE0
3CE0
38E0
78E0
79E0
79C0
71C4
71C8
F1F8
F0E0
ENDCHAR
STARTCHAR uni0237
ENCODING 567
SWIDTH 240 0
DWIDTH 6 0
BBX 12 18 -5 -6
BITMAP
01C0
03C0
03C0
0380
0380
0780
0780
0780
0710
0720
0F60
0F80
1E00
7E00
CE00
DE00
FC00
7800
ENDCHAR
STARTCHAR uni0259
ENCODING 601
SWIDTH 404 0
DWIDTH 10 0
BBX 9 12 0 0
BITMAP
1E00
7F80
4780
0380
0380
1F80
7780
6780
C700
CE00
FC00
7800
ENDCHAR
STARTCHAR uni0292
ENCODING 658
SWIDTH 442 0
DWIDTH 11 0
BBX 12 18 0 -6
BITMAP
3FC0
7380
6700
6F00
0E00
1E00
1C00
3800
1C30
1E20
0E40
0EC0
0F00
7E00
CE00
9E00
FC00
7800
ENDCHAR
STARTCHAR uni02BB
ENCODING 699
SWIDTH 241 0
DWIDTH 6 0
BBX 3 6 3 12
BITMAP
20
60
40
E0
E0
E0
ENDCHAR
STARTCHAR uni02BC
ENCODING 700
SWIDTH 228 0
DWIDTH 5 0
BBX 3 5 4 13
BITMAP
C0
E0
C0
C0
80
ENDCHAR
STARTCHAR circumflex
ENCODING 710
SWIDTH 293 0
DWIDTH 7 0
BBX 7 5 0 13
BITMAP
04
0C
1C
36
C2
ENDCHAR
STARTCHAR caron
ENCODING 711
SWIDTH 294 0
DWIDTH 7 0
BBX 7 5 2 13
BITMAP
82
4C
78
70
20
ENDCHAR
STARTCHAR uni02C9
ENCODING 713
SWIDTH 421 0
DWIDTH 10 0
BBX 8 1 3 14
BITMAP
FF
ENDCHAR
STARTCHAR uni02CA
ENCODING 714
SWIDTH 256 0
DWIDTH 6 0
BBX 4 5 3 13
BITMAP
30
70
60
40
80
ENDCHAR
STARTCHAR uni02CB
ENCODING 715
SWIDTH 274 0
DWIDTH 7 0
BBX 3 4 4 13
BITMAP
C0
E0
60
60
ENDCHAR
STARTCHAR breve
ENCODING 728
SWIDTH 431 0
DWIDTH 10 0
BBX 8 3 2 14
BITMAP
C3
E7
7C
ENDCHAR
STARTCHAR dotaccent
ENCODING 729
SWIDTH 250 0
DWIDTH 6 0
BBX 4 4 1 14
BITMAP
70
F0
F0
70
ENDCHAR
STARTCHAR ring
ENCODING 730
SWIDTH 156 0
DWIDTH 4 0
BBX 4 4 0 13
BITMAP
60
F0
B0
E0
ENDCHAR
STARTCHAR ogonek
ENCODING 731
SWIDTH 291 0
DWIDTH 7 0
BBX 6 6 1 -5
BITMAP
30
60
C0
C0
EC
70
ENDCHAR
STARTCHAR tilde
ENCODING 732
SWIDTH 403 0
DWIDTH 10 0
BBX 10 3 1 13
BITMAP
1040
7F80
8F00
ENDCHAR
STARTCHAR hungarumlaut
ENCODING 733
SWIDTH 436 0
DWIDTH 10 0
BBX 9 4 2 13
BITMAP
3B80
7600
6600
CC00
ENDCHAR
STARTCHAR gravecomb
ENCODING 768
SWIDTH 0 0
DWIDTH 0 0
BBX 3 4 -4 13
BITMAP
C0
E0
60
60
ENDCHAR
STARTCHAR acutecomb
ENCODING 769
SWIDTH 0 0
DWIDTH 0 0
BBX 5 5 -5 13
BITMAP
38
30
30
60
C0
ENDCHAR
STARTCHAR uni0302
ENCODING 770
SWIDTH 0 0
DWIDTH 0 0
BBX 7 5 -7 13
BITMAP
04
0C
1E
36
C2
ENDCHAR
STARTCHAR tildecomb
ENCODING 771
SWIDTH 0 0
DWIDTH 0 0
BBX 10 3 -9 13
BITMAP
0800
7FC0
8F00
ENDCHAR
STARTCHAR uni0304
ENCODING 772
SWIDTH 0 0
DWIDTH 0 0
BBX 8 1 -7 14
BITMAP
FF
ENDCHAR
STARTCHAR uni0306
ENCODING 774
SWIDTH 0 0
DWIDTH 0 0
BBX 9 3 -8 14
BITMAP
E180
6300
7E00
ENDCHAR
STARTCHAR uni0307
ENCODING 775
SWIDTH 0 0
DWIDTH 0 0
BBX 4 4 -3 14
BITMAP
60
F0
F0
60
ENDCHAR
STARTCHAR uni0308
ENCODING 776
SWIDTH 0 0
DWIDTH 0 0
BBX 8 3 -7 14
BITMAP
66
E7
66
ENDCHAR
STARTCHAR hookabovecomb
ENCODING 777
SWIDTH 0 0
DWIDTH 0 0
BBX 4 5 -5 14
BITMAP
F0
B0
10
30
40
ENDCHAR
STARTCHAR uni030A
ENCODING 778
SWIDTH 0 0
DWIDTH 0 0
BBX 4 4 -3 13
BITMAP
60
F0
B0
E0
ENDCHAR
STARTCHAR uni030B
ENCODING 779
SWIDTH 0 0
DWIDTH 0 0
BBX 8 4 -7 13
BITMAP
33
66
4C
C8
ENDCHAR
STARTCHAR uni030C
ENCODING 780
SWIDTH 0 0
DWIDTH 0 0
BBX 7 5 -6 13
BITMAP
82
4C
78
70
20
ENDCHAR
STARTCHAR uni030F
ENCODING 783
SWIDTH 0 0
DWIDTH 0 0
BBX 8 4 -8 13
BITMAP
EE
66
33
19
ENDCHAR
STARTCHAR uni0311
ENCODING 785
SWIDTH 0 0
DWIDTH 0 0
BBX 8 3 -8 14
BITMAP
3E
67
C3
ENDCHAR
STARTCHAR uni031B
ENCODING 795
SWIDTH 0 0
DWIDTH 0 0
BBX 4 5 -3 11
BITMAP
70
30
60
60
C0
ENDCHAR
STARTCHAR dotbelowcomb
ENCODING 803
SWIDTH 0 0
DWIDTH 0 0
BBX 3 4 -4 -5
BITMAP
E0
E0
E0
E0
ENDCHAR
STARTCHAR uni0324
ENCODING 804
SWIDTH 0 0
DWIDTH 0 0
BBX 7 3 -10 -5
BITMAP
CC
CE
CC
ENDCHAR
STARTCHAR uni0326
ENCODING 806
SWIDTH 0 0
DWIDTH 0 0
BBX 3 4 -6 -5
BITMAP
E0
E0
60
C0
ENDCHAR
STARTCHAR uni0327
ENCODING 807
SWIDTH 0 0
DWIDTH 0 0
BBX 6 6 -9 -5
BITMAP
30
20
3C
4C
9C
78
ENDCHAR
STARTCHAR uni0328
ENCODING 808
SWIDTH 0 0
DWIDTH 0 0
BBX 6 6 -9 -5
BITMAP
10
60
40
C0
7C
78
ENDCHAR
STARTCHAR uni032E
ENCODING 814
SWIDTH 0 0
DWIDTH 0 0
BBX 7 2 -10 -4
BITMAP
CE
7C
ENDCHAR
STARTCHAR uni0331
ENCODING 817
SWIDTH 0 0
DWIDTH 0 0
BBX 8 1 -11 -4
BITMAP
FF
ENDCHAR
STARTCHAR uni0335
ENCODING 821
SWIDTH 0 0
DWIDTH 0 0
BBX 8 1 -9 6
BITMAP
FF
ENDCHAR
STARTCHAR uni0394
ENCODING 916
SWIDTH 619 0
DWIDTH 15 0
BBX 15 18 0 0
BITMAP
0070
0070
00F8
00F8
01B8
0398
0318
0718
0618
0C1C
0C1C
181C
380C
300C
600C
600E
FFFE
FFFE
ENDCHAR
STARTCHAR uni03A9
ENCODING 937
SWIDTH 745 0
DWIDTH 18 0
BBX 16 18 1 0
BITMAP
00F8
03FC
070E
0C06
1807
3003
3003
7003
6007
6006
6006
600C
600C
3018
3030
1860
FCFE
F8FC
ENDCHAR
STARTCHAR uni03BC
ENCODING 956
SWIDTH 505 0
DWIDTH 12 0
BBX 15 16 -2 -4
BITMAP
0E78
1E78
1E70
1C70
1C70
3CF0
3CF0
3CE2
38E2
39E4
7EFC
7C70
7000
7000
7000
C000
ENDCHAR
STARTCHAR pi
ENCODING 960
SWIDTH 530 0
DWIDTH 13 0
BBX 13 12 0 0
BITMAP
FFF8
FFF0
30C0
30C0
6180
6180
6180
6180
6180
C300
C300
C380
ENDCHAR
STARTCHAR uni0400
ENCODING 1024
SWIDTH 459 0
DWIDTH 11 0
BBX 12 23 0 0
BITMAP
0380
0180
0180
00C0
0000
03C0
07E0
0E30
1C30
1C60
1C00
1E00
0F80
1E00
3C00
7800
7800
F000
F010
F820
F8C0
7F80
3E00
ENDCHAR
STARTCHAR uni0401
ENCODING 1025
SWIDTH 459 0
DWIDTH 11 0
BBX 13 23 0 0
BITMAP
0330
03B8
0330
0000
0000
03C0
07E0
0E30
1C30
1C60
1C00
1E00
0F80
1E00
3C00
7800
7800
F000
F010
F820
F8C0
7F80
3E00
ENDCHAR
STARTCHAR uni0402
ENCODING 1026
SWIDTH 725 0
DWIDTH 17 0
BBX 17 23 0 -5
BITMAP
07F080
1FFF80
31FF80
61E700
61C000
E3C000
E3C000
E3C000
63FE00
03DE00
078F00
078F00
078F00
070E00
070E00
0F0E00
0F1E00
0F1C00
001C00
003800
027800
03F000
01E000
ENDCHAR
STARTCHAR uni0403
ENCODING 1027
SWIDTH 400 0
DWIDTH 10 0
BBX 15 24 0 0
BITMAP
000E
000C
0018
0018
0030
0000
07FE
1FFE
33BC
6380
E780
E780
E700
6700
2F00
0F00
0E00
0E00
0E00
1E00
1E00
1C00
1C00
3C00
ENDCHAR
STARTCHAR uni0404
ENCODING 1028
SWIDTH 497 0
DWIDTH 12 0
BBX 13 18 0 0
BITMAP
03E0
07B0
0E18
1E18
3C38
3C00
7800
7FC0
7800
7800
7000
F000
F000
7808
7810
7C60
3FC0
1F00
ENDCHAR
STARTCHAR uni0405
ENCODING 1029
SWIDTH 570 0
DWIDTH 14 0
BBX 12 18 1 0
BITMAP
07C0
0FF0
1C30
1C30
1C70
1E20
1E00
0F00
0780
03C0
13E0
79E0
E0E0
E0E0
E0E0
E1C0
7F80
3F00
ENDCHAR
STARTCHAR uni0406
ENCODING 1030
SWIDTH 374 0
DWIDTH 9 0
BBX 10 18 0 0
BITMAP
03C0
0F80
3B80
7780
6780
E780
E700
6700
2F00
0F00
0E00
0E00
0E00
1E00
1E00
1C00
1C00
3C00
ENDCHAR
STARTCHAR uni0407
ENCODING 1031
SWIDTH 375 0
DWIDTH 9 0
BBX 12 23 0 0
BITMAP
0660
0770
0660
0000
0000
03C0
1F80
3380
6780
6780
E700
C700
CF00
2F00
0F00
0E00
0E00
1E00
1E00
1C00
1C00
1C00
3C00
ENDCHAR
STARTCHAR uni0408
ENCODING 1032
SWIDTH 536 0
DWIDTH 13 0
BBX 14 22 0 -4
BITMAP
003C
00FC
01B8
0338
0678
0678
0E70
0670
0270
00F0
00F0
00E0
00E0
01E0
01E0
01E0
01C0
7FC0
67C0
C380
6780
7E00
ENDCHAR
STARTCHAR uni0409
ENCODING 1033
SWIDTH 817 0
DWIDTH 20 0
BBX 20 20 -1 -2
BITMAP
001E00
007E00
00DC00
019C00
033C00
033C00
063800
0E3FC0
0C39E0
1C78E0
1878F0
3870F0
3870F0
7070E0
70F0E0
70F9E0
E0EFC0
E0E780
E00000
700000
ENDCHAR
STARTCHAR uni040A
ENCODING 1034
SWIDTH 931 0
DWIDTH 22 0
BBX 22 18 0 0
BITMAP
03C780
1F8700
338700
678F00
678F00
E70E00
E70E00
67FFF0
0F1E78
0F1E38
0E1C38
0E1C3C
0E3C38
1E3C38
1E3C38
1C3A70
1C3BF0
3C79C0
ENDCHAR
STARTCHAR uni040B
ENCODING 1035
SWIDTH 745 0
DWIDTH 18 0
BBX 17 18 0 0
BITMAP
07FF80
1FFF80
71EF00
61C000
E1C000
E3C000
E3C000
63FE00
03DE00
038F00
078F00
078F00
070F00
070E00
070E00
0F1E00
0F1E00
0E0F00
ENDCHAR
STARTCHAR uni040C
ENCODING 1036
SWIDTH 635 0
DWIDTH 15 0
BBX 16 24 0 0
BITMAP
000E
000C
0018
0018
0030
0000
03C7
1F9F
33BB
67B0
67E0
E740
E7C0
27F0
0F38
0F38
0E38
0E38
0E38
1E78
1E70
1C70
1C70
3C78
ENDCHAR
STARTCHAR uni040D
ENCODING 1037
SWIDTH 705 0
DWIDTH 17 0
BBX 18 23 0 0
BITMAP
007000
003000
001000
001800
000000
03C3C0
0F8780
3B8780
778F80
678F80
E79F00
E71700
673700
2F6F00
0F6F00
0ECE00
0ECE00
0F9E00
1F1E00
1F1E00
1E1C00
1E1C00
3C3C00
ENDCHAR
STARTCHAR uni040E
ENCODING 1038
SWIDTH 644 0
DWIDTH 15 0
BBX 17 23 0 0
BITMAP
006080
007100
006300
007E00
000000
03C180
0FC180
3BC100
71C300
61E200
E1E600
E1E400
E0EC00
60FC00
00F800
00F800
007000
007000
006000
006000
074000
07C000
078000
ENDCHAR
STARTCHAR uni040F
ENCODING 1039
SWIDTH 665 0
DWIDTH 16 0
BBX 17 26 0 -8
BITMAP
03C780
0F8700
3B8700
778F00
678F00
E78F00
E70E00
670E00
2F1E00
0F1E00
0E1C00
0E1C00
0E1C00
1E3C00
1E3C00
1C3800
1FF800
3FF800
010000
060000
070000
078000
038000
038000
018000
020000
ENDCHAR
STARTCHAR uni0410
ENCODING 1040
SWIDTH 668 0
DWIDTH 16 0
BBX 17 20 0 -2
BITMAP
000780
001F00
003700
006F00
00CF00
018F00
018E00
3FCE00
777E00
E61E00
EE1C00
0E1C00
1C1C00
1C3C00
1C3C00
383800
383800
387800
380000
380000
ENDCHAR
STARTCHAR uni0411
ENCODING 1041
SWIDTH 638 0
DWIDTH 15 0
BBX 15 18 0 0
BITMAP
0FFE
3FFE
77BC
6780
E700
C700
CF00
6FF0
0F38
0E3C
0E1C
1E1C
1E1C
1C1C
1C3C
1D78
3DF0
3DE0
ENDCHAR
STARTCHAR uni0412
ENCODING 1042
SWIDTH 641 0
DWIDTH 15 0
BBX 15 18 0 0
BITMAP
03F0
0F78
389C
738C
679C
E718
E770
67F8
0F3C
0F1C
0E1E
0E1E
0E1C
1E1C
1E1C
1D38
1DF8
3DE0
ENDCHAR
STARTCHAR uni0413
ENCODING 1043
SWIDTH 400 0
DWIDTH 10 0
BBX 15 18 0 0
BITMAP
07FE
1FFE
33BC
6380
E780
E780
E700
6700
2F00
0F00
0E00
0E00
0E00
1E00
1E00
1C00
1C00
3C00
ENDCHAR
STARTCHAR uni0414
ENCODING 1044
SWIDTH 669 0
DWIDTH 16 0
BBX 17 18 -1 0
BITMAP
01F800
0FBE00
1C2E00
3BC700
33C700
73C780
738780
338780
078780
078700
070700
070F00
3F0F00
6F0E00
CF1E00
DE3C00
7FF800
38F000
ENDCHAR
STARTCHAR uni0415
ENCODING 1045
SWIDTH 459 0
DWIDTH 11 0
BBX 12 18 0 0
BITMAP
03C0
07E0
0E30
1C30
1C60
1C00
1E00
0F80
1E00
3C00
7800
7800
F000
F010
F820
F8C0
7F80
3E00
ENDCHAR
STARTCHAR uni0416
ENCODING 1046
SWIDTH 777 0
DWIDTH 19 0
BBX 21 18 -1 0
BITMAP
0E0C70
1F3CF8
1F3DB0
01B900
01BB00
01BA00
01FE00
01FE00
07FF80
1F77C0
1C73C0
3CF3C0
38F380
38E380
38E380
39E780
79E780
F1E3C0
ENDCHAR
STARTCHAR uni0417
ENCODING 1047
SWIDTH 525 0
DWIDTH 13 0
BBX 12 18 0 0
BITMAP
07C0
0DE0
10F0
20F0
00F0
01E0
03C0
0F00
03C0
01E0
01E0
01E0
41E0
E1E0
C1E0
C3C0
F780
7E00
ENDCHAR
STARTCHAR uni0418
ENCODING 1048
SWIDTH 705 0
DWIDTH 17 0
BBX 18 18 0 0
BITMAP
03C3C0
0F8780
3B8780
778F80
678F80
E79F00
E71700
673700
2F6F00
0F6F00
0ECE00
0ECE00
0F9E00
1F1E00
1F1E00
1E1C00
1E1C00
3C3C00
ENDCHAR
STARTCHAR uni0419
ENCODING 1049
SWIDTH 705 0
DWIDTH 17 0
BBX 18 23 0 0
BITMAP
006180
00E100
00E600
007C00
000000
03C3C0
0F8780
3B8780
778F80
678F80
E79F00
E71700
673700
2F6F00
0F6F00
0ECE00
0ECE00
0F9E00
1F1E00
1F1E00
1E1C00
1E1C00
3C3C00
ENDCHAR
STARTCHAR uni041A
ENCODING 1050
SWIDTH 635 0
DWIDTH 15 0
BBX 16 18 0 0
BITMAP
03C7
1F9F
33BB
67B0
67E0
E740
E7C0
27F0
0F38
0F38
0E38
0E38
0E38
1E78
1E70
1C70
1C70
3C78
ENDCHAR
STARTCHAR uni041B
ENCODING 1051
SWIDTH 549 0
DWIDTH 13 0
BBX 15 20 -1 -2
BITMAP
001E
007E
00DC
019C
031C
033C
063C
0E38
0C38
1C78
1878
3878
3870
7070
70F0
70F0
E0E0
E0E0
E000
7000
ENDCHAR
STARTCHAR uni041C
ENCODING 1052
SWIDTH 787 0
DWIDTH 19 0
BBX 17 18 2 0
BITMAP
078380
1B8780
378780
678F80
C78F80
CF8F80
CF9F00
DF9F00
1FB700
1FB700
37AF00
37EF00
37EF00
67CE00
67CE00
478E00
C78E00
C79E00
ENDCHAR
STARTCHAR uni041D
ENCODING 1053
SWIDTH 665 0
DWIDTH 16 0
BBX 17 18 0 0
BITMAP
03C780
0F8700
3B8700
778F00
678F00
E78F00
E70E00
67FE00
2FFE00
0F1E00
0E1C00
0E1C00
0E1C00
1E3C00
1E3C00
1C3800
1C3800
3C7800
ENDCHAR
STARTCHAR uni041E
ENCODING 1054
SWIDTH 665 0
DWIDTH 16 0
BBX 16 18 0 0
BITMAP
01F8
0FBC
184E
338E
678F
6707
EF0F
6E0F
3E0F
1E0E
1C0E
1C1E
1C1C
1C3C
1C38
1E70
1FE0
07C0
ENDCHAR
STARTCHAR uni041F
ENCODING 1055
SWIDTH 688 0
DWIDTH 17 0
BBX 19 18 0 0
BITMAP
07F020
1FFFE0
3FFFC0
738FC0
678F00
E78F00
E70E00
E70E00
6F0E00
0F1E00
0F1E00
0E1C00
0E1C00
1E3C00
1E3C00
1C3800
1C3800
3C7800
ENDCHAR
STARTCHAR uni0420
ENCODING 1056
SWIDTH 573 0
DWIDTH 14 0
BBX 14 18 0 0
BITMAP
03E0
0F78
381C
779C
678C
E71C
C71C
C71C
6F38
0F70
0FE0
0E00
1E00
1E00
1C00
1C00
1C00
3C00
ENDCHAR
STARTCHAR uni0421
ENCODING 1057
SWIDTH 497 0
DWIDTH 12 0
BBX 13 18 0 0
BITMAP
03E0
07B0
0F18
1E18
3C38
3C10
7800
7800
7800
7800
7800
F000
F000
7808
7810
7C60
3FC0
1F00
ENDCHAR
STARTCHAR uni0422
ENCODING 1058
SWIDTH 481 0
DWIDTH 12 0
BBX 17 18 0 0
BITMAP
07F080
1FFF80
31FF80
61CF00
E1C000
C3C000
C3C000
C3C000
638000
038000
078000
078000
070000
070000
0F0000
0F0000
0F0000
0E0000
ENDCHAR
STARTCHAR uni0423
ENCODING 1059
SWIDTH 644 0
DWIDTH 15 0
BBX 17 18 0 0
BITMAP
03C180
0FC180
3BC100
71C300
61E200
E1E600
E1E400
E0EC00
60FC00
00F800
00F800
007000
007000
006000
006000
074000
07C000
078000
ENDCHAR
STARTCHAR uni0424
ENCODING 1060
SWIDTH 786 0
DWIDTH 19 0
BBX 18 19 0 0
BITMAP
07F800
1E3800
187800
187800
017000
06FF00
18F380
38F1C0
70E1C0
70E1C0
F1E1C0
F1E3C0
71C380
71C780
79CF00
1FFC00
03C000
038000
038000
ENDCHAR
STARTCHAR uni0425
ENCODING 1061
SWIDTH 620 0
DWIDTH 15 0
BBX 15 18 0 0
BITMAP
03C6
1FC4
33CC
63D8
61D0
E1F0
C1E0
C1E0
21E0
00E0
01F0
01F0
03F0
02F0
0678
0478
0C78
1878
ENDCHAR
STARTCHAR uni0426
ENCODING 1062
SWIDTH 692 0
DWIDTH 17 0
BBX 17 22 0 -4
BITMAP
03C780
0F8700
338700
778F00
678F00
E78E00
E70E00
670E00
2F1E00
0F1E00
0E1C00
0E1C00
0E1C00
1E3C00
1E3C00
1C3800
1F3800
3FF800
01F800
007F80
001F80
000F00
ENDCHAR
STARTCHAR uni0427
ENCODING 1063
SWIDTH 695 0
DWIDTH 17 0
BBX 17 18 0 0
BITMAP
03C380
0F8380
3B8780
778780
678700
E70700
E70700
670F00
078F00
07FE00
03EE00
001E00
001E00
001E00
001C00
001C00
003C00
003C00
ENDCHAR
STARTCHAR uni0428
ENCODING 1064
SWIDTH 906 0
DWIDTH 22 0
BBX 22 18 0 0
BITMAP
03CF1C
0F8F1C
3B8E3C
778E3C
678E38
E79E38
E71E38
671C78
2F1C78
0F3C70
0E3C70
0E3C70
0E38F0
1E38F0
1E78E0
1C78E0
1FFFE0
3FFFE0
ENDCHAR
STARTCHAR uni0429
ENCODING 1065
SWIDTH 934 0
DWIDTH 22 0
BBX 23 22 0 -4
BITMAP
03CF1C
0F8F1C
338E3C
778E3C
678E38
E79E38
E71E38
671C78
2F1C78
0F3C70
0E3C70
0E3C70
0E38F0
1E38F0
1E78E0
1C78E0
1FF1E0
3FFDE0
00FFE0
001FFE
0003FC
00007C
ENDCHAR
STARTCHAR uni042A
ENCODING 1066
SWIDTH 714 0
DWIDTH 17 0
BBX 16 18 0 0
BITMAP
07E0
1CE0
21E0
61E0
61C0
E1C0
E1C0
63FE
03CF
0387
0387
0787
0787
0787
070F
074E
0F7C
0F78
ENDCHAR
STARTCHAR uni042B
ENCODING 1067
SWIDTH 909 0
DWIDTH 22 0
BBX 23 18 0 0
BITMAP
03C01E
1F801C
33801C
67803C
67803C
E70038
E70038
67F878
0F3C78
0F1C78
0E1C70
0E1E70
0E1CF0
1E1CF0
1E1CE0
1D38E0
1DF8E0
3CE1E0
ENDCHAR
STARTCHAR uni042C
ENCODING 1068
SWIDTH 640 0
DWIDTH 15 0
BBX 15 18 0 0
BITMAP
03C0
1F80
3380
6780
6780
E700
E700
67F8
0F3C
0F1C
0E1C
0E1E
0E1C
1E1C
1E1C
1D38
1DF8
3CE0
ENDCHAR
STARTCHAR uni042D
ENCODING 1069
SWIDTH 544 0
DWIDTH 13 0
BBX 13 18 0 0
BITMAP
07C0
1FF0
20F0
6078
0078
0078
0078
0FF8
1078
00F0
00F0
00F0
41E0
E1E0
C3C0
C380
C700
7E00
ENDCHAR
STARTCHAR uni042E
ENCODING 1070
SWIDTH 946 0
DWIDTH 23 0
BBX 22 18 0 0
BITMAP
03C3F0
0F87F8
3B893C
77871C
678E1C
E79E1C
E71C1C
67FC1C
2FFC1C
0F381C
0E381C
0E7838
0E7838
1E7878
1E7870
1C38E0
1C3FC0
3C1F00
ENDCHAR
STARTCHAR uni042F
ENCODING 1071
SWIDTH 630 0
DWIDTH 15 0
BBX 18 18 -1 0
BITMAP
00FE00
03EF00
070580
0E3DC0
0C39C0
0C3980
0C7800
0E7800
077000
0FF000
1E7000
1CF000
3CF000
38E000
38E000
39E000
79E000
F1E000
ENDCHAR
STARTCHAR uni0430
ENCODING 1072
SWIDTH 526 0
DWIDTH 13 0
BBX 14 12 0 0
BITMAP
0EF0
3DE0
78E0
71E0
F1E0
F1C0
E1C0
E3C4
E3C8
F7C8
FDF0
79E0
ENDCHAR
STARTCHAR uni0431
ENCODING 1073
SWIDTH 430 0
DWIDTH 10 0
BBX 13 18 0 0
BITMAP
0008
0FF8
0FF8
0FF0
0E00
0700
0300
1F80
3D80
7980
F180
F180
E180
E180
E300
E700
FE00
7C00
ENDCHAR
STARTCHAR uni0432
ENCODING 1074
SWIDTH 449 0
DWIDTH 11 0
BBX 13 18 0 0
BITMAP
0780
0E80
1CC0
1CC0
38C0
3880
7880
7180
7108
F718
F7E0
E780
E180
E180
E180
F300
FF00
7C00
ENDCHAR
STARTCHAR uni0433
ENCODING 1075
SWIDTH 375 0
DWIDTH 9 0
BBX 11 12 -1 0
BITMAP
0F00
3F80
2780
6380
4780
0F00
3E00
7800
7020
F040
7F80
3E00
ENDCHAR
STARTCHAR uni0434
ENCODING 1076
SWIDTH 507 0
DWIDTH 12 0
BBX 13 18 0 -6
BITMAP
0EF0
3DE0
78E0
71E0
F1E0
F1C0
E1C0
E3C0
E3C8
F790
FFB0
7BE0
0F80
1F80
2700
2700
3F00
1C00
ENDCHAR
STARTCHAR uni0435
ENCODING 1077
SWIDTH 384 0
DWIDTH 9 0
BBX 10 12 0 0
BITMAP
0F00
3F80
7980
7180
F300
F600
FC00
E000
E040
E080
FF00
7C00
ENDCHAR
STARTCHAR uni0436
ENCODING 1078
SWIDTH 882 0
DWIDTH 21 0
BBX 23 12 -1 0
BITMAP
1E1C78
3F1CFC
673DCC
0339C8
033980
07FF80
077B80
077380
C67382
CE7384
CC73D8
78F1E0
ENDCHAR
STARTCHAR uni0437
ENCODING 1079
SWIDTH 498 0
DWIDTH 12 0
BBX 13 18 0 -6
BITMAP
0F80
1FC0
33C0
61C0
41C0
43C0
8380
0708
1E08
0F10
0720
07C0
0F80
3F00
2700
6F00
6E00
3C00
ENDCHAR
STARTCHAR uni0438
ENCODING 1080
SWIDTH 505 0
DWIDTH 12 0
BBX 13 12 0 0
BITMAP
79E0
79E0
79C0
71C0
71C0
F3C0
F3C0
E380
E388
F790
FBF0
71C0
ENDCHAR
STARTCHAR uni0439
ENCODING 1081
SWIDTH 505 0
DWIDTH 12 0
BBX 13 17 0 0
BITMAP
0820
1C60
1CC0
0F80
0000
79E0
79E0
79C0
71C0
71C0
F3C0
F3C0
E380
E388
F790
FBF0
71C0
ENDCHAR
STARTCHAR uni043A
ENCODING 1082
SWIDTH 501 0
DWIDTH 12 0
BBX 14 12 -1 0
BITMAP
1C70
3CF8
3DB0
3B00
3F80
7FC0
79C0
71C0
71C4
71C8
F1F8
F0E0
ENDCHAR
STARTCHAR uni043B
ENCODING 1083
SWIDTH 558 0
DWIDTH 13 0
BBX 15 12 -1 0
BITMAP
00F8
01F8
0338
0278
0270
0670
0470
04F0
E4E2
ECF6
C8FC
7078
ENDCHAR
STARTCHAR uni043C
ENCODING 1084
SWIDTH 827 0
DWIDTH 20 0
BBX 22 12 -1 0
BITMAP
00E0F0
01E1E0
03E1E0
02E3E0
02E3E0
06E7E0
04E5C0
04EDC0
E4E9CC
ECF9D8
D8F1F0
7070E0
ENDCHAR
STARTCHAR uni043D
ENCODING 1085
SWIDTH 507 0
DWIDTH 12 0
BBX 14 12 -1 0
BITMAP
1C70
3CF0
3CF0
38E0
38E0
7FE0
79E0
79C0
71C4
71C8
F1F8
F0F0
ENDCHAR
STARTCHAR uni043E
ENCODING 1086
SWIDTH 439 0
DWIDTH 11 0
BBX 13 12 0 0
BITMAP
0F00
3D80
3988
7198
F1E0
F180
E180
E180
E300
E700
FE00
7C00
ENDCHAR
STARTCHAR uni043F
ENCODING 1087
SWIDTH 505 0
DWIDTH 12 0
BBX 14 12 -1 0
BITMAP
1FC0
3FE0
3CE0
38E0
38E0
79E0
79E0
71C0
71C4
71C8
F1F8
F0F0
ENDCHAR
STARTCHAR uni0440
ENCODING 1088
SWIDTH 468 0
DWIDTH 11 0
BBX 13 19 -2 -6
BITMAP
0E00
1FE0
1FF0
1E78
1C78
1C78
3C78
3C70
3870
38F0
39E0
7FC0
7F80
7000
7000
7000
F000
F000
8000
ENDCHAR
STARTCHAR uni0441
ENCODING 1089
SWIDTH 384 0
DWIDTH 9 0
BBX 10 12 0 0
BITMAP
0F00
3F80
7980
7180
F000
F000
E000
E000
E040
E080
FF00
7C00
ENDCHAR
STARTCHAR uni0442
ENCODING 1090
SWIDTH 752 0
DWIDTH 18 0
BBX 20 12 -1 0
BITMAP
1FEF00
3FFF80
3CF380
38E380
39E380
79E780
79E780
71C700
71C710
73C720
F3C7E0
F3C380
ENDCHAR
STARTCHAR uni0443
ENCODING 1091
SWIDTH 486 0
DWIDTH 12 0
BBX 13 18 0 -6
BITMAP
79E0
79E0
79C0
71C0
71C0
F3C0
F3C0
E388
E390
F790
FFA0
77C0
0F00
3700
6F00
4F00
7E00
3C00
ENDCHAR
STARTCHAR uni0444
ENCODING 1092
SWIDTH 738 0
DWIDTH 18 0
BBX 17 23 0 -6
BITMAP
001000
007000
007000
00F000
00E000
0EEF00
3DFF00
79E780
71C780
F1C780
F1C780
E1C700
E3C700
E38F00
F79E00
FFFE00
7BF800
078000
070000
070000
070000
0F0000
080000
ENDCHAR
STARTCHAR uni0445
ENCODING 1093
SWIDTH 522 0
DWIDTH 13 0
BBX 14 13 0 0
BITMAP
0070
0E70
1F30
2730
4760
47C0
4780
8780
8784
0B88
13D8
33F0
61E0
ENDCHAR
STARTCHAR uni0446
ENCODING 1094
SWIDTH 535 0
DWIDTH 13 0
BBX 11 18 0 -6
BITMAP
79E0
79E0
79C0
71C0
71C0
F3C0
F3C0
E380
E380
F780
FBE0
71E0
0020
0060
0FC0
1FC0
3F80
2000
ENDCHAR
STARTCHAR uni0447
ENCODING 1095
SWIDTH 505 0
DWIDTH 12 0
BBX 12 12 1 0
BITMAP
F3C0
F3C0
F380
E380
E780
E780
FF80
7710
0710
07E0
07C0
0380
ENDCHAR
STARTCHAR uni0448
ENCODING 1096
SWIDTH 752 0
DWIDTH 18 0
BBX 19 12 0 0
BITMAP
79E780
79E780
79C700
71C700
71C700
F3CF00
F3CF00
E38E00
E38E20
F79E40
FBEFC0
71C700
ENDCHAR
STARTCHAR uni0449
ENCODING 1097
SWIDTH 782 0
DWIDTH 19 0
BBX 17 18 0 -6
BITMAP
79E780
79E780
79C700
71C700
71C700
F3CF00
F3CF00
E38E00
E38E00
F79E00
FBEF80
71C780
000080
000180
007F00
00FF00
00FE00
008000
ENDCHAR
STARTCHAR uni044A
ENCODING 1098
SWIDTH 448 0
DWIDTH 11 0
BBX 10 12 0 0
BITMAP
7E00
EC00
D800
D800
3F80
7BC0
F1C0
F1C0
E380
E380
FF00
7C00
ENDCHAR
STARTCHAR uni044B
ENCODING 1099
SWIDTH 655 0
DWIDTH 16 0
BBX 17 12 0 0
BITMAP
780E00
783C00
70FC00
779C00
773C00
F1B800
F1B800
E3B880
E33900
E77B00
FE3E00
7C3C00
ENDCHAR
STARTCHAR uni044C
ENCODING 1100
SWIDTH 448 0
DWIDTH 11 0
BBX 10 12 0 0
BITMAP
3800
7800
7800
7200
7F80
F3C0
F1C0
F1C0
E380
E780
FF00
7C00
ENDCHAR
STARTCHAR uni044D
ENCODING 1101
SWIDTH 413 0
DWIDTH 10 0
BBX 10 12 -1 0
BITMAP
1F00
3780
63C0
03C0
03C0
1FC0
0380
0380
C780
C700
CE00
7800
ENDCHAR
STARTCHAR uni044E
ENCODING 1102
SWIDTH 675 0
DWIDTH 16 0
BBX 20 12 -1 0
BITMAP
1C1E00
3C7F00
3CF310
38E730
39E7C0
7FC300
7BC300
7BC600
73C600
73CC00
F1FC00
F0F000
ENDCHAR
STARTCHAR uni044F
ENCODING 1103
SWIDTH 527 0
DWIDTH 13 0
BBX 15 12 -1 0
BITMAP
07F8
0F70
1C70
1C70
1CF0
1CE0
1FE0
04E2
EDE4
EDEC
F8F8
78F0
ENDCHAR
STARTCHAR uni0450
ENCODING 1104
SWIDTH 384 0
DWIDTH 9 0
BBX 10 17 0 0
BITMAP
0C00
0C00
0600
0600
0000
0F00
3F80
7980
7180
F300
F600
FC00
E000
E040
E080
FF00
7C00
ENDCHAR
STARTCHAR uni0451
ENCODING 1105
SWIDTH 384 0
DWIDTH 9 0
BBX 10 17 0 0
BITMAP
18C0
1DC0
1CC0
0000
0000
0F00
3F80
7980
7180
F300
F600
FC00
E000
E040
E080
FF00
7C00
ENDCHAR
STARTCHAR uni0452
ENCODING 1106
SWIDTH 491 0
DWIDTH 12 0
BBX 14 23 -1 -6
BITMAP
0200
1E00
1E00
1C00
7F80
1C00
3C00
3FC0
3FE0
3DE0
78E0
79E0
79C0
71C4
71C8
F3D0
F3E0
0780
1F80
3380
3700
3F00
1E00
ENDCHAR
STARTCHAR uni0453
ENCODING 1107
SWIDTH 375 0
DWIDTH 9 0
BBX 11 18 -1 0
BITMAP
00E0
00C0
0180
0180
0300
0000
0F00
3F80
2780
6380
4780
0F00
3E00
7800
7020
F040
7F80
3E00
ENDCHAR
STARTCHAR uni0454
ENCODING 1108
SWIDTH 384 0
DWIDTH 9 0
BBX 10 12 0 0
BITMAP
0F00
3F80
7980
7100
F000
FE00
E000
E000
E040
E080
FF00
7C00
ENDCHAR
STARTCHAR uni0455
ENCODING 1109
SWIDTH 382 0
DWIDTH 9 0
BBX 11 13 -1 0
BITMAP
0300
0F00
0F00
1F00
1700
1700
2700
2700
67A0
E7C0
C780
7F00
3C00
ENDCHAR
STARTCHAR uni0456
ENCODING 1110
SWIDTH 267 0
DWIDTH 6 0
BBX 7 17 0 0
BITMAP
18
3C
3C
18
00
78
78
78
70
70
F0
F0
E0
E2
E6
FC
70
ENDCHAR
STARTCHAR uni0457
ENCODING 1111
SWIDTH 267 0
DWIDTH 6 0
BBX 8 17 0 0
BITMAP
66
E7
66
00
00
78
78
78
70
70
F0
F0
E0
E2
E6
FC
70
ENDCHAR
STARTCHAR uni0458
ENCODING 1112
SWIDTH 240 0
DWIDTH 6 0
BBX 12 23 -5 -6
BITMAP
00C0
01E0
01E0
00C0
0000
01C0
03C0
03C0
0380
0380
0780
0780
0780
0710
0720
0F60
0F80
1E00
7E00
CE00
DE00
FC00
7800
ENDCHAR
STARTCHAR uni0459
ENCODING 1113
SWIDTH 745 0
DWIDTH 18 0
BBX 18 12 -1 0
BITMAP
00F800
01F800
037800
027A00
067F80
067BC0
0671C0
04F1C0
E4F380
ECE380
F87700
783C00
ENDCHAR
STARTCHAR uni045A
ENCODING 1114
SWIDTH 694 0
DWIDTH 17 0
BBX 17 12 -1 0
BITMAP
1C7000
3CF000
3CF000
38E400
38FF00
7FE780
79E380
79E780
71C700
71C700
F1FE00
F0F800
ENDCHAR
STARTCHAR uni045B
ENCODING 1115
SWIDTH 505 0
DWIDTH 12 0
BBX 14 17 -1 0
BITMAP
0200
1E00
1E00
1C00
7F80
1C00
3C00
3FC0
3FE0
3DE0
78E0
79E0
79C0
71C4
71C8
F1F8
F0F0
ENDCHAR
STARTCHAR uni045C
ENCODING 1116
SWIDTH 501 0
DWIDTH 12 0
BBX 14 18 -1 0
BITMAP
0070
0060
00C0
00C0
0180
0000
1C70
3CF8
3DB0
3B00
3F80
7FC0
79C0
71C0
71C4
71C8
F1F8
F0E0
ENDCHAR
STARTCHAR uni045D
ENCODING 1117
SWIDTH 505 0
DWIDTH 12 0
BBX 13 17 0 0
BITMAP
0E00
0600
0600
0200
0000
79E0
79E0
79C0
71C0
71C0
F3C0
F3C0
E380
E388
F790
FBF0
71C0
ENDCHAR
STARTCHAR uni045E
ENCODING 1118
SWIDTH 486 0
DWIDTH 12 0
BBX 13 23 0 -6
BITMAP
0820
1C60
1CC0
0F80
0000
79E0
79E0
79C0
71C0
71C0
F3C0
F3C0
E388
E390
F790
FFA0
77C0
0F00
3700
6F00
4F00
7E00
3C00
ENDCHAR
STARTCHAR uni045F
ENCODING 1119
SWIDTH 505 0
DWIDTH 12 0
BBX 13 18 0 -6
BITMAP
79E0
79E0
79C0
71C0
71C0
F3C0
F3C0
E380
E388
F790
FBF0
71C0
0400
0C00
0E00
0E00
0400
0800
ENDCHAR
STARTCHAR uni0462
ENCODING 1122
SWIDTH 659 0
DWIDTH 16 0
BBX 15 18 0 0
BITMAP
0380
0380
0780
3FFE
77FE
E77C
CF00
CFF0
2F38
0E1C
0E1C
1E1C
1E1C
1C1C
1C3C
1D38
3DF0
3DE0
ENDCHAR
STARTCHAR uni0463
ENCODING 1123
SWIDTH 692 0
DWIDTH 17 0
BBX 17 12 -1 0
BITMAP
1FC000
3FE000
3CE000
38E000
38FF00
79F700
79E780
71C780
71C700
71C700
F1FE00
F0F800
ENDCHAR
STARTCHAR uni046A
ENCODING 1130
SWIDTH 834 0
DWIDTH 20 0
BBX 18 18 1 0
BITMAP
03FFC0
0FC080
3BC180
71E300
61E200
E1E600
E0FC00
60F800
27FF80
1E7380
1CF3C0
3CF3C0
38E380
38E380
38E780
79E780
71E700
F1C380
ENDCHAR
STARTCHAR uni046B
ENCODING 1131
SWIDTH 750 0
DWIDTH 18 0
BBX 15 12 1 0
BITMAP
1FFC
3F88
6788
6390
63E0
1FFC
3DDE
39DE
3BDC
739C
739C
F39E
ENDCHAR
STARTCHAR uni0472
ENCODING 1138
SWIDTH 665 0
DWIDTH 16 0
BBX 16 18 0 0
BITMAP
01F8
0FBC
18CE
338E
678F
6707
EF0F
6E0F
3FCF
1EFE
1C0E
1C1E
1C1C
1C1C
1C38
1C70
1EE0
07C0
ENDCHAR
STARTCHAR uni0473
ENCODING 1139
SWIDTH 439 0
DWIDTH 11 0
BBX 13 12 0 0
BITMAP
0F00
3D80
3988
7198
F1E0
FD80
FF80
E180
E300
F700
FE00
7C00
ENDCHAR
STARTCHAR uni0474
ENCODING 1140
SWIDTH 668 0
DWIDTH 16 0
BBX 18 18 0 0
BITMAP
03C1C0
1FC380
33C700
63C600
63CE00
E3CC00
C3CC00
C3D800
23D800
03D800
03D000
03F000
03F000
03E000
03E000
03E000
03C000
03C000
ENDCHAR
STARTCHAR uni0475
ENCODING 1141
SWIDTH 414 0
DWIDTH 10 0
BBX 10 12 0 0
BITMAP
3980
79C0
78C0
7080
7080
F180
F180
E100
E300
E600
FC00
7800
ENDCHAR
STARTCHAR uni0490
ENCODING 1168
SWIDTH 431 0
DWIDTH 10 0
BBX 16 21 0 0
BITMAP
0002
0002
0007
07FE
1FFE
37BC
6780
E780
E700
E700
6F00
2F00
0E00
0E00
0E00
1E00
1E00
1C00
1C00
3C00
3C00
ENDCHAR
STARTCHAR uni0491
ENCODING 1169
SWIDTH 342 0
DWIDTH 8 0
BBX 10 14 -1 0
BITMAP
00C0
00C0
1FC0
3C00
3C00
3800
3800
7800
7800
7000
7000
7000
F000
F000
ENDCHAR
STARTCHAR uni0492
ENCODING 1170
SWIDTH 400 0
DWIDTH 10 0
BBX 15 18 0 0
BITMAP
07FE
1FFE
33BC
6380
6780
E780
E700
E700
6700
0F00
3FC0
0E00
0E00
1E00
1E00
1C00
1C00
3C00
ENDCHAR
STARTCHAR uni0493
ENCODING 1171
SWIDTH 375 0
DWIDTH 9 0
BBX 11 12 -1 0
BITMAP
0F00
3F80
2780
4780
0F00
7FC0
BC00
7820
7040
F080
7F00
3E00
ENDCHAR
STARTCHAR uni0494
ENCODING 1172
SWIDTH 665 0
DWIDTH 16 0
BBX 15 19 0 -1
BITMAP
07FE
1FFE
33BC
6380
6780
E780
E700
E770
6FF8
0F1C
0F1E
0E0E
0E0E
1E1E
1E1C
1C1C
1D3C
3DF8
01E0
ENDCHAR
STARTCHAR uni0495
ENCODING 1173
SWIDTH 486 0
DWIDTH 12 0
BBX 14 18 -1 -6
BITMAP
1FF0
3FE0
3DE0
3800
3B80
7FC0
79C0
79C4
71C8
71C8
F3D0
F3E0
0780
1F80
3780
2700
3F00
1E00
ENDCHAR
STARTCHAR uni0496
ENCODING 1174
SWIDTH 777 0
DWIDTH 19 0
BBX 21 25 -1 -7
BITMAP
0E0C70
1F3CF8
1F3DB0
01B900
01BB00
01BA00
01FE00
01FE00
07FF80
1F77C0
1C73C0
3CF3C0
38F380
38E380
38E380
39E780
79E780
F1E3C0
000300
000600
000700
000780
000380
000180
000100
ENDCHAR
STARTCHAR uni0497
ENCODING 1175
SWIDTH 882 0
DWIDTH 21 0
BBX 23 18 -1 -6
BITMAP
1E1C78
3F1CFC
673DCC
0339C8
033980
07FF80
077B80
077380
C67382
CE7384
CC73F8
78F1F0
000040
0000E0
0000E0
0000E0
000040
000040
ENDCHAR
STARTCHAR uni0498
ENCODING 1176
SWIDTH 525 0
DWIDTH 13 0
BBX 12 25 0 -7
BITMAP
07C0
0DE0
10F0
20F0
00F0
01E0
03C0
0F00
03C0
01E0
01E0
01E0
41E0
E1E0
C1E0
C3C0
F780
7E00
0800
1C00
1E00
0E00
0E00
0600
0C00
ENDCHAR
STARTCHAR uni0499
ENCODING 1177
SWIDTH 498 0
DWIDTH 12 0
BBX 13 24 0 -12
BITMAP
0F80
1FC0
33C0
61C0
41C0
43C0
8380
0708
1E08
0F10
0720
07C0
0F80
3700
2700
6F00
7E00
3C00
1000
3800
3800
3800
1800
1000
ENDCHAR
STARTCHAR uni049A
ENCODING 1178
SWIDTH 635 0
DWIDTH 15 0
BBX 16 25 0 -7
BITMAP
03C7
0F8F
339B
77B0
67E0
E7C0
E7C0
E780
6FF0
0F38
0F38
0E38
0E38
1E78
1E70
1C70
1C70
3C78
0060
0060
0070
0078
0038
0030
0030
ENDCHAR
STARTCHAR uni049B
ENCODING 1179
SWIDTH 501 0
DWIDTH 12 0
BBX 14 18 -1 -6
BITMAP
1C70
3CF8
3DB0
3B00
3F80
7FC0
79C0
71C0
71C4
71C8
F1F8
F0E0
0040
00C0
00E0
00E0
0040
0080
ENDCHAR
STARTCHAR uni049C
ENCODING 1180
SWIDTH 721 0
DWIDTH 17 0
BBX 18 18 0 0
BITMAP
03C1C0
0F83C0
3386C0
678C00
679800
E75800
E77000
67F000
0FFC00
0F9C00
0E9C00
0E1C00
0E1C00
1E3C00
1E3C00
1C3800
1C3800
3C3C00
ENDCHAR
STARTCHAR uni049D
ENCODING 1181
SWIDTH 551 0
DWIDTH 13 0
BBX 15 12 -1 0
BITMAP
1C1C
3C7C
3E9C
3B00
3BE0
7FE0
7CF0
7CE0
74E2
70FC
F0FC
F078
ENDCHAR
STARTCHAR uni04A0
ENCODING 1184
SWIDTH 691 0
DWIDTH 17 0
BBX 18 18 0 0
BITMAP
07E380
3FE7C0
71CD80
61D800
E1F000
C3E000
C3E000
63FC00
03BC00
079E00
079E00
079C00
071C00
071C00
0F3C00
0F3800
0F3800
0E3C00
ENDCHAR
STARTCHAR uni04A1
ENCODING 1185
SWIDTH 676 0
DWIDTH 16 0
BBX 17 12 0 0
BITMAP
1F8600
7B9F00
E7B600
C7E000
C77000
C7F800
0F3C00
0F3800
0E3880
0E3D00
0E3F00
1E1E00
ENDCHAR
STARTCHAR uni04A2
ENCODING 1186
SWIDTH 665 0
DWIDTH 16 0
BBX 17 22 0 -4
BITMAP
03C780
0F8700
3B8700
778F00
678F00
E78F00
E70E00
67FE00
2FFE00
0F1E00
0E1C00
0E1C00
0E1C00
1E3C00
1E3C00
1C3800
1C3800
3C7800
001E00
000F80
000F80
000700
ENDCHAR
STARTCHAR uni04A3
ENCODING 1187
SWIDTH 507 0
DWIDTH 12 0
BBX 14 18 -1 -6
BITMAP
1C70
3CF0
3CF0
38E0
38E0
7FE0
79E0
79C0
71C4
71C8
F1F8
F0F0
0040
00E0
00E0
00E0
0040
0040
ENDCHAR
STARTCHAR uni04A4
ENCODING 1188
SWIDTH 689 0
DWIDTH 17 0
BBX 22 18 0 0
BITMAP
03C7FC
0F87FC
338778
678F00
678F00
E78F00
E70E00
67FE00
2FFE00
0F1E00
0E1C00
0E1C00
0E1C00
1E3C00
1E3C00
1C3800
1C3800
3C7800
ENDCHAR
STARTCHAR uni04A5
ENCODING 1189
SWIDTH 681 0
DWIDTH 16 0
BBX 18 12 -1 0
BITMAP
1C7FC0
3CFFC0
3CF780
38E000
38E000
7FE000
79E000
79C000
71C400
71E800
F1F800
F0E000
ENDCHAR
STARTCHAR uni04AA
ENCODING 1194
SWIDTH 497 0
DWIDTH 12 0
BBX 13 25 0 -7
BITMAP
03E0
07B0
0F18
1E18
3C38
3C10
7800
7800
7800
7800
7800
F800
F000
F808
7810
7C70
7FE0
3F80
0C00
0E00
0F00
0700
0700
0300
0600
ENDCHAR
STARTCHAR uni04AB
ENCODING 1195
SWIDTH 384 0
DWIDTH 9 0
BBX 10 18 0 -6
BITMAP
0F00
3F80
3980
7100
F000
F000
E000
E000
E0C0
E180
FF00
7C00
1000
3800
3800
3800
1800
1000
ENDCHAR
STARTCHAR uni04AE
ENCODING 1198
SWIDTH 620 0
DWIDTH 15 0
BBX 17 18 0 0
BITMAP
03C180
1FC100
33C300
63C200
61E600
E1E400
C1E400
C1E800
20F800
00F800
00F000
00F000
00F000
00E000
01E000
01E000
01E000
01E000
ENDCHAR
STARTCHAR uni04AF
ENCODING 1199
SWIDTH 480 0
DWIDTH 12 0
BBX 10 18 1 -6
BITMAP
F180
F1C0
7040
70C0
7080
7080
7180
7100
7A00
7E00
7C00
7800
7800
7800
7000
7000
F000
8000
ENDCHAR
STARTCHAR uni04B0
ENCODING 1200
SWIDTH 620 0
DWIDTH 15 0
BBX 17 18 0 0
BITMAP
03C180
1FC100
33C300
63C200
61E600
E1E400
C1E400
C1E800
20F800
00F800
00F000
03FC00
00F000
00E000
01E000
01E000
01E000
01E000
ENDCHAR
STARTCHAR uni04B1
ENCODING 1201
SWIDTH 480 0
DWIDTH 12 0
BBX 11 18 0 -6
BITMAP
78C0
78E0
3820
3860
3840
3840
38C0
3880
3D00
3F00
3E00
FF00
3C00
3C00
3800
3800
7800
4000
ENDCHAR
STARTCHAR uni04B6
ENCODING 1206
SWIDTH 695 0
DWIDTH 17 0
BBX 18 22 0 -4
BITMAP
03C380
0F8380
3B8780
778780
678700
E70700
E70700
670F00
078F00
07FE00
03EE00
001E00
001E00
001E00
001C00
001C00
003C00
003C00
000E00
0007C0
000780
000380
ENDCHAR
STARTCHAR uni04B7
ENCODING 1207
SWIDTH 505 0
DWIDTH 12 0
BBX 12 18 1 -6
BITMAP
F3C0
F3C0
F380
E380
E780
E780
FF80
7710
0710
07E0
07C0
0380
0300
0380
0380
0380
0100
0200
ENDCHAR
STARTCHAR uni04B8
ENCODING 1208
SWIDTH 715 0
DWIDTH 17 0
BBX 18 18 0 0
BITMAP
03C3C0
0F83C0
3B8380
778380
678780
E78780
E70700
E72700
27AF00
07FF00
03EF00
004E00
004E00
000E00
001E00
001E00
001C00
001C00
ENDCHAR
STARTCHAR uni04B9
ENCODING 1209
SWIDTH 545 0
DWIDTH 13 0
BBX 13 12 1 0
BITMAP
F1E0
F1E0
F1C0
EDC0
EBC0
EFC0
FFC0
7B88
1B88
13F0
03E0
01C0
ENDCHAR
STARTCHAR uni04BA
ENCODING 1210
SWIDTH 679 0
DWIDTH 16 0
BBX 15 18 0 0
BITMAP
03C0
0F80
3B80
7780
6780
E780
E700
6778
2FFC
0F1E
0E1E
0E1E
0E1E
1E1E
1E1C
1C1C
1C3C
3C3C
ENDCHAR
STARTCHAR uni04BB
ENCODING 1211
SWIDTH 505 0
DWIDTH 12 0
BBX 14 17 -1 0
BITMAP
0200
1E00
1E00
1C00
1C00
1DC0
3FE0
3CE0
3CE0
38E0
78E0
79E0
79C0
71C4
71C8
F1F8
F0E0
ENDCHAR
STARTCHAR uni04C0
ENCODING 1216
SWIDTH 375 0
DWIDTH 9 0
BBX 10 18 0 0
BITMAP
03C0
1F80
3380
6780
6780
E700
C700
CF00
2F00
0F00
0E00
0E00
1E00
1E00
1C00
1C00
1C00
3C00
ENDCHAR
STARTCHAR uni04C1
ENCODING 1217
SWIDTH 777 0
DWIDTH 19 0
BBX 21 23 -1 0
BITMAP
003080
007180
007300
003E00
000000
0E0C70
1F3CF8
1F3DB0
01B900
01BB00
01BA00
01FE00
01FE00
07FF80
1F77C0
1C73C0
3CF3C0
38F380
38E380
38E380
39E780
79E780
F1E3C0
ENDCHAR
STARTCHAR uni04C2
ENCODING 1218
SWIDTH 882 0
DWIDTH 21 0
BBX 23 17 -1 0
BITMAP
002080
007180
007300
003E00
000000
1E1C78
3F1CFC
673DCC
0339C8
033980
07FF80
077B80
077380
C67382
CE7384
CC73D8
78F1E0
ENDCHAR
STARTCHAR uni04CB
ENCODING 1227
SWIDTH 695 0
DWIDTH 17 0
BBX 17 21 0 -3
BITMAP
03C380
0F8380
3B8780
778780
678700
E78700
E70700
670F00
278F00
07FE00
03EE00
001E00
001E00
001E00
001C00
001C00
003C00
087C00
0FE000
078000
070000
ENDCHAR
STARTCHAR uni04CC
ENCODING 1228
SWIDTH 516 0
DWIDTH 12 0
BBX 12 18 1 -6
BITMAP
71C0
73C0
F3C0
F3C0
E380
E780
FF80
7790
0710
07B0
07E0
03C0
0100
0300
7E00
FE00
FC00
8000
ENDCHAR
STARTCHAR uni04CF
ENCODING 1231
SWIDTH 267 0
DWIDTH 6 0
BBX 7 17 0 0
BITMAP
0C
3C
3C
38
38
38
78
78
70
70
F0
F0
E2
E2
FE
FC
70
ENDCHAR
STARTCHAR uni04D0
ENCODING 1232
SWIDTH 668 0
DWIDTH 16 0
BBX 20 25 0 -2
BITMAP
000C30
001C20
001CC0
000F80
000000
000780
001F00
003700
006F00
00CF00
018F00
018E00
3FCE00
777E00
E61E00
EE1C00
0E1C00
1C1C00
1C3C00
1C3C00
383800
383800
387800
380000
380000
ENDCHAR
STARTCHAR uni04D1
ENCODING 1233
SWIDTH 526 0
DWIDTH 13 0
BBX 14 17 0 0
BITMAP
0610
0E10
0E60
07C0
0000
0EF0
3DE0
78E0
71E0
F1E0
F1C0
E1C0
E3C4
E3C8
F7C8
FDF0
79E0
ENDCHAR
STARTCHAR uni04D2
ENCODING 1234
SWIDTH 668 0
DWIDTH 16 0
BBX 19 25 0 -2
BITMAP
000C60
000EE0
000CE0
000000
000000
000780
001F00
003700
006F00
00CF00
018F00
018E00
3FCE00
777E00
E61E00
EE1C00
0E1C00
1C1C00
1C3C00
1C3C00
383800
383800
387800
380000
380000
ENDCHAR
STARTCHAR uni04D3
ENCODING 1235
SWIDTH 526 0
DWIDTH 13 0
BBX 14 17 0 0
BITMAP
0660
0770
0670
0000
0000
0EF0
3DE0
78E0
71E0
F1E0
F1C0
E1C0
E3C4
E3C8
F7C8
FDF0
79E0
ENDCHAR
STARTCHAR uni04D4
ENCODING 1236
SWIDTH 764 0
DWIDTH 18 0
BBX 22 20 0 -2
BITMAP
000784
001FF8
003778
006F00
00CF00
018F00
018E00
3F8E00
777FE0
E61FC0
EE1C00
0E1C00
1C1C00
1C3C00
1C3C00
383FE0
383FE0
387FC0
380000
380000
ENDCHAR
STARTCHAR uni04D5
ENCODING 1237
SWIDTH 650 0
DWIDTH 16 0
BBX 16 12 0 0
BITMAP
0F3C
3BFE
21E6
01E6
01CE
3FDC
FBF8
E3C0
E3C1
E7C2
FDFC
79F0
ENDCHAR
STARTCHAR uni04D6
ENCODING 1238
SWIDTH 459 0
DWIDTH 11 0
BBX 13 23 0 0
BITMAP
0308
0708
0730
03E0
0000
03C0
07E0
0E30
1C30
1C60
1C00
1E00
0F80
1E00
3C00
7800
7800
F000
F010
F820
F8C0
7F80
3E00
ENDCHAR
STARTCHAR uni04D7
ENCODING 1239
SWIDTH 384 0
DWIDTH 9 0
BBX 11 17 0 0
BITMAP
1860
1C40
3980
1F00
0000
0F00
3F80
7980
7180
F300
F600
FC00
E000
E040
E080
FF00
7C00
ENDCHAR
STARTCHAR uni04D8
ENCODING 1240
SWIDTH 544 0
DWIDTH 13 0
BBX 13 18 0 0
BITMAP
07C0
1FE0
3FF0
30F8
2078
0078
0078
0078
03F8
0E78
3CF0
38F0
70E0
71E0
E1C0
6380
7700
3E00
ENDCHAR
STARTCHAR uni04D9
ENCODING 1241
SWIDTH 404 0
DWIDTH 10 0
BBX 9 12 0 0
BITMAP
1E00
7F80
4780
0380
0380
1F80
7780
6780
C700
CE00
FC00
7800
ENDCHAR
STARTCHAR uni04DC
ENCODING 1244
SWIDTH 777 0
DWIDTH 19 0
BBX 21 23 -1 0
BITMAP
003300
007380
003300
000000
000000
0E0C70
1F3CF8
1F3DB0
01B900
01BB00
01BA00
01FE00
01FE00
07FF80
1F77C0
1C73C0
3CF3C0
38F380
38E380
38E380
39E780
79E780
F1E3C0
ENDCHAR
STARTCHAR uni04DD
ENCODING 1245
SWIDTH 882 0
DWIDTH 21 0
BBX 23 17 -1 0
BITMAP
003300
007380
003300
000000
000000
1E1C78
3F1CFC
673DCC
0339C8
033980
07FF80
077B80
077380
C67382
CE7384
CC73D8
78F1E0
ENDCHAR
STARTCHAR uni04DE
ENCODING 1246
SWIDTH 525 0
DWIDTH 13 0
BBX 12 23 0 0
BITMAP
0330
0730
0330
0000
0000
07C0
0DE0
10F0
20F0
00F0
01E0
03C0
0F00
03C0
01E0
01E0
01E0
41E0
E1E0
C1E0
C3C0
F780
7E00
ENDCHAR
STARTCHAR uni04DF
ENCODING 1247
SWIDTH 498 0
DWIDTH 12 0
BBX 13 23 0 -6
BITMAP
0CC0
0EE0
0CC0
0000
0000
0F80
1FC0
33C0
61C0
41C0
43C0
8380
0708
1E08
0F10
0720
07C0
0F80
3F00
2700
6F00
6E00
3C00
ENDCHAR
STARTCHAR uni04E2
ENCODING 1250
SWIDTH 705 0
DWIDTH 17 0
BBX 18 21 0 0
BITMAP
007F00
008000
000000
03C3C0
0F8780
3B8780
778F80
678F80
E79F00
E71700
673700
2F6F00
0F6F00
0ECE00
0ECE00
0F9E00
1F1E00
1F1E00
1E1C00
1E1C00
3C3C00
ENDCHAR
STARTCHAR uni04E3
ENCODING 1251
SWIDTH 505 0
DWIDTH 12 0
BBX 13 15 0 0
BITMAP
1FE0
0000
0000
79E0
79E0
79C0
71C0
71C0
F3C0
F3C0
E380
E388
F790
FBF0
71C0
ENDCHAR
STARTCHAR uni04E4
ENCODING 1252
SWIDTH 705 0
DWIDTH 17 0
BBX 18 23 0 0
BITMAP
006200
007700
006700
000000
000000
03C3C0
0F8780
3B8780
778F80
678F80
E79F00
E71700
673700
2F6F00
0F6F00
0ECE00
0ECE00
0F9E00
1F1E00
1F1E00
1E1C00
1E1C00
3C3C00
ENDCHAR
STARTCHAR uni04E5
ENCODING 1253
SWIDTH 505 0
DWIDTH 12 0
BBX 13 17 0 0
BITMAP
0CC0
1CE0
0CC0
0000
0000
79E0
79E0
79C0
71C0
71C0
F3C0
F3C0
E380
E388
F790
FBF0
71C0
ENDCHAR
STARTCHAR uni04E6
ENCODING 1254
SWIDTH 665 0
DWIDTH 16 0
BBX 16 23 0 0
BITMAP
0066
00E7
0066
0000
0000
01F8
0FBC
184E
338E
678F
6707
EF0F
6E0F
3E0F
1E0E
1C0E
1C1E
1C1C
1C3C
1C38
1E70
1FE0
07C0
ENDCHAR
STARTCHAR uni04E7
ENCODING 1255
SWIDTH 439 0
DWIDTH 11 0
BBX 13 17 0 0
BITMAP
0CC0
0EE0
0CC0
0000
0000
0F00
3D80
3988
7198
F1E0
F180
E180
E180
E300
E700
FE00
7C00
ENDCHAR
STARTCHAR uni04E8
ENCODING 1256
SWIDTH 665 0
DWIDTH 16 0
BBX 16 18 0 0
BITMAP
01F8
0FBC
38CE
738E
6787
E707
EF0F
6E0F
1FFF
1E0E
1C0E
1C1E
1C1C
1C3C
1C38
1C70
1EE0
07C0
ENDCHAR
STARTCHAR uni04E9
ENCODING 1257
SWIDTH 439 0
DWIDTH 11 0
BBX 13 12 0 0
BITMAP
0F00
3D80
3988
7198
F1E0
FF80
E180
E180
E300
E700
FE00
7C00
ENDCHAR
STARTCHAR uni04EE
ENCODING 1262
SWIDTH 644 0
DWIDTH 15 0
BBX 17 21 0 0
BITMAP
007F80
000000
000000
03C180
0FC180
3BC100
71C300
61E200
E1E600
E1E400
E0EC00
60FC00
00F800
00F800
007000
007000
006000
006000
074000
07C000
078000
ENDCHAR
STARTCHAR uni04EF
ENCODING 1263
SWIDTH 486 0
DWIDTH 12 0
BBX 13 21 0 -6
BITMAP
1FE0
0000
0000
79E0
79E0
79C0
71C0
71C0
F3C0
F3C0
E388
E390
F790
FFA0
77C0
0F00
3700
6F00
4F00
7E00
3C00
ENDCHAR
STARTCHAR uni04F0
ENCODING 1264
SWIDTH 644 0
DWIDTH 15 0
BBX 17 23 0 0
BITMAP
002300
007700
007300
000000
000000
03C180
0FC180
3BC100
71C300
61E200
E1E600
E1E400
E0EC00
60FC00
00F800
00F800
007000
007000
006000
006000
074000
07C000
078000
ENDCHAR
STARTCHAR uni04F1
ENCODING 1265
SWIDTH 486 0
DWIDTH 12 0
BBX 13 23 0 -6
BITMAP
0CC0
1CE0
0CC0
0000
0000
79E0
79E0
79C0
71C0
71C0
F3C0
F3C0
E388
E390
F790
FFA0
77C0
0F00
3700
6F00
4F00
7E00
3C00
ENDCHAR
STARTCHAR uni04F2
ENCODING 1266
SWIDTH 644 0
DWIDTH 15 0
BBX 18 23 0 0
BITMAP
001DC0
001980
003300
006600
000000
03C180
0FC180
3BC100
71C300
61E200
E1E600
E1E400
E0EC00
60FC00
00F800
00F800
007000
007000
006000
006000
074000
07C000
078000
ENDCHAR
STARTCHAR uni04F3
ENCODING 1267
SWIDTH 486 0
DWIDTH 12 0
BBX 13 23 0 -6
BITMAP
0770
0660
0CC0
0980
0000
79E0
79E0
79C0
71C0
71C0
F3C0
F3C0
E388
E390
F790
FFA0
77C0
0F00
3700
6F00
4F00
7E00
3C00
ENDCHAR
STARTCHAR uni04F4
ENCODING 1268
SWIDTH 695 0
DWIDTH 17 0
BBX 17 23 0 0
BITMAP
006300
007700
006300
000000
000000
03C380
0F8380
3B8780
778780
678700
E70700
E70700
670F00
078F00
07FE00
03EE00
001E00
001E00
001E00
001C00
001C00
003C00
003C00
ENDCHAR
STARTCHAR uni04F5
ENCODING 1269
SWIDTH 505 0
DWIDTH 12 0
BBX 12 17 1 0
BITMAP
1980
39C0
1980
0000
0000
F3C0
F3C0
F380
E380
E780
E780
FF80
7710
0710
07E0
07C0
0380
ENDCHAR
STARTCHAR uni04F6
ENCODING 1270
SWIDTH 442 0
DWIDTH 11 0
BBX 15 22 0 -4
BITMAP
07FE
1FFE
33BC
6380
E780
E780
E700
6700
0F00
0F00
0E00
0E00
0E00
1E00
1E00
1C00
1C00
1C00
2700
07C0
03C0
0380
ENDCHAR
STARTCHAR uni04F7
ENCODING 1271
SWIDTH 375 0
DWIDTH 9 0
BBX 11 18 -1 -6
BITMAP
0F00
3F80
2780
4380
4780
0F00
3C00
7820
7040
F080
7F00
3E00
1800
1800
3C00
1C00
1800
1000
ENDCHAR
STARTCHAR uni04F8
ENCODING 1272
SWIDTH 909 0
DWIDTH 22 0
BBX 23 23 0 0
BITMAP
000CC0
001CE0
000CC0
000000
000000
03C01E
1F801C
33801C
67803C
67803C
E70038
E70038
67F878
0F3C78
0F1C78
0E1C70
0E1E70
0E1CF0
1E1CF0
1E1CE0
1D38E0
1DF8E0
3CE1E0
ENDCHAR
STARTCHAR uni04F9
ENCODING 1273
SWIDTH 642 0
DWIDTH 15 0
BBX 16 17 0 0
BITMAP
0220
0770
0730
0000
0000
380C
783C
707C
77BC
7738
7138
F1B8
E338
E379
E77B
FE3E
7C3C
ENDCHAR
STARTCHAR uni051A
ENCODING 1306
SWIDTH 665 0
DWIDTH 16 0
BBX 16 20 0 -2
BITMAP
01F8
0FBC
184E
338E
678F
6707
EF0F
6E0F
3E0F
1E0E
1C0E
1C1E
1C1C
1C3C
1FB8
1EF8
1EF0
07F0
007E
003C
ENDCHAR
STARTCHAR uni051B
ENCODING 1307
SWIDTH 486 0
DWIDTH 12 0
BBX 12 18 0 -6
BITMAP
0EF0
3DE0
78E0
71E0
F1E0
F1C0
E1C0
E3C0
E3C0
F780
FF80
7B80
0780
0780
0700
0700
0F00
0800
ENDCHAR
STARTCHAR uni051C
ENCODING 1308
SWIDTH 962 0
DWIDTH 23 0
BBX 25 18 0 0
BITMAP
03C1C180
1FC3C100
33C3C300
63C3C200
63C7C200
E3C7C600
C3C7C400
C3CFC400
23CBCC00
03CBC800
03DBC800
03D3D800
03D1D000
03E1F000
03E1E000
03E1E000
03C1E000
03C1C000
ENDCHAR
STARTCHAR uni051D
ENCODING 1309
SWIDTH 661 0
DWIDTH 16 0
BBX 16 12 0 0
BITMAP
79E6
79EF
79C2
71C2
71C2
F3C6
F3C6
E384
E38C
F798
FBF0
71E0
ENDCHAR
STARTCHAR uni0524
ENCODING 1316
SWIDTH 742 0
DWIDTH 18 0
BBX 19 22 0 -4
BITMAP
07FFE0
1FFFE0
339FC0
678F00
E78F00
E78F00
E70E00
670E00
0F1E00
0F1E00
0E1C00
0E1C00
0E1C00
1E3C00
1E3C00
1C3800
1C3800
3C7800
001E00
000F80
000F80
000700
ENDCHAR
STARTCHAR uni0525
ENCODING 1317
SWIDTH 505 0
DWIDTH 12 0
BBX 14 18 -1 -6
BITMAP
1FC0
3FE0
3CE0
38E0
38E0
79E0
79E0
71C4
71C4
71E8
F1F8
F0E0
0040
00E0
00E0
00E0
0040
0040
ENDCHAR
STARTCHAR uni1E0C
ENCODING 7692
SWIDTH 663 0
DWIDTH 16 0
BBX 15 24 0 -6
BITMAP
03F0
1F7C
381C
778E
678E
E70E
C70E
C70E
2F0E
0F0E
0E0E
0E1E
1E1C
1E3C
1C38
1C78
1FF0
3DE0
0000
0000
0700
0700
0F00
0700
ENDCHAR
STARTCHAR uni1E0D
ENCODING 7693
SWIDTH 525 0
DWIDTH 13 0
BBX 14 23 0 -6
BITMAP
0008
0070
0070
00F0
00F0
0EE0
3DE0
78E0
71E0
F1E0
F1C0
E1C0
E3C4
E3C8
F7C8
FDF0
79E0
0000
0000
1800
3C00
3C00
1800
ENDCHAR
STARTCHAR uni1E20
ENCODING 7712
SWIDTH 578 0
DWIDTH 14 0
BBX 14 26 0 -4
BITMAP
03FC
0000
0000
0000
03F0
0FF8
1E1C
3C1C
7C38
7810
7800
7000
F038
F038
7078
7070
78F0
3F70
00F0
00E0
00E0
3EE0
31C0
31C0
3380
1F00
ENDCHAR
STARTCHAR uni1E21
ENCODING 7713
SWIDTH 507 0
DWIDTH 12 0
BBX 13 23 0 -6
BITMAP
0FF0
1000
0000
0000
0000
0EF0
3DE0
78E0
71E0
F1E0
F1C0
E1C0
E3C0
E3C8
F790
FFB0
7BE0
0F80
1F80
2700
2700
3F00
1C00
ENDCHAR
STARTCHAR uni1E24
ENCODING 7716
SWIDTH 665 0
DWIDTH 16 0
BBX 17 24 0 -6
BITMAP
03C780
0F8700
1F8700
338700
678F00
E78F00
E70E00
E70E00
67FE00
0FFE00
0F1C00
0E1C00
0E1C00
1E3C00
1E3C00
1C3800
1C3800
3C7800
000000
000000
030000
078000
078000
030000
ENDCHAR
STARTCHAR uni1E25
ENCODING 7717
SWIDTH 505 0
DWIDTH 12 0
BBX 14 23 -1 -6
BITMAP
0200
1E00
1E00
1C00
1C00
1DC0
3FE0
3CE0
3CE0
38E0
78E0
79E0
79C0
71C4
71C8
F1F8
F0E0
0000
0000
0C00
1E00
1E00
0C00
ENDCHAR
STARTCHAR uni1E2A
ENCODING 7722
SWIDTH 665 0
DWIDTH 16 0
BBX 17 23 0 -5
BITMAP
03C780
0F8700
3B8700
778F00
678F00
E78F00
E70E00
67FE00
2FFE00
0F1E00
0E1C00
0E1C00
0E1C00
1E3C00
1E3C00
1C3800
1C3800
3C7800
000000
000000
186000
1CE000
0F8000
ENDCHAR
STARTCHAR uni1E2B
ENCODING 7723
SWIDTH 505 0
DWIDTH 12 0
BBX 14 22 -1 -5
BITMAP
0200
1E00
1E00
1C00
1C00
1DC0
3FE0
3CE0
3CE0
38E0
78E0
79E0
79C0
71C4
71C8
F1F8
F0E0
0000
0000
6180
7300
3E00
ENDCHAR
STARTCHAR uni1E36
ENCODING 7734
SWIDTH 379 0
DWIDTH 9 0
BBX 16 24 0 -6
BITMAP
03C0
1F80
3380
6780
6780
E700
C700
CF00
2F00
0E00
0E00
0E00
1E00
1E00
1C00
1C00
3C00
3E00
0780
03C0
38F0
387F
383E
380E
ENDCHAR
STARTCHAR uni1E37
ENCODING 7735
SWIDTH 293 0
DWIDTH 7 0
BBX 8 22 0 -6
BITMAP
0E
1C
1C
1C
3C
3C
38
38
78
78
78
70
F1
F1
7E
78
00
00
E0
F0
F0
E0
ENDCHAR
STARTCHAR uni1E42
ENCODING 7746
SWIDTH 787 0
DWIDTH 19 0
BBX 17 24 2 -6
BITMAP
078380
1B8780
378780
678F80
C78F80
CF8F80
CF9F00
DF9F00
1FB700
1FB700
37AF00
37EF00
37EF00
67CE00
67CE00
478E00
C78E00
C79E00
000000
000000
060000
0F0000
0F0000
060000
ENDCHAR
STARTCHAR uni1E43
ENCODING 7747
SWIDTH 752 0
DWIDTH 18 0
BBX 20 18 -1 -6
BITMAP
1FEF00
3FFF80
3CF380
38E380
39E380
79E780
79E780
71C700
71C710
73C720
F3C7E0
F3C380
000000
000000
038000
078000
078000
038000
ENDCHAR
STARTCHAR uni1E44
ENCODING 7748
SWIDTH 668 0
DWIDTH 16 0
BBX 17 23 0 0
BITMAP
000C00
001E00
001E00
001C00
000000
078180
1FC180
33C380
67C300
E7C300
E7C300
E7E300
E6E700
6EE600
0CE600
0CF600
0CF600
1C7E00
1C7C00
187C00
187C00
183C00
383800
ENDCHAR
STARTCHAR uni1E45
ENCODING 7749
SWIDTH 505 0
DWIDTH 12 0
BBX 14 18 -1 0
BITMAP
01C0
01C0
03C0
01C0
0000
0000
1FC0
3FE0
3CE0
38E0
38E0
79E0
79E0
71C0
71C4
71C8
F1F8
F0F0
ENDCHAR
STARTCHAR uni1E46
ENCODING 7750
SWIDTH 668 0
DWIDTH 16 0
BBX 17 24 0 -6
BITMAP
078180
1FC180
33C380
67C300
E7C300
E7C300
E7E300
E6E700
6EE600
0CE600
0CF600
0CF600
1C7E00
1C7C00
187C00
187C00
183C00
383800
000000
000000
030000
078000
078000
030000
ENDCHAR
STARTCHAR uni1E47
ENCODING 7751
SWIDTH 505 0
DWIDTH 12 0
BBX 14 18 -1 -6
BITMAP
1FC0
3FE0
3CE0
38E0
38E0
79E0
79E0
71C0
71C4
71C8
F1F8
F0F0
0000
0000
0C00
1E00
1E00
0C00
ENDCHAR
STARTCHAR uni1E5A
ENCODING 7770
SWIDTH 601 0
DWIDTH 14 0
BBX 14 24 0 -6
BITMAP
03E0
0F78
381C
779C
679C
E71C
C718
C770
6FF0
0F78
0E38
0E38
1E38
1E78
1E70
1C70
1C70
3C78
0000
0000
0300
0780
0780
0300
ENDCHAR
STARTCHAR uni1E5B
ENCODING 7771
SWIDTH 376 0
DWIDTH 9 0
BBX 10 18 -1 -6
BITMAP
1DC0
3FC0
3CC0
3800
3800
7800
7800
7000
7000
7000
F000
F000
0000
0000
6000
F000
F000
6000
ENDCHAR
STARTCHAR uni1E60
ENCODING 7776
SWIDTH 570 0
DWIDTH 14 0
BBX 12 24 1 0
BITMAP
00C0
01E0
01E0
00C0
0000
0000
07C0
0FF0
1C30
1C30
1C70
1E20
1E00
0F00
0780
03C0
13E0
79E0
E0E0
E0E0
E0E0
E1C0
7F80
3F00
ENDCHAR
STARTCHAR uni1E61
ENCODING 7777
SWIDTH 382 0
DWIDTH 9 0
BBX 11 18 -1 0
BITMAP
0300
0780
0780
0300
0000
0000
0F00
0F00
0F00
1700
1700
3700
2700
6780
E7A0
C7C0
7F00
3C00
ENDCHAR
STARTCHAR uni1E62
ENCODING 7778
SWIDTH 570 0
DWIDTH 14 0
BBX 12 24 1 -6
BITMAP
07C0
0FF0
1C30
1C30
1C70
1E20
1E00
0F00
0780
03C0
13E0
79E0
E0E0
E0E0
E0E0
E1C0
7F80
3F00
0000
0000
1800
3C00
3C00
1800
ENDCHAR
STARTCHAR uni1E63
ENCODING 7779
SWIDTH 382 0
DWIDTH 9 0
BBX 11 18 -1 -6
BITMAP
0700
0F00
0F00
1F00
1700
3700
2700
6700
E7A0
C7C0
7F00
3C00
0000
0000
3000
7800
7800
7000
ENDCHAR
STARTCHAR uni1E6C
ENCODING 7788
SWIDTH 481 0
DWIDTH 12 0
BBX 17 24 0 -6
BITMAP
07F080
1FFF80
31FF80
61CF00
E1C000
C3C000
C3C000
C3C000
638000
038000
078000
078000
070000
070000
0F0000
0F0000
0F0000
0E0000
000000
000000
0C0000
1E0000
1E0000
0C0000
ENDCHAR
STARTCHAR uni1E6D
ENCODING 7789
SWIDTH 267 0
DWIDTH 6 0
BBX 8 22 -1 -6
BITMAP
06
1E
1C
1C
3F
3C
3C
38
38
38
78
78
71
73
7E
38
00
00
60
F0
F0
60
ENDCHAR
STARTCHAR Wgrave
ENCODING 7808
SWIDTH 962 0
DWIDTH 23 0
BBX 25 23 0 0
BITMAP
00038000
00038000
00018000
00018000
00000000
03C1C180
1FC3C100
33C3C300
63C3C200
63C7C200
E3C7C600
C3C7C400
C3CFC400
23CBCC00
03CBC800
03DBC800
03D3D800
03D1D000
03E1F000
03E1E000
03E1E000
03C1E000
03C1C000
ENDCHAR
STARTCHAR wgrave
ENCODING 7809
SWIDTH 661 0
DWIDTH 16 0
BBX 16 18 0 0
BITMAP
0380
0180
0180
0180
0000
0000
79E6
79EF
79C2
71C2
71C2
F3C6
F3C6
E384
E38C
F798
FBF0
71E0
ENDCHAR
STARTCHAR Wacute
ENCODING 7810
SWIDTH 962 0
DWIDTH 23 0
BBX 25 24 0 0
BITMAP
00003000
00007000
00006000
0000C000
0000C000
00000000
03C1C180
1FC3C100
33C3C300
63C3C200
63C7C200
E3C7C600
C3C7C400
C3CFC400
23CBCC00
03CBC800
03DBC800
03D3D800
03D1D000
03E1F000
03E1E000
03E1E000
03C1E000
03C1C000
ENDCHAR
STARTCHAR wacute
ENCODING 7811
SWIDTH 661 0
DWIDTH 16 0
BBX 16 18 0 0
BITMAP
0038
0030
0060
0060
00C0
0000
79E6
79EF
79C2
71C2
71C2
F3C6
F3C6
E384
E38C
F798
FBF0
71E0
ENDCHAR
STARTCHAR Wdieresis
ENCODING 7812
SWIDTH 962 0
DWIDTH 23 0
BBX 25 22 0 0
BITMAP
00067000
00077000
00063000
00000000
03C1C180
1FC3C100
33C3C300
63C3C200
63C7C200
E3C7C600
C3C7C400
C3CFC400
23CBCC00
03CBC800
03DBC800
03D3D800
03D1D000
03E1F000
03E1E000
03E1E000
03C1E000
03C1C000
ENDCHAR
STARTCHAR wdieresis
ENCODING 7813
SWIDTH 661 0
DWIDTH 16 0
BBX 16 17 0 0
BITMAP
0330
0738
0330
0000
0000
79E6
79EF
79C2
71C2
71C2
F3C6
F3C6
E384
E38C
F798
FBF0
71E0
ENDCHAR
STARTCHAR uni1E8E
ENCODING 7822
SWIDTH 620 0
DWIDTH 15 0
BBX 17 23 0 0
BITMAP
001C00
001C00
001E00
001C00
000000
03C180
1FC100
33C300
63C200
61E600
E1E400
C1E400
C1E800
20F800
00F800
00F000
00F000
00F000
00E000
01E000
01E000
01E000
01E000
ENDCHAR
STARTCHAR uni1E8F
ENCODING 7823
SWIDTH 505 0
DWIDTH 12 0
BBX 13 24 0 -6
BITMAP
0300
0780
0780
0300
0000
0000
79E0
79E0
79C0
71C0
71C0
F3C0
F3C0
E388
E390
F790
FFA0
77C0
0F00
3700
6F00
4F00
7E00
3C00
ENDCHAR
STARTCHAR uni1E92
ENCODING 7826
SWIDTH 542 0
DWIDTH 13 0
BBX 13 29 0 -6
BITMAP
0018
0030
0030
0060
0060
1FF8
3C78
38F0
30F0
01E0
01E0
03C0
03C0
0780
0780
0F00
0F00
1E00
1E00
3C30
3C70
78F0
FFE0
0000
0000
0C00
1E00
1E00
0C00
ENDCHAR
STARTCHAR uni1E93
ENCODING 7827
SWIDTH 428 0
DWIDTH 10 0
BBX 10 18 0 -6
BITMAP
1FC0
3380
7380
2700
0F00
0E00
1E00
1C00
3800
7980
7F80
FF00
0000
0000
3000
7800
7800
3000
ENDCHAR
STARTCHAR uni1E97
ENCODING 7831
SWIDTH 267 0
DWIDTH 6 0
BBX 8 19 0 0
BITMAP
33
77
33
00
3C
38
38
7E
78
78
70
70
70
F0
F0
E2
E6
FC
70
ENDCHAR
STARTCHAR uni1E9E
ENCODING 7838
SWIDTH 559 0
DWIDTH 13 0
BBX 15 24 -1 -6
BITMAP
01FE
079E
073C
0F3C
0E78
1E78
1E70
1CF0
1DE0
3C70
3C70
3C78
3838
3838
7878
7870
77F0
73C0
7000
F000
F000
E000
E000
8000
ENDCHAR
STARTCHAR uni1EA0
ENCODING 7840
SWIDTH 668 0
DWIDTH 16 0
BBX 17 24 0 -6
BITMAP
000780
001F00
003F00
007700
006F00
00CF00
018E00
018E00
3FCE00
773E00
E61C00
6E1C00
0E1C00
1C3C00
1C3C00
1C3800
383800
387800
380000
380000
18C000
01E000
01E000
00C000
ENDCHAR
STARTCHAR uni1EA1
ENCODING 7841
SWIDTH 526 0
DWIDTH 13 0
BBX 14 18 0 -6
BITMAP
0EF0
3DE0
78E0
71E0
F1E0
F1C0
E1C0
E3C4
E3C8
F7C8
FDF0
79E0
0000
0000
1800
3C00
3C00
1800
ENDCHAR
STARTCHAR uni1EA2
ENCODING 7842
SWIDTH 668 0
DWIDTH 16 0
BBX 18 26 0 -2
BITMAP
000780
0004C0
0000C0
000080
000300
000000
000780
001F00
003700
006F00
00CF00
018F00
018E00
3FCE00
777E00
E61E00
EE1C00
0E1C00
1C1C00
1C3C00
1C3C00
383800
383800
387800
380000
380000
ENDCHAR
STARTCHAR uni1EA3
ENCODING 7843
SWIDTH 526 0
DWIDTH 13 0
BBX 14 18 0 0
BITMAP
03C0
0160
0060
0180
0000
0000
0EF0
3DE0
78E0
71E0
F1E0
F1C0
E1C0
E3C4
E3C8
F7C8
FDF0
79E0
ENDCHAR
STARTCHAR uni1EA4
ENCODING 7844
SWIDTH 668 0
DWIDTH 16 0
BBX 21 26 0 -2
BITMAP
000018
0000B0
0001A0
0002E0
000CC0
000000
000780
001F00
003700
006F00
00CF00
018F00
018E00
3FCE00
777E00
E61E00
EE1C00
0E1C00
1C1C00
1C3C00
1C3C00
383800
383800
387800
380000
380000
ENDCHAR
STARTCHAR uni1EA5
ENCODING 7845
SWIDTH 526 0
DWIDTH 13 0
BBX 15 21 0 0
BITMAP
000E
000C
0018
0090
01C0
03C0
0640
0800
0000
0EF0
3DE0
78E0
71E0
F1E0
F1C0
E1C0
E3C4
E3C8
F7C8
FDF0
79E0
ENDCHAR
STARTCHAR uni1EA6
ENCODING 7846
SWIDTH 668 0
DWIDTH 16 0
BBX 20 26 0 -2
BITMAP
000060
0001A0
0003B0
000480
000840
000000
000780
001F00
003700
006F00
00CF00
018F00
018E00
3FCE00
777E00
E61E00
EE1C00
0E1C00
1C1C00
1C3C00
1C3C00
383800
383800
387800
380000
380000
ENDCHAR
STARTCHAR uni1EA7
ENCODING 7847
SWIDTH 526 0
DWIDTH 13 0
BBX 14 20 0 0
BITMAP
0030
0010
0098
01D8
03C0
0640
0800
0000
0EF0
3DE0
78E0
71E0
F1E0
F1C0
E1C0
E3C4
E3C8
F7C8
FDF0
79E0
ENDCHAR
STARTCHAR uni1EA8
ENCODING 7848
SWIDTH 668 0
DWIDTH 16 0
BBX 21 26 0 -2
BITMAP
000070
000098
0001B0
0006A0
000CC0
000000
000780
001F00
003700
006F00
00CF00
018F00
018E00
3FCE00
777E00
E61E00
EE1C00
0E1C00
1C1C00
1C3C00
1C3C00
383800
383800
387800
380000
380000
ENDCHAR
STARTCHAR uni1EA9
ENCODING 7849
SWIDTH 526 0
DWIDTH 13 0
BBX 14 20 0 0
BITMAP
0038
000C
0090
01C0
0340
0640
0800
0000
0EF0
3DE0
78E0
71E0
F1E0
F1C0
E1C0
E3C4
E3C8
F7C8
FDF0
79E0
ENDCHAR
STARTCHAR uni1EAA
ENCODING 7850
SWIDTH 668 0
DWIDTH 16 0
BBX 20 26 0 -2
BITMAP
000110
0007E0
000180
000380
000CC0
000000
000780
001F00
003700
006F00
00CF00
018F00
018E00
3FCE00
777E00
E61E00
EE1C00
0E1C00
1C1C00
1C3C00
1C3C00
383800
383800
387800
380000
380000
ENDCHAR
STARTCHAR uni1EAB
ENCODING 7851
SWIDTH 526 0
DWIDTH 13 0
BBX 14 20 0 0
BITMAP
03F8
0000
0080
01C0
03C0
0640
0800
0000
0EF0
3DE0
78E0
71E0
F1E0
F1C0
E1C0
E3C4
E3C8
F7C8
FDF0
79E0
ENDCHAR
STARTCHAR uni1EAC
ENCODING 7852
SWIDTH 668 0
DWIDTH 16 0
BBX 18 29 0 -6
BITMAP
000080
000180
0003C0
000C40
001040
000780
001F00
003F00
007700
006F00
00CF00
018E00
018E00
3FCE00
773E00
E61C00
6E1C00
0E1C00
1C3C00
1C3C00
1C3800
383800
387800
380000
380000
18C000
01E000
01E000
00C000
ENDCHAR
STARTCHAR uni1EAD
ENCODING 7853
SWIDTH 526 0
DWIDTH 13 0
BBX 14 24 0 -6
BITMAP
00C0
01C0
03C0
0640
0820
0000
0EF0
3DE0
78E0
71E0
F1E0
F1C0
E1C0
E3C4
E3C8
F7C8
FDF0
79E0
0000
0000
1800
3C00
3C00
1800
ENDCHAR
STARTCHAR uni1EAE
ENCODING 7854
SWIDTH 668 0
DWIDTH 16 0
BBX 19 26 0 -2
BITMAP
0000C0
000080
000180
000D60
0007C0
000000
000780
001F00
003700
006F00
00CF00
018F00
018E00
3FCE00
777E00
E61E00
EE1C00
0E1C00
1C1C00
1C3C00
1C3C00
383800
383800
387800
380000
380000
ENDCHAR
STARTCHAR uni1EAF
ENCODING 7855
SWIDTH 526 0
DWIDTH 13 0
BBX 14 20 0 0
BITMAP
0060
00C0
0080
0D30
0C60
07C0
0000
0000
0EF0
3DE0
78E0
71E0
F1E0
F1C0
E1C0
E3C4
E3C8
F7C8
FDF0
79E0
ENDCHAR
STARTCHAR uni1EB0
ENCODING 7856
SWIDTH 668 0
DWIDTH 16 0
BBX 19 26 0 -2
BITMAP
000300
000300
000D60
000C60
000780
000000
000780
001F00
003700
006F00
00CF00
018F00
018E00
3FCE00
777E00
E61E00
EE1C00
0E1C00
1C1C00
1C3C00
1C3C00
383800
383800
387800
380000
380000
ENDCHAR
STARTCHAR uni1EB1
ENCODING 7857
SWIDTH 526 0
DWIDTH 13 0
BBX 14 20 0 0
BITMAP
0300
0100
0100
0DB0
0C60
07C0
0000
0000
0EF0
3DE0
78E0
71E0
F1E0
F1C0
E1C0
E3C4
E3C8
F7C8
FDF0
79E0
ENDCHAR
STARTCHAR uni1EB2
ENCODING 7858
SWIDTH 668 0
DWIDTH 16 0
BBX 19 26 0 -2
BITMAP
000380
000080
000180
000D60
0007C0
000000
000780
001F00
003700
006F00
00CF00
018F00
018E00
3FCE00
777E00
E61E00
EE1C00
0E1C00
1C1C00
1C3C00
1C3C00
383800
383800
387800
380000
380000
ENDCHAR
STARTCHAR uni1EB3
ENCODING 7859
SWIDTH 526 0
DWIDTH 13 0
BBX 14 20 0 0
BITMAP
01C0
0040
01C0
0D30
0C60
07C0
0000
0000
0EF0
3DE0
78E0
71E0
F1E0
F1C0
E1C0
E3C4
E3C8
F7C8
FDF0
79E0
ENDCHAR
STARTCHAR uni1EB4
ENCODING 7860
SWIDTH 668 0
DWIDTH 16 0
BBX 19 26 0 -2
BITMAP
000100
0007E0
000880
000C60
0007C0
000000
000780
001F00
003700
006F00
00CF00
018F00
018E00
3FCE00
777E00
E61E00
EE1C00
0E1C00
1C1C00
1C3C00
1C3C00
383800
383800
387800
380000
380000
ENDCHAR
STARTCHAR uni1EB5
ENCODING 7861
SWIDTH 526 0
DWIDTH 13 0
BBX 14 20 0 0
BITMAP
03F0
0400
0000
0C30
0E60
07C0
0000
0000
0EF0
3DE0
78E0
71E0
F1E0
F1C0
E1C0
E3C4
E3C8
F7C8
FDF0
79E0
ENDCHAR
STARTCHAR uni1EB6
ENCODING 7862
SWIDTH 668 0
DWIDTH 16 0
BBX 20 28 0 -6
BITMAP
001830
001C60
000FC0
000000
000780
001F00
003F00
007700
006F00
00CF00
018E00
018E00
3FCE00
773E00
E61C00
6E1C00
0E1C00
1C3C00
1C3C00
1C3800
383800
387800
380000
380000
18C000
01E000
01E000
00C000
ENDCHAR
STARTCHAR uni1EB7
ENCODING 7863
SWIDTH 526 0
DWIDTH 13 0
BBX 14 23 0 -6
BITMAP
0C30
0C70
0FE0
0000
0000
0EF0
3DE0
78E0
71E0
F1E0
F1C0
E1C0
E3C4
E3C8
F7C8
FDF0
79E0
0000
0000
1800
3C00
3C00
1800
ENDCHAR
STARTCHAR uni1EB8
ENCODING 7864
SWIDTH 459 0
DWIDTH 11 0
BBX 12 24 0 -6
BITMAP
03C0
07E0
0E30
1C30
1C60
1C00
1E00
0F80
1E00
3C00
7800
7800
F000
F010
F820
F8C0
7F80
3E00
0000
0000
3800
3C00
3C00
3800
ENDCHAR
STARTCHAR uni1EB9
ENCODING 7865
SWIDTH 384 0
DWIDTH 9 0
BBX 10 18 0 -6
BITMAP
0F00
3F80
7980
7980
F300
F300
F600
F800
E040
E080
FF00
7C00
0000
0000
7000
7000
7000
7000
ENDCHAR
STARTCHAR uni1EBA
ENCODING 7866
SWIDTH 459 0
DWIDTH 11 0
BBX 12 24 0 0
BITMAP
01E0
00B0
0030
00C0
0000
0000
03C0
07E0
0E30
1C30
1C60
1C00
1E00
0F80
1E00
3C00
7800
7800
F000
F010
F820
F8C0
7F80
3E00
ENDCHAR
STARTCHAR uni1EBB
ENCODING 7867
SWIDTH 384 0
DWIDTH 9 0
BBX 10 18 0 0
BITMAP
0F80
0580
0180
0600
0000
0000
0F00
3F80
7980
7180
F300
F600
FC00
E000
E040
E080
FF00
7C00
ENDCHAR
STARTCHAR uni1EBC
ENCODING 7868
SWIDTH 459 0
DWIDTH 11 0
BBX 15 23 0 0
BITMAP
0082
03FC
07F8
0000
0000
03C0
07E0
0E30
1C30
1C60
1C00
1E00
0F80
1E00
3C00
7800
7800
F000
F010
F820
F8C0
7F80
3E00
ENDCHAR
STARTCHAR uni1EBD
ENCODING 7869
SWIDTH 384 0
DWIDTH 9 0
BBX 11 17 0 0
BITMAP
1E20
3FC0
4F80
0000
0000
0F00
3F80
7980
7180
F300
F600
FC00
E000
E040
E080
FF00
7C00
ENDCHAR
STARTCHAR uni1EBE
ENCODING 7870
SWIDTH 459 0
DWIDTH 11 0
BBX 15 24 0 0
BITMAP
0006
006C
00E8
01A0
0210
0000
03C0
07E0
0E30
1C30
1C60
1C00
1E00
0F80
1E00
3C00
7800
7800
F000
F010
F820
F8C0
7F80
3E00
ENDCHAR
STARTCHAR uni1EBF
ENCODING 7871
SWIDTH 384 0
DWIDTH 9 0
BBX 13 21 0 0
BITMAP
0018
0010
0030
0160
0300
0780
0C80
1000
0000
0F00
3F80
7980
7180
F300
F600
FC00
E000
E040
E080
FF00
7C00
ENDCHAR
STARTCHAR uni1EC0
ENCODING 7872
SWIDTH 459 0
DWIDTH 11 0
BBX 14 24 0 0
BITMAP
0018
0028
00EC
01A0
0210
0000
03C0
07E0
0E30
1C30
1C60
1C00
1E00
0F80
1E00
3C00
7800
7800
F000
F010
F820
F8C0
7F80
3E00
ENDCHAR
STARTCHAR uni1EC1
ENCODING 7873
SWIDTH 384 0
DWIDTH 9 0
BBX 12 20 0 0
BITMAP
0060
0020
0120
0330
0780
0C80
1080
0000
0F00
3F80
7980
7180
F300
F600
FC00
E000
E040
E080
FF00
7C00
ENDCHAR
STARTCHAR uni1EC2
ENCODING 7874
SWIDTH 459 0
DWIDTH 11 0
BBX 15 24 0 0
BITMAP
000E
0022
006E
01E8
0330
0000
03C0
07E0
0E30
1C30
1C60
1C00
1E00
0F80
1E00
3C00
7800
7800
F000
F010
F820
F8C0
7F80
3E00
ENDCHAR
STARTCHAR uni1EC3
ENCODING 7875
SWIDTH 384 0
DWIDTH 9 0
BBX 12 20 0 0
BITMAP
0070
0030
0160
0300
0780
0880
1000
0000
0F00
3F80
7980
7180
F300
F600
FC00
E000
E040
E080
FF00
7C00
ENDCHAR
STARTCHAR uni1EC4
ENCODING 7876
SWIDTH 459 0
DWIDTH 11 0
BBX 14 24 0 0
BITMAP
00FC
0178
00E0
01A0
0210
0000
03C0
07E0
0E30
1C30
1C60
1C00
1E00
0F80
1E00
3C00
7800
7800
F000
F010
F820
F8C0
7F80
3E00
ENDCHAR
STARTCHAR uni1EC5
ENCODING 7877
SWIDTH 384 0
DWIDTH 9 0
BBX 11 20 0 0
BITMAP
07E0
0000
0100
0300
0780
0C80
1000
0000
0F00
3F80
7980
7180
F300
F600
FC00
E000
E040
E080
FF00
7C00
ENDCHAR
STARTCHAR uni1EC6
ENCODING 7878
SWIDTH 459 0
DWIDTH 11 0
BBX 12 29 0 -6
BITMAP
0060
00E0
01E0
0330
0410
03C0
07E0
0E30
1C30
1C60
1C00
1E00
0F80
1E00
3C00
7800
7800
F000
F010
F820
F8C0
7F80
3E00
0000
0000
3800
3C00
3C00
3800
ENDCHAR
STARTCHAR uni1EC7
ENCODING 7879
SWIDTH 384 0
DWIDTH 9 0
BBX 10 24 0 -6
BITMAP
0100
0380
0780
0C80
1040
0000
0F00
3F80
7980
7980
F300
F300
F600
F800
E040
E080
FF00
7C00
0000
0000
7000
7000
7000
7000
ENDCHAR
STARTCHAR uni1EC8
ENCODING 7880
SWIDTH 375 0
DWIDTH 9 0
BBX 11 24 0 0
BITMAP
03C0
0160
0060
0040
0180
0000
03C0
1F80
3380
6780
6780
E700
C700
CF00
2F00
0F00
0E00
0E00
1E00
1E00
1C00
1C00
1C00
3C00
ENDCHAR
STARTCHAR uni1EC9
ENCODING 7881
SWIDTH 267 0
DWIDTH 6 0
BBX 7 18 0 0
BITMAP
3C
26
04
18
00
00
78
78
78
70
70
F0
F0
E0
E2
E6
FC
70
ENDCHAR
STARTCHAR uni1ECA
ENCODING 7882
SWIDTH 375 0
DWIDTH 9 0
BBX 10 24 0 -6
BITMAP
03C0
1F80
3380
6780
6780
E700
C700
CF00
2F00
0F00
0E00
0E00
1E00
1E00
1C00
1C00
1C00
3C00
0000
0000
3800
7800
7800
3800
ENDCHAR
STARTCHAR uni1ECB
ENCODING 7883
SWIDTH 267 0
DWIDTH 6 0
BBX 8 23 -1 -6
BITMAP
0C
1E
1E
0C
00
3C
3C
3C
38
38
78
78
70
71
73
7E
38
00
00
60
F0
F0
60
ENDCHAR
STARTCHAR uni1ECC
ENCODING 7884
SWIDTH 665 0
DWIDTH 16 0
BBX 16 24 0 -6
BITMAP
01F8
0FBC
184E
338E
678F
6707
EF0F
6E0F
3E0F
1E0E
1C0E
1C1E
1C1C
1C3C
1C38
1E70
1FE0
07C0
0000
0000
0700
0F00
0F00
0700
ENDCHAR
STARTCHAR uni1ECD
ENCODING 7885
SWIDTH 433 0
DWIDTH 10 0
BBX 13 18 0 -6
BITMAP
0F00
3F80
7988
7198
F3E0
E180
E180
E380
E300
E700
FE00
7800
0000
0000
7000
7000
7000
7000
ENDCHAR
STARTCHAR uni1ECE
ENCODING 7886
SWIDTH 665 0
DWIDTH 16 0
BBX 16 24 0 0
BITMAP
0078
002C
000C
0008
0030
0000
01F8
0FBC
184E
338E
678F
6707
EF0F
6E0F
3E0F
1E0E
1C0E
1C1E
1C1C
1C3C
1C38
1E70
1FE0
07C0
ENDCHAR
STARTCHAR uni1ECF
ENCODING 7887
SWIDTH 433 0
DWIDTH 10 0
BBX 13 18 0 0
BITMAP
0780
04C0
0080
0300
0000
0000
0F00
3F80
7988
7198
F3E0
E180
E180
E380
E300
E700
FE00
7800
ENDCHAR
STARTCHAR uni1ED0
ENCODING 7888
SWIDTH 665 0
DWIDTH 16 0
BBX 17 24 0 0
BITMAP
000180
000B00
001A00
006A00
008400
000000
01F800
0FBC00
184E00
338E00
678F00
670700
EF0F00
6E0F00
3E0F00
1E0E00
1C0E00
1C1E00
1C1C00
1C3C00
1C3800
1E7000
1FE000
07C000
ENDCHAR
STARTCHAR uni1ED1
ENCODING 7889
SWIDTH 433 0
DWIDTH 10 0
BBX 13 21 0 0
BITMAP
0018
0010
0030
0160
0300
0780
0C80
1000
0000
0F00
3F80
7988
7198
F3E0
E180
E180
E380
E300
E700
FE00
7800
ENDCHAR
STARTCHAR uni1ED2
ENCODING 7890
SWIDTH 665 0
DWIDTH 16 0
BBX 16 24 0 0
BITMAP
0006
000A
003B
0048
0084
0000
01F8
0FBC
184E
338E
678F
6707
EF0F
6E0F
3E0F
1E0E
1C0E
1C1E
1C1C
1C3C
1C38
1E70
1FE0
07C0
ENDCHAR
STARTCHAR uni1ED3
ENCODING 7891
SWIDTH 433 0
DWIDTH 10 0
BBX 13 20 0 0
BITMAP
0060
0020
0120
0330
0780
0C80
1080
0000
0F00
3F80
7988
7198
F3E0
E180
E180
E380
E300
E700
FE00
7800
ENDCHAR
STARTCHAR uni1ED4
ENCODING 7892
SWIDTH 665 0
DWIDTH 16 0
BBX 17 24 0 0
BITMAP
000380
000880
001B80
007A00
00CC00
000000
01F800
0FBC00
184E00
338E00
678F00
670700
EF0F00
6E0F00
3E0F00
1E0E00
1C0E00
1C1E00
1C1C00
1C3C00
1C3800
1E7000
1FE000
07C000
ENDCHAR
STARTCHAR uni1ED5
ENCODING 7893
SWIDTH 433 0
DWIDTH 10 0
BBX 13 20 0 0
BITMAP
0070
0010
0130
0340
0780
0C80
1080
0000
0F00
3F80
7988
7198
F3E0
E180
E180
E380
E300
E700
FE00
7800
ENDCHAR
STARTCHAR uni1ED6
ENCODING 7894
SWIDTH 665 0
DWIDTH 16 0
BBX 16 24 0 0
BITMAP
0011
007E
0038
0068
0084
0000
01F8
0FBC
184E
338E
678F
6707
EF0F
6E0F
3E0F
1E0E
1C0E
1C1E
1C1C
1C3C
1C38
1E70
1FE0
07C0
ENDCHAR
STARTCHAR uni1ED7
ENCODING 7895
SWIDTH 433 0
DWIDTH 10 0
BBX 13 21 0 0
BITMAP
0100
07E0
0080
0100
0300
0780
0C80
1000
0000
0F00
3F80
7988
7198
F3E0
E180
E180
E380
E300
E700
FE00
7800
ENDCHAR
STARTCHAR uni1ED8
ENCODING 7896
SWIDTH 665 0
DWIDTH 16 0
BBX 16 29 0 -6
BITMAP
0010
0038
0078
00C8
0104
01F8
0FBC
184E
338E
678F
6707
EF0F
6E0F
3E0F
1E0E
1C0E
1C1E
1C1C
1C3C
1C38
1E70
1FE0
07C0
0000
0000
0700
0F00
0F00
0700
ENDCHAR
STARTCHAR uni1ED9
ENCODING 7897
SWIDTH 433 0
DWIDTH 10 0
BBX 13 24 0 -6
BITMAP
0100
0300
0780
0C80
3080
0000
0F00
3F80
7988
7198
F3E0
E180
E180
E380
E300
E700
FE00
7800
0000
0000
7000
7000
7000
7000
ENDCHAR
STARTCHAR uni1EDA
ENCODING 7898
SWIDTH 665 0
DWIDTH 16 0
BBX 17 24 0 0
BITMAP
000C00
001C00
001800
003180
002180
000180
01F980
0FBF00
184E00
338E00
678F00
670700
EF0F00
6E0F00
3E0F00
1E0E00
1C0E00
1C1E00
1C1C00
1C3C00
1C3800
1E7000
1FE000
07C000
ENDCHAR
STARTCHAR uni1EDB
ENCODING 7899
SWIDTH 439 0
DWIDTH 11 0
BBX 12 18 0 0
BITMAP
01C0
0180
0300
0330
0630
0020
0F60
3DC0
7980
7180
F180
F180
E180
E380
E300
F700
FE00
7800
ENDCHAR
STARTCHAR uni1EDC
ENCODING 7900
SWIDTH 665 0
DWIDTH 16 0
BBX 17 24 0 0
BITMAP
01C000
00C000
00C080
00C180
000180
000180
01F980
0FBF00
184E00
338E00
678F00
670700
EF0F00
6E0F00
3E0F00
1E0E00
1C0E00
1C1E00
1C1C00
1C3C00
1C3800
1E7000
1FE000
07C000
ENDCHAR
STARTCHAR uni1EDD
ENCODING 7901
SWIDTH 439 0
DWIDTH 11 0
BBX 12 18 0 0
BITMAP
0E00
0600
0620
0330
0030
0020
0F60
3DC0
7980
7180
F180
F180
E180
E380
E300
F700
FE00
7800
ENDCHAR
STARTCHAR uni1EDE
ENCODING 7902
SWIDTH 665 0
DWIDTH 16 0
BBX 17 24 0 0
BITMAP
007800
002C00
000C00
000800
003180
000180
01F980
0FBF00
184E00
338E00
678F00
670700
EF0F00
6E0F00
3E0F00
1E0E00
1C0E00
1C1E00
1C1C00
1C3C00
1C3800
1E7000
1FE000
07C000
ENDCHAR
STARTCHAR uni1EDF
ENCODING 7903
SWIDTH 439 0
DWIDTH 11 0
BBX 12 18 0 0
BITMAP
0780
04C0
0080
0330
0030
0020
0F60
3DC0
7980
7180
F180
F180
E180
E380
E300
F700
FE00
7800
ENDCHAR
STARTCHAR uni1EE0
ENCODING 7904
SWIDTH 665 0
DWIDTH 16 0
BBX 17 22 0 0
BITMAP
01FC00
03F980
002180
000180
01F980
0FBF00
184E00
338E00
678F00
670700
EF0F00
6E0F00
3E0F00
1E0E00
1C0E00
1C1E00
1C1C00
1C3C00
1C3800
1E7000
1FE000
07C000
ENDCHAR
STARTCHAR uni1EE1
ENCODING 7905
SWIDTH 439 0
DWIDTH 11 0
BBX 12 17 0 0
BITMAP
1C80
3FB0
2F30
0030
0060
0F60
3DC0
7980
7180
F180
F180
E180
E380
E300
F700
FE00
7800
ENDCHAR
STARTCHAR uni1EE2
ENCODING 7906
SWIDTH 665 0
DWIDTH 16 0
BBX 17 27 0 -6
BITMAP
000080
000180
000180
01F980
0FBF00
184E00
338E00
678F00
670700
EF0F00
6E0F00
3E0F00
1E0E00
1C0E00
1C1E00
1C1C00
1C3C00
1C3800
1E7000
1FE000
07C000
000000
000000
070000
0F0000
0F0000
070000
ENDCHAR
STARTCHAR uni1EE3
ENCODING 7907
SWIDTH 439 0
DWIDTH 11 0
BBX 12 21 0 -6
BITMAP
0020
0030
0030
0F60
3DC0
7980
7180
F180
F180
E180
E380
E300
F700
FE00
7800
0000
0000
7000
7000
7000
7000
ENDCHAR
STARTCHAR uni1EE4
ENCODING 7908
SWIDTH 716 0
DWIDTH 17 0
BBX 18 24 0 -6
BITMAP
03C1C0
1FC3C0
3383C0
638380
E38380
C78380
C70780
C70780
070700
0F0700
0E0F00
0E0F00
0E0E00
0E1E00
0E1C00
0F7C00
0FF800
07E000
000000
000000
038000
038000
038000
038000
ENDCHAR
STARTCHAR uni1EE5
ENCODING 7909
SWIDTH 505 0
DWIDTH 12 0
BBX 13 18 0 -6
BITMAP
79E0
79E0
79C0
71C0
71C0
F3C0
F3C0
E380
E388
F790
FBF0
71C0
0000
0000
1800
3C00
3C00
1800
ENDCHAR
STARTCHAR uni1EE6
ENCODING 7910
SWIDTH 716 0
DWIDTH 17 0
BBX 18 24 0 0
BITMAP
001E00
001300
000300
000200
000C00
000000
03C1C0
1FC3C0
3383C0
638380
E38380
C78380
C70780
C70780
070700
0F0700
0E0F00
0E0F00
0E0E00
0E1E00
0E1C00
0F7C00
0FF800
07E000
ENDCHAR
STARTCHAR uni1EE7
ENCODING 7911
SWIDTH 505 0
DWIDTH 12 0
BBX 13 18 0 0
BITMAP
0780
0580
0180
0200
0000
0000
79E0
79E0
79C0
71C0
71C0
F3C0
F3C0
E380
E388
F790
FBF0
71C0
ENDCHAR
STARTCHAR uni1EE8
ENCODING 7912
SWIDTH 716 0
DWIDTH 17 0
BBX 21 24 0 0
BITMAP
000380
000700
000618
000C18
000C18
000030
03C1E0
1FC3C0
3383C0
638380
E38380
C78380
C70780
C70780
070700
0F0700
0E0F00
0E0F00
0E0E00
0E1E00
0E1C00
0F7C00
0FF800
07E000
ENDCHAR
STARTCHAR uni1EE9
ENCODING 7913
SWIDTH 505 0
DWIDTH 12 0
BBX 13 18 0 0
BITMAP
00C0
01C0
0198
0318
0318
0010
79E0
79E0
79C0
71C0
71C0
F3C0
F3C0
E380
E388
F790
FBF0
71C0
ENDCHAR
STARTCHAR uni1EEA
ENCODING 7914
SWIDTH 716 0
DWIDTH 17 0
BBX 21 24 0 0
BITMAP
003000
003810
001818
001818
000030
000030
03C1E0
1FC3C0
3383C0
638380
E38380
C78380
C70780
C70780
070700
0F0700
0E0F00
0E0F00
0E0E00
0E1E00
0E1C00
0F7C00
0FF800
07E000
ENDCHAR
STARTCHAR uni1EEB
ENCODING 7915
SWIDTH 505 0
DWIDTH 12 0
BBX 13 18 0 0
BITMAP
0E00
0600
0618
0318
0018
0010
79E0
79E0
79C0
71C0
71C0
F3C0
F3C0
E380
E388
F790
FBF0
71C0
ENDCHAR
STARTCHAR uni1EEC
ENCODING 7916
SWIDTH 716 0
DWIDTH 17 0
BBX 21 24 0 0
BITMAP
001E00
001300
000318
000218
000C18
000030
03C1E0
1FC3C0
3383C0
638380
E38380
C78380
C70780
C70780
070700
0F0700
0E0F00
0E0F00
0E0E00
0E1E00
0E1C00
0F7C00
0FF800
07E000
ENDCHAR
STARTCHAR uni1EED
ENCODING 7917
SWIDTH 505 0
DWIDTH 12 0
BBX 13 18 0 0
BITMAP
0780
0580
0188
0218
0018
0018
79F0
79E0
79E0
71C0
71C0
F3C0
F3C0
E380
E388
F790
FBF0
71C0
ENDCHAR
STARTCHAR uni1EEE
ENCODING 7918
SWIDTH 716 0
DWIDTH 17 0
BBX 21 22 0 0
BITMAP
003FD8
00FF98
000418
000030
03C1E0
1FC3C0
3383C0
638380
E38380
C78380
C70780
C70780
070700
0F0700
0E0F00
0E0F00
0E0E00
0E1E00
0E1C00
0F7C00
0FF800
07E000
ENDCHAR
STARTCHAR uni1EEF
ENCODING 7919
SWIDTH 505 0
DWIDTH 12 0
BBX 13 17 0 0
BITMAP
0F48
1FD8
1798
0018
0010
79E0
79E0
79C0
71C0
71C0
F3C0
F3C0
E380
E388
F790
FBF0
71C0
ENDCHAR
STARTCHAR uni1EF0
ENCODING 7920
SWIDTH 716 0
DWIDTH 17 0
BBX 21 28 0 -6
BITMAP
000010
000018
000018
000030
03C1F0
1FC3E0
3383C0
6383C0
E38380
C78380
C70780
C70780
070700
0F0700
0E0F00
0E0F00
0E0E00
0E1E00
0E1C00
0F7C00
0FF800
07E000
000000
000000
038000
038000
038000
038000
ENDCHAR
STARTCHAR uni1EF1
ENCODING 7921
SWIDTH 505 0
DWIDTH 12 0
BBX 13 21 0 -6
BITMAP
0018
0018
0018
79F0
79E0
79E0
71C0
71C0
F3C0
F3C0
E380
E388
F790
FBF0
71C0
0000
0000
1800
3C00
3C00
1800
ENDCHAR
STARTCHAR Ygrave
ENCODING 7922
SWIDTH 620 0
DWIDTH 15 0
BBX 17 23 0 0
BITMAP
003800
001800
001800
001800
000000
03C180
1FC100
33C300
63C200
61E600
E1E400
C1E400
C1E800
20F800
00F800
00F000
00F000
00F000
00E000
01E000
01E000
01E000
01E000
ENDCHAR
STARTCHAR ygrave
ENCODING 7923
SWIDTH 505 0
DWIDTH 12 0
BBX 13 24 0 -6
BITMAP
0E00
0600
0600
0300
0000
0000
79E0
79E0
79C0
71C0
71C0
F3C0
F3C0
E388
E390
F790
FFA0
77C0
0F00
3700
6F00
4F00
7E00
3C00
ENDCHAR
STARTCHAR uni1EF4
ENCODING 7924
SWIDTH 620 0
DWIDTH 15 0
BBX 17 24 0 -6
BITMAP
03C180
1FC100
33C300
63C200
61E600
E1E400
C1E400
C1E800
20F800
00F800
00F000
00F000
00F000
00E000
01E000
01E000
01E000
01E000
000000
000000
018000
03C000
03C000
018000
ENDCHAR
STARTCHAR uni1EF5
ENCODING 7925
SWIDTH 505 0
DWIDTH 12 0
BBX 13 18 0 -6
BITMAP
79E0
79E0
79C0
71C0
71C0
F3C0
F3C0
E388
E390
F790
FFA0
77C0
0F00
3700
6F00
4F60
7EF0
3C60
ENDCHAR
STARTCHAR uni1EF6
ENCODING 7926
SWIDTH 620 0
DWIDTH 15 0
BBX 17 24 0 0
BITMAP
001E00
001300
000300
000200
000C00
000000
03C180
1FC100
33C300
63C200
61E600
E1E400
C1E400
C1E800
20F800
00F800
00F000
00F000
00F000
00E000
01E000
01E000
01E000
01E000
ENDCHAR
STARTCHAR uni1EF7
ENCODING 7927
SWIDTH 505 0
DWIDTH 12 0
BBX 13 24 0 -6
BITMAP
0780
0580
0180
0200
0000
0000
79E0
79E0
79C0
71C0
71C0
F3C0
F3C0
E388
E390
F790
FFA0
77C0
0F00
3700
6F00
4F00
7E00
3C00
ENDCHAR
STARTCHAR uni1EF8
ENCODING 7928
SWIDTH 620 0
DWIDTH 15 0
BBX 17 22 0 0
BITMAP
007C80
00FF00
010400
000000
03C180
1FC100
33C300
63C200
61E600
E1E400
C1E400
C1E800
20F800
00F800
00F000
00F000
00F000
00E000
01E000
01E000
01E000
01E000
ENDCHAR
STARTCHAR uni1EF9
ENCODING 7929
SWIDTH 505 0
DWIDTH 12 0
BBX 13 23 0 -6
BITMAP
0F10
1FE0
23C0
0000
0000
79E0
79E0
79C0
71C0
71C0
F3C0
F3C0
E388
E390
F790
FFA0
77C0
0F00
3700
6F00
4F00
7E00
3C00
ENDCHAR
STARTCHAR uni2010
ENCODING 8208
SWIDTH 290 0
DWIDTH 7 0
BBX 6 1 0 6
BITMAP
FC
ENDCHAR
STARTCHAR endash
ENCODING 8211
SWIDTH 352 0
DWIDTH 8 0
BBX 7 1 0 6
BITMAP
FE
ENDCHAR
STARTCHAR emdash
ENCODING 8212
SWIDTH 444 0
DWIDTH 11 0
BBX 9 1 0 6
BITMAP
FF80
ENDCHAR
STARTCHAR quoteleft
ENCODING 8216
SWIDTH 209 0
DWIDTH 5 0
BBX 4 6 2 12
BITMAP
10
20
40
E0
F0
60
ENDCHAR
STARTCHAR quoteright
ENCODING 8217
SWIDTH 238 0
DWIDTH 6 0
BBX 4 6 2 12
BITMAP
60
F0
E0
60
40
80
ENDCHAR
STARTCHAR quotesinglbase
ENCODING 8218
SWIDTH 220 0
DWIDTH 5 0
BBX 3 6 0 -3
BITMAP
E0
E0
E0
40
C0
80
ENDCHAR
STARTCHAR quotedblleft
ENCODING 8220
SWIDTH 429 0
DWIDTH 10 0
BBX 8 6 2 12
BITMAP
11
22
42
E7
F7
67
ENDCHAR
STARTCHAR quotedblright
ENCODING 8221
SWIDTH 426 0
DWIDTH 10 0
BBX 8 6 3 12
BITMAP
C6
EF
E6
46
84
88
ENDCHAR
STARTCHAR quotedblbase
ENCODING 8222
SWIDTH 440 0
DWIDTH 11 0
BBX 8 6 0 -3
BITMAP
E6
EF
E7
42
C4
88
ENDCHAR
STARTCHAR dagger
ENCODING 8224
SWIDTH 495 0
DWIDTH 12 0
BBX 9 24 2 -6
BITMAP
0600
0600
0600
0400
0C00
0C00
0C00
0C00
FF80
FF80
FF80
1800
1000
1000
3000
3000
3000
2000
6000
6000
6000
6000
4000
C000
ENDCHAR
STARTCHAR daggerdbl
ENCODING 8225
SWIDTH 495 0
DWIDTH 12 0
BBX 10 24 1 -6
BITMAP
0300
0300
0300
0200
0600
0600
0600
0600
7FC0
7FC0
7FC0
0C00
0800
FF80
FF80
FF80
1800
1000
3000
3000
3000
3000
2000
6000
ENDCHAR
STARTCHAR bullet
ENCODING 8226
SWIDTH 434 0
DWIDTH 10 0
BBX 5 5 3 4
BITMAP
70
F0
F8
F0
70
ENDCHAR
STARTCHAR ellipsis
ENCODING 8230
SWIDTH 702 0
DWIDTH 17 0
BBX 15 4 1 0
BITMAP
E38C
E79E
F79E
E38C
ENDCHAR
STARTCHAR perthousand
ENCODING 8240
SWIDTH 1175 0
DWIDTH 28 0
BBX 27 18 1 0
BITMAP
1E060000
3E0C0000
73080000
63180000
E7100000
E7300000
C6600000
C6600000
ECC783C0
78CFC7E0
019CCE60
0118CC60
0339CC60
0239DCE0
06319CC0
0C319CC0
0C1F0D80
181E0F00
ENDCHAR
STARTCHAR minute
ENCODING 8242
SWIDTH 196 0
DWIDTH 5 0
BBX 4 6 2 12
BITMAP
70
60
60
C0
C0
80
ENDCHAR
STARTCHAR second
ENCODING 8243
SWIDTH 341 0
DWIDTH 8 0
BBX 7 6 2 12
BITMAP
76
6E
6C
CC
C8
98
ENDCHAR
STARTCHAR guilsinglleft
ENCODING 8249
SWIDTH 359 0
DWIDTH 9 0
BBX 8 9 0 2
BITMAP
01
03
0C
30
60
E0
38
0C
02
ENDCHAR
STARTCHAR guilsinglright
ENCODING 8250
SWIDTH 344 0
DWIDTH 8 0
BBX 8 9 0 2
BITMAP
20
30
18
0E
03
07
1C
70
C0
ENDCHAR
STARTCHAR fraction
ENCODING 8260
SWIDTH 248 0
DWIDTH 6 0
BBX 11 18 -2 0
BITMAP
0060
0040
00C0
0080
0180
0100
0300
0600
0600
0C00
0800
1800
1000
3000
2000
6000
C000
C000
ENDCHAR
STARTCHAR uni2052
ENCODING 8274
SWIDTH 796 0
DWIDTH 19 0
BBX 13 18 3 0
BITMAP
7018
7030
F020
7060
0040
00C0
0180
0180
0300
0300
0600
0400
0C00
0800
1870
3078
3078
6070
ENDCHAR
STARTCHAR uni2070
ENCODING 8304
SWIDTH 379 0
DWIDTH 9 0
BBX 8 10 1 8
BITMAP
1E
3E
73
63
E7
E7
C6
C6
EC
78
ENDCHAR
STARTCHAR uni2074
ENCODING 8308
SWIDTH 352 0
DWIDTH 8 0
BBX 7 10 1 8
BITMAP
36
36
36
2C
4C
FE
0C
1C
18
18
ENDCHAR
STARTCHAR uni2075
ENCODING 8309
SWIDTH 335 0
DWIDTH 8 0
BBX 7 11 1 7
BITMAP
3E
20
20
60
7C
4C
6E
EE
CC
CC
78
ENDCHAR
STARTCHAR uni2076
ENCODING 8310
SWIDTH 351 0
DWIDTH 8 0
BBX 7 11 1 7
BITMAP
1E
3E
72
64
60
FC
D6
C6
C6
EC
78
ENDCHAR
STARTCHAR uni2077
ENCODING 8311
SWIDTH 329 0
DWIDTH 8 0
BBX 7 10 1 8
BITMAP
7E
FC
08
18
30
60
60
E0
E0
60
ENDCHAR
STARTCHAR uni2078
ENCODING 8312
SWIDTH 354 0
DWIDTH 9 0
BBX 7 11 1 7
BITMAP
1C
3E
32
36
3C
1C
6C
C6
C6
EE
7C
ENDCHAR
STARTCHAR uni2079
ENCODING 8313
SWIDTH 345 0
DWIDTH 8 0
BBX 7 11 1 7
BITMAP
3C
7E
66
C6
C6
D6
76
0C
0C
D8
70
ENDCHAR
STARTCHAR uni2080
ENCODING 8320
SWIDTH 379 0
DWIDTH 9 0
BBX 8 10 1 0
BITMAP
1E
3F
73
63
E3
E7
C6
C6
FC
78
ENDCHAR
STARTCHAR uni2081
ENCODING 8321
SWIDTH 229 0
DWIDTH 6 0
BBX 4 10 1 0
BITMAP
10
F0
30
70
60
60
60
60
C0
C0
ENDCHAR
STARTCHAR uni2082
ENCODING 8322
SWIDTH 328 0
DWIDTH 8 0
BBX 7 10 1 0
BITMAP
3C
6C
6E
6C
0C
18
30
60
C4
FC
ENDCHAR
STARTCHAR uni2083
ENCODING 8323
SWIDTH 336 0
DWIDTH 8 0
BBX 7 10 1 0
BITMAP
1C
3E
66
34
18
0C
6E
CE
CC
78
ENDCHAR
STARTCHAR uni2084
ENCODING 8324
SWIDTH 352 0
DWIDTH 8 0
BBX 7 10 1 0
BITMAP
36
36
36
2C
4C
FE
0C
1C
18
18
ENDCHAR
STARTCHAR uni2085
ENCODING 8325
SWIDTH 335 0
DWIDTH 8 0
BBX 7 10 1 0
BITMAP
3E
20
20
60
7C
5E
6E
CC
DC
78
ENDCHAR
STARTCHAR uni2086
ENCODING 8326
SWIDTH 351 0
DWIDTH 8 0
BBX 7 10 1 0
BITMAP
1E
3E
76
60
FC
F6
C6
C6
7C
78
ENDCHAR
STARTCHAR uni2087
ENCODING 8327
SWIDTH 329 0
DWIDTH 8 0
BBX 7 10 1 0
BITMAP
7E
FC
08
18
30
20
60
E0
E0
60
ENDCHAR
STARTCHAR uni2088
ENCODING 8328
SWIDTH 354 0
DWIDTH 9 0
BBX 7 10 1 0
BITMAP
1C
3E
32
36
38
2C
CE
C6
FC
78
ENDCHAR
STARTCHAR uni2089
ENCODING 8329
SWIDTH 345 0
DWIDTH 8 0
BBX 7 10 1 0
BITMAP
3C
7E
46
C6
D6
76
0E
0C
D8
70
ENDCHAR
STARTCHAR colonmonetary
ENCODING 8353
SWIDTH 384 0
DWIDTH 9 0
BBX 10 18 0 -1
BITMAP
0680
0480
0480
0F80
3CC0
38C0
71C0
6000
E000
E000
E000
E000
7100
3F00
2600
2C00
2C00
6800
ENDCHAR
STARTCHAR franc
ENCODING 8355
SWIDTH 529 0
DWIDTH 13 0
BBX 14 18 0 0
BITMAP
07FC
0780
0780
0780
0780
0700
0700
0F00
0FE0
0E00
0E00
0E00
1E00
FFC0
1C00
1C00
3C00
3C00
ENDCHAR
STARTCHAR lira
ENCODING 8356
SWIDTH 455 0
DWIDTH 11 0
BBX 12 18 0 0
BITMAP
01E0
03F0
0730
0F30
0E00
0E00
0E00
7FC0
1C00
1C00
7FC0
9C00
3C00
3800
3810
7FF0
7FF0
83E0
ENDCHAR
STARTCHAR uni20A6
ENCODING 8358
SWIDTH 723 0
DWIDTH 17 0
BBX 19 18 0 0
BITMAP
038180
03C180
03C380
07C380
07C300
07C300
07E300
07E700
7FFFE0
0CE600
0CE600
FFFFC0
1CFE00
1C7C00
187C00
187C00
387C00
383800
ENDCHAR
STARTCHAR uni20A9
ENCODING 8361
SWIDTH 841 0
DWIDTH 20 0
BBX 22 18 0 0
BITMAP
1E0E0C
1E0E0C
1E1E18
1E1E18
1E3E10
1E3E30
1E2E30
1E6E20
7FFFFC
1E4E40
1ECE44
FFFFF8
0E8E80
0F8E80
0F0F80
0F0F00
0F0F00
0E0F00
ENDCHAR
STARTCHAR Euro
ENCODING 8364
SWIDTH 507 0
DWIDTH 12 0
BBX 14 18 0 0
BITMAP
00F8
01DC
078C
071C
0E1C
1E00
1E00
7FF0
3C00
3C00
7FE0
BC00
3C00
3C00
1E10
1FF0
0FE0
07C0
ENDCHAR
STARTCHAR uni20AE
ENCODING 8366
SWIDTH 481 0
DWIDTH 12 0
BBX 17 18 0 0
BITMAP
07F080
1FFF80
31FF80
61C700
E1C000
C3C000
C3C000
C3C000
639C00
07F000
7F8000
47F800
0FC000
7F0000
070000
0F0000
0F0000
0E0000
ENDCHAR
STARTCHAR uni20B3
ENCODING 8371
SWIDTH 573 0
DWIDTH 14 0
BBX 14 18 0 0
BITMAP
03E0
1F78
381C
679C
678C
E71C
C71C
CF1C
2F38
0F70
3FE0
0E00
1E00
7FC0
1E00
1C00
1C00
3C00
ENDCHAR
STARTCHAR uni20B4
ENCODING 8372
SWIDTH 570 0
DWIDTH 14 0
BBX 12 18 1 0
BITMAP
0FC0
1DE0
30F0
30F0
30E0
01C0
7FF0
8700
0E00
FFE0
3800
71E0
F1E0
E0E0
E0E0
F0E0
7FC0
3F00
ENDCHAR
STARTCHAR uni20B8
ENCODING 8376
SWIDTH 522 0
DWIDTH 13 0
BBX 18 18 0 0
BITMAP
3FFFC0
000000
000000
07FFC0
1CFF80
31EF00
71E000
E1C000
E1C000
E3C000
63C000
03C000
038000
038000
078000
078000
070000
070000
ENDCHAR
STARTCHAR uni20B9
ENCODING 8377
SWIDTH 544 0
DWIDTH 13 0
BBX 13 19 1 -1
BITMAP
7FF8
0780
0380
7FF0
01C0
01C0
0380
0700
FC00
1F00
0780
0780
0700
0700
0F00
0F00
0F00
0F00
0600
ENDCHAR
STARTCHAR uni20BA
ENCODING 8378
SWIDTH 455 0
DWIDTH 11 0
BBX 12 18 1 0
BITMAP
0F00
0F00
0E00
0E00
1E80
1F00
3C00
FDC0
9F00
3C00
FC60
3870
3870
7860
78E0
71C0
7F80
7C00
ENDCHAR
STARTCHAR uni20BD
ENCODING 8381
SWIDTH 573 0
DWIDTH 14 0
BBX 14 18 0 0
BITMAP
03E0
1F78
381C
679C
678C
E71C
C71C
CF1C
2F38
0F70
7FE0
0E00
1E00
7F80
1E00
1C00
1C00
3C00
ENDCHAR
STARTCHAR uni2116
ENCODING 8470
SWIDTH 996 0
DWIDTH 24 0
BBX 23 18 0 0
BITMAP
078180
1FC180
3BC39E
73C39A
67C332
E7E332
E7E372
E6E772
6EE674
0EE63C
0CF600
0CF6FE
1C7EFE
1C7C00
187C00
187C00
183C00
383800
ENDCHAR
STARTCHAR uni2120
ENCODING 8480
SWIDTH 585 0
DWIDTH 14 0
BBX 11 7 2 10
BITMAP
3000
2960
2360
3360
7DC0
DD40
7540
ENDCHAR
STARTCHAR trademark
ENCODING 8482
SWIDTH 379 0
DWIDTH 9 0
BBX 10 6 -1 10
BITMAP
6400
BA40
A2C0
2680
2780
2680
ENDCHAR
STARTCHAR uni2126
ENCODING 8486
SWIDTH 745 0
DWIDTH 18 0
BBX 16 18 1 0
BITMAP
00F8
03FC
070E
0C06
1807
3003
3003
7003
6007
6006
6006
600C
600C
3018
3030
1860
FCFE
F8FC
ENDCHAR
STARTCHAR uni212A
ENCODING 8490
SWIDTH 601 0
DWIDTH 14 0
BBX 16 18 0 0
BITMAP
03C7
1F8E
339C
6798
E730
C760
C7C0
6FF0
0F78
0E38
0E38
0E38
1E78
1E70
1C70
1C70
1C70
3C78
ENDCHAR
STARTCHAR uni212B
ENCODING 8491
SWIDTH 668 0
DWIDTH 16 0
BBX 17 24 0 -2
BITMAP
000380
000280
000280
000380
000F80
001F00
003700
006F00
00CF00
018E00
018E00
3FCE00
777E00
E61E00
EE1C00
0E1C00
1C3C00
1C3C00
1C3C00
383800
383800
387800
380000
180000
ENDCHAR
STARTCHAR estimated
ENCODING 8494
SWIDTH 786 0
DWIDTH 19 0
BBX 17 17 1 0
BITMAP
03E000
0FF800
380E00
380F00
780F00
F80F80
F80F80
FFFF80
F80000
F80000
F80000
F80000
780000
780000
380600
1C1C00
07F000
ENDCHAR
STARTCHAR uni2153
ENCODING 8531
SWIDTH 733 0
DWIDTH 18 0
BBX 16 18 1 0
BITMAP
1018
F018
3030
3020
6060
6040
60C0
6180
E18E
C31B
031B
061B
040E
0C06
0833
1823
3027
301C
ENDCHAR
STARTCHAR uni2154
ENCODING 8532
SWIDTH 852 0
DWIDTH 20 0
BBX 19 18 1 0
BITMAP
3C0300
6C0200
6E0600
6C0400
0C0C00
181800
301800
603000
4021C0
FC63E0
004260
00C360
0081C0
0180C0
030660
030460
0604E0
0C0380
ENDCHAR
STARTCHAR oneeighth
ENCODING 8539
SWIDTH 741 0
DWIDTH 18 0
BBX 17 18 1 0
BITMAP
101800
F01800
303000
302000
606000
604000
60C000
618000
E18F00
C31F00
031980
061B00
040E00
0C1700
083300
186300
303700
301E00
ENDCHAR
STARTCHAR threeeighths
ENCODING 8540
SWIDTH 828 0
DWIDTH 20 0
BBX 19 18 1 0
BITMAP
1C0600
3E0600
660C00
360800
1C1800
0C1000
6E3000
CE2000
CC63C0
78C7E0
00C660
018740
010380
0307C0
020CC0
0608C0
040FC0
0C0780
ENDCHAR
STARTCHAR fiveeighths
ENCODING 8541
SWIDTH 827 0
DWIDTH 20 0
BBX 19 18 1 0
BITMAP
3E0600
200600
200C00
600800
7C1800
4C1000
6E3000
EE6000
CC63C0
CCC7E0
78C660
018640
010380
0307C0
020CC0
0608C0
0C0FC0
0C0780
ENDCHAR
STARTCHAR seveneighths
ENCODING 8542
SWIDTH 761 0
DWIDTH 18 0
BBX 17 18 1 0
BITMAP
7E0C00
FC1800
081000
183000
302000
606000
60C000
E0C000
E18700
618F80
031D80
020D00
060E00
041F00
0C3380
183380
183F00
301E00
ENDCHAR
STARTCHAR partialdiff
ENCODING 8706
SWIDTH 597 0
DWIDTH 14 0
BBX 13 18 1 0
BITMAP
03E0
0FF0
0438
0018
0018
0018
0018
0798
1FF8
3838
6030
C030
C070
C060
C0C0
E180
7F00
3E00
ENDCHAR
STARTCHAR uni2206
ENCODING 8710
SWIDTH 619 0
DWIDTH 15 0
BBX 15 18 0 0
BITMAP
0070
0070
00F8
00F8
01B8
0398
0318
0718
0618
0C1C
0C1C
181C
380C
300C
600C
600E
FFFE
FFFE
ENDCHAR
STARTCHAR product
ENCODING 8719
SWIDTH 661 0
DWIDTH 16 0
BBX 16 18 0 0
BITMAP
7FFF
7FFE
0C30
0830
1830
1820
1860
1860
3060
3060
30C0
30C0
20C0
60C0
60C0
6180
6180
C180
ENDCHAR
STARTCHAR summation
ENCODING 8721
SWIDTH 605 0
DWIDTH 15 0
BBX 14 18 1 0
BITMAP
1FFC
1FFC
1C00
0C00
0E00
0600
0700
0300
0380
0380
0700
0E00
1C00
3800
7000
6000
FFE0
FFC0
ENDCHAR
STARTCHAR minus
ENCODING 8722
SWIDTH 471 0
DWIDTH 11 0
BBX 9 2 1 7
BITMAP
FF80
FF00
ENDCHAR
STARTCHAR uni2215
ENCODING 8725
SWIDTH 488 0
DWIDTH 12 0
BBX 12 18 0 0
BITMAP
0030
0060
0040
00C0
0180
0180
0300
0300
0600
0400
0C00
0800
1800
3000
3000
6000
6000
C000
ENDCHAR
STARTCHAR uni2219
ENCODING 8729
SWIDTH 434 0
DWIDTH 10 0
BBX 5 5 3 4
BITMAP
20
F0
F8
F0
70
ENDCHAR
STARTCHAR radical
ENCODING 8730
SWIDTH 660 0
DWIDTH 16 0
BBX 14 18 1 0
BITMAP
007C
007C
00C0
00C0
0180
0180
0180
0300
0300
0300
0600
E600
E400
6C00
6C00
2800
3800
3800
ENDCHAR
STARTCHAR infinity
ENCODING 8734
SWIDTH 833 0
DWIDTH 20 0
BBX 17 8 1 3
BITMAP
1C0E00
3F3F00
636300
C1C180
C1C300
C3E300
FE7E00
783C00
ENDCHAR
STARTCHAR integral
ENCODING 8747
SWIDTH 305 0
DWIDTH 7 0
BBX 11 23 -2 -4
BITMAP
00E0
01A0
0300
0300
0300
0300
0600
0600
0600
0600
0600
0C00
0C00
0C00
0C00
1800
1800
1800
1800
1800
3000
3000
E000
ENDCHAR
STARTCHAR approxequal
ENCODING 8776
SWIDTH 441 0
DWIDTH 11 0
BBX 10 8 1 3
BITMAP
3C40
7FC0
8380
0000
0000
7880
FF80
8700
ENDCHAR
STARTCHAR notequal
ENCODING 8800
SWIDTH 500 0
DWIDTH 12 0
BBX 10 13 1 0
BITMAP
0200
0600
0400
7FC0
7FC0
7FC0
0800
0800
FF80
FF80
FF80
1000
1000
ENDCHAR
STARTCHAR lessequal
ENCODING 8804
SWIDTH 405 0
DWIDTH 10 0
BBX 10 12 0 3
BITMAP
0040
0180
0700
1E00
7800
3800
0E00
0700
0100
0000
FF80
FF80
ENDCHAR
STARTCHAR greaterequal
ENCODING 8805
SWIDTH 405 0
DWIDTH 10 0
BBX 10 12 0 3
BITMAP
1000
1C00
0E00
0380
03C0
0F00
3C00
3000
4000
0000
FF80
FF80
ENDCHAR
STARTCHAR lozenge
ENCODING 9674
SWIDTH 619 0
DWIDTH 15 0
BBX 13 18 1 0
BITMAP
01C0
03C0
06C0
0E60
0C60
1860
3030
6030
E038
C038
6030
6060
60C0
3180
3380
3B00
1E00
1C00
ENDCHAR
STARTCHAR uni27E8
ENCODING 10216
SWIDTH 456 0
DWIDTH 11 0
BBX 10 24 1 -3
BITMAP
0040
00C0
0180
0100
0200
0600
0C00
0800
1000
3000
6000
4000
C000
4000
6000
3000
1000
1800
0800
0400
0600
0200
0100
0180
ENDCHAR
STARTCHAR uni27E9
ENCODING 10217
SWIDTH 456 0
DWIDTH 11 0
BBX 10 24 0 -3
BITMAP
6000
2000
1000
1800
0800
0C00
0600
0200
0300
0180
0080
00C0
0080
0180
0300
0600
0400
0C00
1800
1000
2000
6000
C000
8000
ENDCHAR
STARTCHAR ff
ENCODING 64256
SWIDTH 508 0
DWIDTH 12 0
BBX 20 24 -5 -6
BITMAP
0079E0
00FFF0
01E790
01E700
01C700
01C700
03FFC0
03CF00
03CF00
038E00
038E00
079E00
079E00
079C00
071C00
071C00
0F3C00
0FFC00
3F3800
4E3800
CE7800
DE7800
FFF000
79E000
ENDCHAR
STARTCHAR fi
ENCODING 64257
SWIDTH 534 0
DWIDTH 13 0
BBX 19 24 -5 -6
BITMAP
003E00
007F00
00E380
01E780
01C300
01C000
01F780
03C700
03CF00
03CF00
038F00
078E00
078E00
079E00
071E60
071E40
0F1F80
0F0F00
3F0000
4E0000
8E0000
DE0000
FC0000
780000
ENDCHAR
STARTCHAR fl
ENCODING 64258
SWIDTH 548 0
DWIDTH 13 0
BBX 19 24 -5 -6
BITMAP
007E00
00F780
01E3C0
01E380
01C380
01C780
03F780
03C780
03C700
038700
038F00
078F00
078E00
078E00
070E20
070E40
0F0FC0
0F0F00
3F0000
4E0000
8E0000
9E0000
FC0000
780000
ENDCHAR
STARTCHAR ffi
ENCODING 64259
SWIDTH 764 0
DWIDTH 18 0
BBX 24 24 -5 -6
BITMAP
0078F8
00F7DC
01E79C
01E71C
01CF08
01CF00
03FFFC
03CE3C
03CE38
039E38
039E38
079E78
079C78
079C70
073C71
073C73
0F3C7E
0FF838
3E3800
4E7800
CE7800
DE7000
FEF000
7BC000
ENDCHAR
STARTCHAR ffl
ENCODING 64260
SWIDTH 780 0
DWIDTH 19 0
BBX 25 24 -5 -6
BITMAP
007DF000
00F7FE00
01E70E00
01E71E00
01CF1E00
01CF1E00
03FFDC00
03CE1C00
03CE3C00
038E3C00
039E3800
079E3800
079C3800
079C7800
073C7980
073C7B00
0F3C7E00
0FF83C00
3E380000
4E780000
CE780000
DE700000
FEF00000
7BC00000
ENDCHAR
STARTCHAR .notdef
ENCODING -1
SWIDTH 810 0
DWIDTH 19 0
BBX 19 30 0 -6
BITMAP
03FFE0
020020
020020
020020
040040
040040
040040
040040
040040
087080
089880
089880
089880
103080
106100
104100
108100
100100
208200
208200
200200
200200
200200
400400
400400
400400
400400
800400
800800
FFF800
ENDCHAR
STARTCHAR A.salt
ENCODING -1
SWIDTH 590 0
DWIDTH 14 0
BBX 15 20 0 -2
BITMAP
001E
007E
00DC
019C
033C
023C
063C
0C38
0FF8
1878
1878
3870
3070
70F0
70F0
70F0
E0E0
E0E0
E000
6000
ENDCHAR
STARTCHAR B.salt
ENCODING -1
SWIDTH 633 0
DWIDTH 15 0
BBX 14 18 0 0
BITMAP
03F0
1F78
389C
779C
E79C
E718
C730
E7F8
0F3C
0E1C
0E1C
0E1C
1E1C
1E3C
1C38
1E78
1FF0
3DE0
ENDCHAR
STARTCHAR E.salt
ENCODING -1
SWIDTH 554 0
DWIDTH 13 0
BBX 15 18 0 0
BITMAP
07FE
1FFC
77F8
6780
E700
E700
C700
CF00
2FE0
0FE0
0E00
1E00
1E00
1E00
1C00
1C00
3FE0
3FE0
ENDCHAR
STARTCHAR N.salt
ENCODING -1
SWIDTH 669 0
DWIDTH 16 0
BBX 17 18 0 0
BITMAP
03FC00
1FFE00
37CE00
678F00
678E00
E70E00
CF0E00
CF1E00
2F1C00
0F1C00
0E1C00
1E3C00
1E3C00
1E3800
1C3880
3C3900
3C3F00
3C1C00
ENDCHAR
STARTCHAR i.loclTRK
ENCODING -1
SWIDTH 267 0
DWIDTH 6 0
BBX 7 17 0 0
BITMAP
18
3C
3C
18
00
78
78
78
70
70
F0
F0
E0
E2
E6
FC
70
ENDCHAR
STARTCHAR a.end
ENCODING -1
SWIDTH 467 0
DWIDTH 11 0
BBX 12 12 0 0
BITMAP
0EF0
3DE0
78E0
71E0
F1E0
F1C0
E1C0
E3C0
E3C0
F7C0
FDE0
79C0
ENDCHAR
STARTCHAR aacute.end
ENCODING -1
SWIDTH 461 0
DWIDTH 11 0
BBX 11 18 0 0
BITMAP
00E0
01C0
0180
0300
0300
0000
0EE0
3DE0
79E0
71E0
F1C0
E1C0
E1C0
E3C0
E3C0
E7C0
FFE0
79C0
ENDCHAR
STARTCHAR c.end
ENCODING -1
SWIDTH 341 0
DWIDTH 8 0
BBX 9 12 0 0
BITMAP
0F00
3F80
7980
7100
F000
E000
E000
E000
E000
F200
FE00
7800
ENDCHAR
STARTCHAR d.end
ENCODING -1
SWIDTH 476 0
DWIDTH 11 0
BBX 13 17 0 0
BITMAP
0008
0070
0070
00F0
00F0
0EE0
3DE0
78E0
71E0
F1E0
F1C0
E1C0
E3C0
E3C0
F7C0
FFE0
79C0
ENDCHAR
STARTCHAR e.end
ENCODING -1
SWIDTH 366 0
DWIDTH 9 0
BBX 9 12 0 0
BITMAP
0F00
3F80
7980
7180
F300
F600
FC00
E000
E100
F200
FE00
7C00
ENDCHAR
STARTCHAR eacute.end
ENCODING -1
SWIDTH 367 0
DWIDTH 9 0
BBX 10 18 0 0
BITMAP
01C0
0380
0300
0300
0600
0000
0F00
3F80
7980
7180
F300
F600
FC00
E000
E100
F200
FE00
7C00
ENDCHAR
STARTCHAR uni0292.end
ENCODING -1
SWIDTH 391 0
DWIDTH 9 0
BBX 9 18 0 -6
BITMAP
3F80
6700
E700
4E00
1E00
1C00
3800
3800
5C00
1E00
0E00
0E00
3E00
4E00
8E00
9E00
FC00
7800
ENDCHAR
STARTCHAR g.end
ENCODING -1
SWIDTH 480 0
DWIDTH 12 0
BBX 12 18 0 -6
BITMAP
0EF0
3DE0
78E0
71E0
F1E0
F1C0
E1C0
E3C0
E3C0
F7C0
FF80
7B80
1F80
2780
6700
6F00
3F00
1C00
ENDCHAR
STARTCHAR uni01E5.end
ENCODING -1
SWIDTH 507 0
DWIDTH 12 0
BBX 12 18 0 -6
BITMAP
0EF0
3DE0
78E0
71E0
F1E0
F1C0
E1C0
E3C0
E3C0
F7C0
FF80
7B80
0F80
3780
7FC0
EF00
3F00
1C00
ENDCHAR
STARTCHAR h.end
ENCODING -1
SWIDTH 453 0
DWIDTH 11 0
BBX 12 17 -1 0
BITMAP
0200
1E00
1E00
1C00
1C00
1DC0
3FE0
3CE0
38E0
38E0
78E0
79E0
71C0
71C0
71C0
F1F0
F0E0
ENDCHAR
STARTCHAR i.end
ENCODING -1
SWIDTH 209 0
DWIDTH 5 0
BBX 6 17 0 0
BITMAP
18
3C
3C
18
00
78
78
78
70
70
F0
F0
E0
E0
E0
F8
70
ENDCHAR
STARTCHAR iacute.end
ENCODING -1
SWIDTH 209 0
DWIDTH 5 0
BBX 7 18 0 0
BITMAP
06
0C
0C
18
18
00
78
78
78
70
70
F0
F0
E0
E0
E0
F8
70
ENDCHAR
STARTCHAR ij.end
ENCODING -1
SWIDTH 480 0
DWIDTH 12 0
BBX 12 23 0 -6
BITMAP
1870
3CF0
3CF0
1870
0000
78F0
78E0
78E0
71E0
71E0
F1C0
F1C0
E3C0
E3C0
E3C0
FB80
7380
0F80
3780
6700
6F00
3F00
1C00
ENDCHAR
STARTCHAR j.end
ENCODING -1
SWIDTH 213 0
DWIDTH 5 0
BBX 11 23 -5 -6
BITMAP
00C0
01E0
01E0
00C0
0000
01C0
03C0
03C0
0380
0380
0780
0780
0780
0700
0700
0F00
0F00
3E00
4E00
8E00
9E00
FC00
7800
ENDCHAR
STARTCHAR k.end
ENCODING -1
SWIDTH 472 0
DWIDTH 11 0
BBX 12 17 -1 0
BITMAP
0200
1E00
1E00
1C00
1C00
1C70
3CC0
3D80
3FC0
3FE0
79E0
79E0
71E0
71E0
71E0
F1F0
F0E0
ENDCHAR
STARTCHAR l.end
ENCODING -1
SWIDTH 207 0
DWIDTH 5 0
BBX 6 17 0 0
BITMAP
04
3C
3C
38
38
38
78
78
70
70
F0
F0
E0
E0
E0
F8
70
ENDCHAR
STARTCHAR m.end
ENCODING -1
SWIDTH 701 0
DWIDTH 17 0
BBX 18 12 -1 0
BITMAP
1FEF00
3FFF80
3CF380
38E380
39E380
79E780
79E780
71C700
71C700
73C780
F3C7C0
F3C380
ENDCHAR
STARTCHAR n.end
ENCODING -1
SWIDTH 454 0
DWIDTH 11 0
BBX 12 12 -1 0
BITMAP
1FC0
3FE0
3CE0
38E0
38E0
79E0
79E0
71C0
71C0
71E0
F1F0
F0E0
ENDCHAR
STARTCHAR o.end
ENCODING -1
SWIDTH 487 0
DWIDTH 12 0
BBX 12 12 0 0
BITMAP
0F00
3F90
79A0
71E0
F1C0
F180
E180
E180
E300
E700
FE00
7C00
ENDCHAR
STARTCHAR oacute.end
ENCODING -1
SWIDTH 487 0
DWIDTH 12 0
BBX 12 18 0 0
BITMAP
01C0
0180
0300
0300
0600
0000
0F00
3F90
79A0
71E0
F1C0
F180
E180
E180
E300
F700
FE00
7C00
ENDCHAR
STARTCHAR s.end
ENCODING -1
SWIDTH 316 0
DWIDTH 8 0
BBX 9 12 -1 0
BITMAP
0F00
0F00
0F00
1700
1700
2700
2700
6780
E780
C700
7F00
3C00
ENDCHAR
STARTCHAR t.end
ENCODING -1
SWIDTH 276 0
DWIDTH 7 0
BBX 7 16 0 0
BITMAP
0C
3C
3C
38
7E
38
78
78
70
70
F0
F0
E0
F0
F8
70
ENDCHAR
STARTCHAR u.end
ENCODING -1
SWIDTH 459 0
DWIDTH 11 0
BBX 11 12 0 0
BITMAP
79E0
79E0
79C0
71C0
71C0
F3C0
F3C0
E380
E380
F780
FBE0
71C0
ENDCHAR
STARTCHAR uacute.end
ENCODING -1
SWIDTH 459 0
DWIDTH 11 0
BBX 11 18 0 0
BITMAP
01C0
0180
0300
0300
0600
0000
79E0
79E0
79C0
71C0
71C0
F3C0
F3C0
E380
E380
F780
FBE0
71C0
ENDCHAR
STARTCHAR x.end
ENCODING -1
SWIDTH 500 0
DWIDTH 12 0
BBX 12 13 0 0
BITMAP
0070
0E70
1F30
2730
4760
47C0
4780
8780
8780
0B80
13C0
33E0
61C0
ENDCHAR
STARTCHAR y.end
ENCODING -1
SWIDTH 460 0
DWIDTH 11 0
BBX 11 18 0 -6
BITMAP
79E0
79E0
79E0
71C0
71C0
F3C0
F3C0
E380
E380
F780
FF80
7780
1F00
2700
4F00
4F00
7E00
3C00
ENDCHAR
STARTCHAR k.salt
ENCODING -1
SWIDTH 518 0
DWIDTH 12 0
BBX 14 17 -1 0
BITMAP
0200
1E00
1E00
1C00
1C00
1C70
3CF0
3DE0
3E00
3FC0
7DE0
79E0
79E0
71E4
71EC
F1F8
F0F0
ENDCHAR
STARTCHAR p.salt
ENCODING -1
SWIDTH 482 0
DWIDTH 12 0
BBX 15 19 -2 -6
BITMAP
0E00
1EE0
1FF0
1E70
1C30
1C30
3C36
3C7E
38F0
3B60
3AE0
7BC0
7B80
7000
7000
7000
F000
F000
8000
ENDCHAR
STARTCHAR E_x
ENCODING -1
SWIDTH 797 0
DWIDTH 19 0
BBX 20 18 0 0
BITMAP
03C000
07E000
0E3000
1C3000
1C6000
1C20C0
1E00E0
0F9C60
1E1E40
3C1EC0
780E80
780F00
F80E00
F00F00
F01F10
F83720
7DC7E0
3F0380
ENDCHAR
STARTCHAR F_i
ENCODING -1
SWIDTH 726 0
DWIDTH 17 0
BBX 18 18 0 0
BITMAP
07FF80
1FFF80
338F00
638000
E78000
E78000
C78700
C70F00
67EF00
0F0E00
0F0E00
0F1E00
0E1E00
0E1E00
1E1C40
1E1CC0
1C1F80
1C0E00
ENDCHAR
STARTCHAR T_h
ENCODING -1
SWIDTH 971 0
DWIDTH 23 0
BBX 24 18 0 0
BITMAP
07FFC0
1FFF80
31C380
61C780
E1C780
C3C700
C3C778
C387F8
638F38
038F38
078E38
078E38
070E78
071E78
0F1E71
0F1C7B
0F1C7E
0E3C3C
ENDCHAR
STARTCHAR T_i
ENCODING -1
SWIDTH 744 0
DWIDTH 18 0
BBX 19 18 0 0
BITMAP
07FF80
1DFFC0
71FF80
61C780
E1C000
C3C000
C3C780
C38700
238700
038F00
078F00
078E00
070E00
071E00
0F1E20
0F1E40
0F1F80
0E0F00
ENDCHAR
STARTCHAR a_x
ENCODING -1
SWIDTH 899 0
DWIDTH 22 0
BBX 23 13 0 0
BITMAP
000010
0EF7B8
3DE788
78E388
71E390
F1E3B0
F1C3E0
E1C3C0
E3C1C2
E3C3C4
F7CDEC
FDF9F8
78F0F0
ENDCHAR
STARTCHAR a_z
ENCODING -1
SWIDTH 906 0
DWIDTH 22 0
BBX 22 12 0 0
BITMAP
0EF3FC
3DE738
78E670
71E4F0
F1E0E0
F1C1E0
E1C1C0
E3C380
E3C790
F7C738
FDEFB0
79DFF0
ENDCHAR
STARTCHAR b_s
ENCODING -1
SWIDTH 799 0
DWIDTH 19 0
BBX 20 17 0 0
BITMAP
040000
3C0000
3C0000
380000
380080
3F8780
7F8F80
79CB80
71F380
71C380
F1C380
F18380
F1BBD0
E3A3E0
F723C0
FE3780
7C1F00
ENDCHAR
STARTCHAR b_s_x
ENCODING -1
SWIDTH 1144 0
DWIDTH 27 0
BBX 28 17 0 0
BITMAP
04000000
3C000000
3C000000
38000000
380080E0
3F879EE0
7F8B9E20
79DB8E60
71F38E40
71C38EC0
F1C38F80
F1838F00
E1BBCF00
E3A3B710
F723C7B0
FE3787E0
7C1E0380
ENDCHAR
STARTCHAR b_s_z
ENCODING -1
SWIDTH 1158 0
DWIDTH 28 0
BBX 28 17 0 0
BITMAP
04000000
3C000000
3C000000
38000000
38008000
3F878FF0
7F8F9CE0
79CB99C0
71F393C0
71E38380
F1C38780
F1838700
F1BBCF00
E3A3CE60
F7239CE0
FE37BEC0
7C1F3FC0
ENDCHAR
STARTCHAR c_x
ENCODING -1
SWIDTH 755 0
DWIDTH 18 0
BBX 19 13 0 0
BITMAP
000180
0F39C0
3FB8C0
79BCC0
713C80
F01D00
F01E00
E01C00
E01E00
E03E20
E06E40
FB8FC0
7E0700
ENDCHAR
STARTCHAR c_z
ENCODING -1
SWIDTH 769 0
DWIDTH 18 0
BBX 18 12 0 0
BITMAP
0F1FC0
3FBBC0
79B380
713700
F00700
E00E00
E01E00
E01C00
E03880
F23980
FE7F80
78FF00
ENDCHAR
STARTCHAR e_x
ENCODING -1
SWIDTH 762 0
DWIDTH 18 0
BBX 19 13 0 0
BITMAP
000080
0F39C0
3FBCC0
79BCC0
719C80
F31D00
F61F00
FC1E00
E01E00
E03E20
F06F60
FB8FC0
7E0700
ENDCHAR
STARTCHAR e_z
ENCODING -1
SWIDTH 788 0
DWIDTH 19 0
BBX 19 12 0 0
BITMAP
0F1FE0
3FB9C0
79B3C0
711380
F30700
E60F00
FC0E00
E01E00
E01C80
F23CC0
FE3DC0
787F80
ENDCHAR
STARTCHAR eacute_x
ENCODING -1
SWIDTH 760 0
DWIDTH 18 0
BBX 19 18 0 0
BITMAP
01C000
018000
038000
030000
030000
040180
0F39C0
3FBCC0
79BCC0
71BC80
F31D00
F61E00
FC1C00
E01E00
E03E20
E06F60
FB8FC0
7E0700
ENDCHAR
STARTCHAR f_f_t
ENCODING -1
SWIDTH 780 0
DWIDTH 19 0
BBX 25 24 -5 -6
BITMAP
007DF000
00F7FE00
01E70E00
01E71E00
01CF1E00
01CF1E00
03FFFF00
03CE1C00
03CE3C00
038E3C00
039E3C00
079E3800
079C3800
079C7800
073C7980
073C7B00
0F3C7E00
0FF83C00
3E380000
4E780000
CE780000
DE700000
FEF00000
7BC00000
ENDCHAR
STARTCHAR f_i_x
ENCODING -1
SWIDTH 898 0
DWIDTH 22 0
BBX 28 24 -5 -6
BITMAP
003E0000
007F0000
00E38000
01E78000
01C30000
01C001C0
01F7BDC0
03C73C40
03CF1C40
03CF1C80
038F1D80
078E1F00
078E1E00
079E0E10
071E1E20
071E6F60
0F1FCFC0
0F0F0780
3F000000
4E000000
8E000000
DE000000
FC000000
78000000
ENDCHAR
STARTCHAR f_i_z
ENCODING -1
SWIDTH 904 0
DWIDTH 22 0
BBX 27 24 -5 -6
BITMAP
003E0000
007F0000
00E38000
01E78000
01C30000
01C00000
01F79FE0
03C739C0
03CF3380
03CF3780
038F0700
078E0F00
078E0E00
079E1C00
071E3C00
071E39C0
0F1F7D80
0F0FFF80
3F000000
4E000000
8E000000
DE000000
FC000000
78000000
ENDCHAR
STARTCHAR f_l_x
ENCODING -1
SWIDTH 912 0
DWIDTH 22 0
BBX 28 24 -5 -6
BITMAP
007C0000
00F78000
01E3C000
01E38000
01C38000
01C780C0
03F79CC0
03C79C60
03C71C40
03871EC0
038F1E80
078F1F00
078E0E00
078E0E00
070E1F10
070E6F60
0F0FC7C0
0F0F0780
3F000000
4E000000
8E000000
9E000000
FC000000
78000000
ENDCHAR
STARTCHAR f_l_z
ENCODING -1
SWIDTH 938 0
DWIDTH 23 0
BBX 28 24 -5 -6
BITMAP
007E0000
00F78000
01E3C000
01E38000
01C38000
01C78000
03F78FF0
03C799E0
03C719C0
038713C0
038F0380
078F0700
078F0F00
078E0E00
070E1E00
070E1CE0
0F0FBEC0
0F0F7F80
3F000000
4E000000
8E000000
9E000000
FC000000
78000000
ENDCHAR
STARTCHAR f_t
ENCODING -1
SWIDTH 548 0
DWIDTH 13 0
BBX 19 24 -5 -6
BITMAP
007E00
00F780
01E3C0
01E380
01C380
01C780
03FFC0
03C780
03C700
038700
038F00
078F00
078F00
078E00
070E20
070E40
0F0FC0
0F0F00
3F0000
4E0000
8E0000
9E0000
FC0000
780000
ENDCHAR
STARTCHAR f_u
ENCODING -1
SWIDTH 772 0
DWIDTH 19 0
BBX 25 24 -5 -6
BITMAP
00780000
00FC0000
00E40000
01E00000
01C00000
01C00000
01FF9C00
03C71C00
03C73C00
038F3C00
038F3800
078E3800
078E3800
079E7880
071E7900
071EFB00
0F1FFE00
0F0F3C00
3E000000
4E000000
9E000000
DE000000
FC000000
78000000
ENDCHAR
STARTCHAR f_x
ENCODING -1
SWIDTH 663 0
DWIDTH 16 0
BBX 22 24 -5 -6
BITMAP
007800
00FC00
00E400
01E400
01C000
01C030
01FF30
03C718
03C710
0387B0
0387E0
0787C0
078780
078F80
071B84
0733C8
0F39F0
0F39E0
3E0000
4E0000
9E0000
9E0000
FC0000
780000
ENDCHAR
STARTCHAR g_p
ENCODING -1
SWIDTH 975 0
DWIDTH 23 0
BBX 23 19 0 -6
BITMAP
000380
0EF3BC
3DE3DC
78E79E
71E71E
F1E71E
F1C71E
E1CF1C
E3CF1C
E3CE3C
F78E38
FF9FF8
7BFFE0
0F9E00
1F9C00
271C00
273C00
3F3C00
1C3000
ENDCHAR
STARTCHAR g_x
ENCODING -1
SWIDTH 892 0
DWIDTH 21 0
BBX 22 19 0 -6
BITMAP
000010
0EF7B8
3DE788
78E798
71E390
F1E3B0
F1C3E0
E1C3C0
E3C3C0
E3C7C4
F78DEC
FFB9F8
7BE0E0
0F8000
1F8000
270000
270000
3F0000
1C0000
ENDCHAR
STARTCHAR g_z
ENCODING -1
SWIDTH 907 0
DWIDTH 22 0
BBX 22 18 0 -6
BITMAP
0EF3FC
3DE738
78E670
71E6F0
F1E0E0
F1C1E0
E1C1C0
E3C3C0
E3C390
F7C738
FF8FB0
7B8FF0
0F9000
378000
670000
6F0000
3E0000
3C0000
ENDCHAR
STARTCHAR i_x
ENCODING -1
SWIDTH 631 0
DWIDTH 15 0
BBX 16 17 0 0
BITMAP
1800
3C00
3C00
1800
000C
79CE
79C6
79E4
71EC
70E8
F0F0
F0E0
E0F0
E1F1
F77A
FC7E
7838
ENDCHAR
STARTCHAR i_z
ENCODING -1
SWIDTH 637 0
DWIDTH 15 0
BBX 15 17 0 0
BITMAP
1800
3C00
3C00
1800
0000
78FE
799C
7B9C
7138
7078
F070
F0F0
F0E0
E1C0
E3CC
FBFC
77F8
ENDCHAR
STARTCHAR iacute_x
ENCODING -1
SWIDTH 631 0
DWIDTH 15 0
BBX 16 18 0 0
BITMAP
0600
0C00
0C00
1800
1800
000C
79CE
79C6
79E4
71EC
70E8
F0F0
F0E0
E0F0
E1F1
F77A
FC7E
7838
ENDCHAR
STARTCHAR iacute_z
ENCODING -1
SWIDTH 637 0
DWIDTH 15 0
BBX 15 18 0 0
BITMAP
0600
0C00
0C00
1800
1800
0000
79FE
7B9C
7B9C
7038
7078
F070
F0F0
F0E0
E1C4
E3CC
FBEC
77F8
ENDCHAR
STARTCHAR j_x
ENCODING -1
SWIDTH 624 0
DWIDTH 15 0
BBX 21 23 -5 -6
BITMAP
00C000
01E000
01E000
00C000
000060
01CE70
03CE30
03CE20
038F60
038F40
078780
078700
070700
070F88
071F90
0F63E0
0F81C0
1E0000
6E0000
CE0000
9E0000
FC0000
780000
ENDCHAR
STARTCHAR j_z
ENCODING -1
SWIDTH 618 0
DWIDTH 15 0
BBX 20 23 -5 -6
BITMAP
00C000
01E000
01E000
00C000
000000
01CFF0
03DCE0
03D9C0
0393C0
038380
038780
078700
078F00
070E40
071CE0
0F3FE0
0F3FC0
3F0000
4E0000
8E0000
DE0000
FC0000
780000
ENDCHAR
STARTCHAR l_x
ENCODING -1
SWIDTH 631 0
DWIDTH 15 0
BBX 16 17 0 0
BITMAP
0400
3C00
3C00
3800
380C
39CE
79C6
79E4
71EC
70E8
F0F0
F0E0
F0F0
E1F1
F77A
FE7E
7838
ENDCHAR
STARTCHAR l_z
ENCODING -1
SWIDTH 635 0
DWIDTH 15 0
BBX 15 17 0 0
BITMAP
0C00
3C00
3C00
3800
3800
79FE
799C
7BBC
7138
7078
F070
F0F0
E0E0
E1C4
E3CC
FBFC
77F8
ENDCHAR
STARTCHAR m_x
ENCODING -1
SWIDTH 1124 0
DWIDTH 27 0
BBX 29 13 -1 0
BITMAP
00000060
1DEF0E70
3FFF8E30
3CF38E20
38E38F60
39E38FC0
79E78780
79E78700
71C70700
71C70F88
73C73F90
F3C7E3E0
F3C3C1C0
ENDCHAR
STARTCHAR m_z
ENCODING -1
SWIDTH 1125 0
DWIDTH 27 0
BBX 28 12 -1 0
BITMAP
1DEF0FF0
3FFF98E0
3CF399E0
38E381C0
39E38380
79E78780
79E78700
71C70F00
71C70E40
73C71E60
F3C7DEE0
F3C3BFC0
ENDCHAR
STARTCHAR n_z
ENCODING -1
SWIDTH 882 0
DWIDTH 21 0
BBX 22 12 -1 0
BITMAP
1DC3FC
3FE738
3CE678
38E070
38E0F0
79E0E0
79E1E0
71C3C0
71C388
71C798
F1F7F8
F0EFF0
ENDCHAR
STARTCHAR o_ae
ENCODING -1
SWIDTH 1089 0
DWIDTH 26 0
BBX 27 12 0 0
BITMAP
0F03E780
3D8FFFC0
39987CC0
71E078C0
F1807980
F18FF300
F19E7E00
E19C7000
E33CF020
E33CF040
F61F7B80
7C1E3E00
ENDCHAR
STARTCHAR o_s
ENCODING -1
SWIDTH 786 0
DWIDTH 19 0
BBX 20 13 0 0
BITMAP
000080
0F0780
3F8F80
799F80
71B780
F1C780
F18380
E18380
E1BB90
E323E0
E723C0
FE3F00
7C1E00
ENDCHAR
STARTCHAR o_s_x
ENCODING -1
SWIDTH 1132 0
DWIDTH 27 0
BBX 28 13 0 0
BITMAP
000000C0
0F079CE0
3F8F9C60
799F9E60
71B79E40
F1C78E80
F1838F80
E1838F00
E1BB8F00
E323BF10
F723C720
FE3F07E0
7C1E0380
ENDCHAR
STARTCHAR o_s_z
ENCODING -1
SWIDTH 1139 0
DWIDTH 27 0
BBX 27 13 0 0
BITMAP
00008000
0F078FE0
3F8F99C0
799FB9C0
71B79380
F1C78780
F1838700
E1838F00
E1BB8E00
E3239EC0
E7239CC0
FE3FBFC0
7C1E7F80
ENDCHAR
STARTCHAR o_x
ENCODING -1
SWIDTH 851 0
DWIDTH 20 0
BBX 21 13 0 0
BITMAP
000020
0F0F70
3F8F10
799F30
71B720
F1C740
F18780
E18780
E18F80
E31388
F72398
FE3BF0
7C31E0
ENDCHAR
STARTCHAR oacute_s
ENCODING -1
SWIDTH 787 0
DWIDTH 19 0
BBX 20 18 0 0
BITMAP
01C000
018000
030000
030000
060000
000080
0F0780
3F8F80
799F80
71B780
F1C780
F18380
E18380
E1BB90
E323E0
F723C0
FE3700
7C1E00
ENDCHAR
STARTCHAR oacute_s_x
ENCODING -1
SWIDTH 1141 0
DWIDTH 27 0
BBX 27 18 0 0
BITMAP
01C00000
01800000
03000000
03000000
06000000
00008000
0F078FE0
3D8F99E0
399FB9C0
71B79380
F1C78780
F1838700
E1838F00
E1BB8E00
E3239EC0
F7239CC0
FE37BFC0
7C1E7F80
ENDCHAR
STARTCHAR oacute_s_z
ENCODING -1
SWIDTH 1140 0
DWIDTH 27 0
BBX 27 18 0 0
BITMAP
01C00000
01800000
03000000
03000000
06000000
00008000
0F078FE0
3F8F99E0
799FB9C0
71B79380
F1C78780
F1838700
E1838F00
E1BB8E00
E3239EC0
F7239CC0
FE37BFC0
7C1E7F80
ENDCHAR
STARTCHAR oacute_x
ENCODING -1
SWIDTH 852 0
DWIDTH 20 0
BBX 21 18 0 0
BITMAP
01C000
018000
038000
030000
060000
000020
0F0F70
3D8F10
399F30
71B720
F1C740
F18780
E18780
E18F80
E31388
F72398
FE3BF0
7C31E0
ENDCHAR
STARTCHAR r_x
ENCODING -1
SWIDTH 784 0
DWIDTH 19 0
BBX 21 14 -1 0
BITMAP
000060
0000E0
1FDE20
3CDE20
38CE60
380EC0
380F80
780F00
780F00
701F08
702710
706790
F073E0
F073C0
ENDCHAR
STARTCHAR r_z
ENCODING -1
SWIDTH 654 0
DWIDTH 16 0
BBX 17 12 -1 0
BITMAP
1DFF80
3FCF00
3CCE00
389E00
381C00
783C00
783800
787000
70F200
70E700
F1FE00
F3FC00
ENDCHAR
STARTCHAR s_x
ENCODING -1
SWIDTH 727 0
DWIDTH 17 0
BBX 19 13 -1 0
BITMAP
0101C0
0F3DC0
0F3C40
171CC0
171C80
171D00
271F00
271E00
679E00
E7FE20
C7CF60
7F0FC0
3C0780
ENDCHAR
STARTCHAR s_z
ENCODING -1
SWIDTH 744 0
DWIDTH 18 0
BBX 19 13 -1 0
BITMAP
030000
0F1FE0
0F39C0
1F3380
173380
170700
270F00
270E00
679E00
E79C00
C739C0
7F7DC0
3C7F80
ENDCHAR
STARTCHAR t_x
ENCODING -1
SWIDTH 631 0
DWIDTH 15 0
BBX 16 15 0 0
BITMAP
3C00
3C00
380C
7FCE
79C6
79E6
71E4
70E8
70F0
F0F0
F0F0
E1F1
E372
FE7E
7838
ENDCHAR
STARTCHAR t_z
ENCODING -1
SWIDTH 704 0
DWIDTH 17 0
BBX 17 16 0 0
BITMAP
0C0000
3C0000
3C0000
380000
7E7F80
38E700
78CE00
784E00
701C00
703C00
F03800
F07800
E07000
E0F300
F9F700
71FE00
ENDCHAR
STARTCHAR u_v
ENCODING -1
SWIDTH 923 0
DWIDTH 22 0
BBX 22 12 0 0
BITMAP
79E798
79E79C
79C78C
71C70C
71C708
F3C708
F3CF18
E38F10
E38E30
F78F60
FF8FC0
778780
ENDCHAR
STARTCHAR u_x
ENCODING -1
SWIDTH 878 0
DWIDTH 21 0
BBX 22 13 0 0
BITMAP
000030
79E738
79E718
79C790
71C7B0
71C3A0
F3C3C0
F3C380
E38380
E387C4
F7DDC8
FBF9F0
71E0E0
ENDCHAR
STARTCHAR y_p
ENCODING -1
SWIDTH 954 0
DWIDTH 23 0
BBX 22 19 0 -6
BITMAP
000780
79E7F8
79E7FC
79C71C
71C71C
71CF1C
F3CF1C
F3CE1C
E38E3C
E39E38
F79E78
FF9FF0
77FFE0
1F1C00
373C00
6F3C00
4F3800
7E3800
3C7000
ENDCHAR
STARTCHAR y_x
ENCODING -1
SWIDTH 871 0
DWIDTH 21 0
BBX 22 19 0 -6
BITMAP
000030
39E730
79E718
79C710
71C7B0
71C7E0
F3C3C0
F3C380
E38380
E387C4
F78FC8
FFB1F0
77C1E0
0F0000
370000
6F0000
4F0000
7E0000
3C0000
ENDCHAR
STARTCHAR y_z
ENCODING -1
SWIDTH 888 0
DWIDTH 21 0
BBX 21 18 0 -6
BITMAP
79E3F8
79E670
79EE70
71C4E0
71C1E0
F3C1C0
F3C3C0
E38380
E38730
F78F30
FF8FF0
7F9FE0
1F0000
270000
4F0000
4F0000
7E0000
3C0000
ENDCHAR
STARTCHAR a_x.end
ENCODING -1
SWIDTH 884 0
DWIDTH 21 0
BBX 21 13 0 0
BITMAP
000010
0EF7B8
3DE788
78E388
71E390
F1E3B0
F1C3E0
E1C3C0
E3C1C0
E3C3C0
F7CDE0
FDF9F0
78F0E0
ENDCHAR
STARTCHAR b_s.end
ENCODING -1
SWIDTH 731 0
DWIDTH 18 0
BBX 18 17 0 0
BITMAP
040000
3C0000
3C0000
380000
380080
3F8780
7F8F80
79CB80
71F380
71C380
F1C380
F18380
F1BBC0
E3A3C0
F72380
FE3780
7C1F00
ENDCHAR
STARTCHAR e_x.end
ENCODING -1
SWIDTH 747 0
DWIDTH 18 0
BBX 18 13 0 0
BITMAP
000080
0F39C0
3FBCC0
79BCC0
719C80
F31D00
F61F00
FC1E00
E01E00
E03E00
F06E00
FBCF80
7E0700
ENDCHAR
STARTCHAR f_u.end
ENCODING -1
SWIDTH 724 0
DWIDTH 17 0
BBX 22 24 -5 -6
BITMAP
007800
00FC00
00E400
01E000
01C000
01C000
01FF9C
03C71C
03C73C
038F3C
038F38
078E38
078E38
079E78
071E78
071EF8
0F1FFC
0F0F38
3E0000
4E0000
9E0000
DE0000
FC0000
780000
ENDCHAR
STARTCHAR fi.end
ENCODING -1
SWIDTH 479 0
DWIDTH 12 0
BBX 17 24 -5 -6
BITMAP
003E00
007F00
00E380
01E780
01C300
01C000
01F780
03C700
03CF00
03CF00
038F00
078E00
078E00
079E00
071E00
071E00
0F1F00
0F0E00
3F0000
4E0000
8E0000
DE0000
FC0000
780000
ENDCHAR
STARTCHAR fl.end
ENCODING -1
SWIDTH 490 0
DWIDTH 12 0
BBX 18 24 -5 -6
BITMAP
007E00
00F780
01E3C0
01E380
01C380
01C780
03F780
03C780
03C700
038700
038F00
078F00
078E00
078E00
070E00
070E00
0F0F80
0F0F00
3F0000
4E0000
8E0000
9E0000
FC0000
780000
ENDCHAR
STARTCHAR i_x.end
ENCODING -1
SWIDTH 616 0
DWIDTH 15 0
BBX 15 17 0 0
BITMAP
1800
3C00
3C00
1800
000C
79CE
79C6
79E4
71EC
70E8
F0F0
F0E0
E0F0
E1F0
F778
FC7C
7838
ENDCHAR
STARTCHAR o_s.end
ENCODING -1
SWIDTH 718 0
DWIDTH 17 0
BBX 17 13 0 0
BITMAP
000080
0F0780
3F8F80
799F80
71B780
F1C780
F18380
E18380
E1BB80
E32380
E72380
FE3F80
7C1E00
ENDCHAR
STARTCHAR oacute_s.end
ENCODING -1
SWIDTH 719 0
DWIDTH 17 0
BBX 17 18 0 0
BITMAP
01C000
018000
030000
030000
060000
000080
0F0780
3F8F80
799F80
71B780
F1C780
F18380
E18380
E1BB80
E32380
F72380
FE3780
7C1E00
ENDCHAR
STARTCHAR u_x.end
ENCODING -1
SWIDTH 863 0
DWIDTH 21 0
BBX 21 13 0 0
BITMAP
000030
79E738
79E718
79C790
71C7B0
71C3A0
F3C3C0
F3C380
F38380
E387C0
E78FC0
FBF9F0
71E0E0
ENDCHAR
STARTCHAR uni0424.loclBGR
ENCODING -1
SWIDTH 840 0
DWIDTH 20 0
BBX 20 21 0 -2
BITMAP
03FC00
0F1C00
0C3C00
0C3C00
003800
03FF80
0E79C0
3878E0
387070
707070
70F070
F0F070
F0F0F0
F0E0E0
70E1E0
71E3C0
3DE780
1FFE00
01C000
01C000
03C000
ENDCHAR
STARTCHAR uni0492.loclBSH
ENCODING -1
SWIDTH 459 0
DWIDTH 11 0
BBX 15 18 0 0
BITMAP
07FE
1FFC
77F8
6780
E700
E700
C700
CFE0
2FE0
0E00
0E00
1E00
1E00
1E00
1C00
1C00
3C00
3C00
ENDCHAR
STARTCHAR uni04AA.loclCHU
ENCODING -1
SWIDTH 497 0
DWIDTH 12 0
BBX 13 23 0 -5
BITMAP
03E0
07B0
0F18
1E18
3C38
3C30
7800
7800
7800
7800
7800
F000
F000
F808
7810
7830
3FC0
1F00
0400
0780
0180
0900
1E00
ENDCHAR
STARTCHAR uni0418.loclSRB
ENCODING -1
SWIDTH 705 0
DWIDTH 17 0
BBX 18 18 0 0
BITMAP
03C3C0
0F8380
3B8380
778780
678F80
E79F00
E71F00
673700
2F6F00
0FEF00
0FCE00
0F8E00
0F1E00
1E1E00
1E1E00
1C1C00
1C1C00
3C3C00
ENDCHAR
STARTCHAR uni0419.loclSRB
ENCODING -1
SWIDTH 705 0
DWIDTH 17 0
BBX 18 23 0 0
BITMAP
006180
00E100
00E600
007C00
000000
03C3C0
0F8380
3B8380
778780
678F80
E79F00
E71F00
673700
2F6F00
0FEF00
0FCE00
0F8E00
0F1E00
1E1E00
1E1E00
1C1C00
1C1C00
3C3C00
ENDCHAR
STARTCHAR uni0430.end
ENCODING -1
SWIDTH 467 0
DWIDTH 11 0
BBX 12 12 0 0
BITMAP
0EF0
3DE0
78E0
71E0
F1E0
F1C0
E1C0
E3C0
E3C0
F7C0
FDE0
79C0
ENDCHAR
STARTCHAR uni0432.end
ENCODING -1
SWIDTH 406 0
DWIDTH 10 0
BBX 10 18 0 0
BITMAP
0780
0E80
1CC0
1CC0
38C0
3880
7880
7180
7100
F700
F780
E780
E180
E180
E180
F300
FF00
7C00
ENDCHAR
STARTCHAR uni0434.end
ENCODING -1
SWIDTH 480 0
DWIDTH 12 0
BBX 12 18 0 -6
BITMAP
0EF0
3DE0
78E0
71E0
F1E0
F1C0
E1C0
E3C0
E3C0
F7C0
FF80
7B80
1F80
2780
6700
6F00
3F00
1C00
ENDCHAR
STARTCHAR uni0435.end
ENCODING -1
SWIDTH 366 0
DWIDTH 9 0
BBX 9 12 0 0
BITMAP
0F00
3F80
7980
7180
F300
F600
FC00
E000
E100
F200
FE00
7C00
ENDCHAR
STARTCHAR uni0451.end
ENCODING -1
SWIDTH 366 0
DWIDTH 9 0
BBX 10 17 0 0
BITMAP
18C0
1DC0
18C0
0000
0000
0F00
3F80
7980
7180
F300
F600
FC00
E000
E100
F200
FE00
7C00
ENDCHAR
STARTCHAR uni0436.end
ENCODING -1
SWIDTH 848 0
DWIDTH 20 0
BBX 22 12 -1 0
BITMAP
1E1C78
3F1CFC
673DCC
0339C8
033980
07FF80
077B80
077380
C67380
CE7384
CC73D8
78F1F0
ENDCHAR
STARTCHAR uni0437.end
ENCODING -1
SWIDTH 426 0
DWIDTH 10 0
BBX 10 18 0 -6
BITMAP
0F80
1FC0
33C0
61C0
41C0
43C0
8380
0700
1E00
0F00
0700
0780
1F80
2700
6700
6F00
7E00
3C00
ENDCHAR
STARTCHAR uni0438.end
ENCODING -1
SWIDTH 459 0
DWIDTH 11 0
BBX 11 12 0 0
BITMAP
79E0
79E0
79C0
71C0
71C0
F3C0
F3C0
E380
E380
F780
FBE0
71C0
ENDCHAR
STARTCHAR uni0439.end
ENCODING -1
SWIDTH 459 0
DWIDTH 11 0
BBX 11 17 0 0
BITMAP
0C20
1C60
1CC0
0F80
0000
79E0
79E0
79C0
71C0
71C0
F3C0
F3C0
E380
E380
F780
FBE0
71C0
ENDCHAR
STARTCHAR uni043A.end
ENCODING -1
SWIDTH 501 0
DWIDTH 12 0
BBX 13 12 -1 0
BITMAP
1C70
3CF8
3DB0
3B00
3F80
7FC0
79C0
71C0
71C0
71C0
F1F0
F0E0
ENDCHAR
STARTCHAR uni043B.end
ENCODING -1
SWIDTH 511 0
DWIDTH 12 0
BBX 13 12 -1 0
BITMAP
00F8
01F8
0378
0278
0670
0670
0670
44F0
E4E0
ECF0
F8F8
7870
ENDCHAR
STARTCHAR uni043C.end
ENCODING -1
SWIDTH 780 0
DWIDTH 19 0
BBX 20 12 -1 0
BITMAP
00E0F0
01E1E0
03E1E0
02E3E0
02E3E0
06E7E0
04E5C0
04EDC0
E4E9C0
ECF9D0
D8F1E0
7071E0
ENDCHAR
STARTCHAR uni043D.end
ENCODING -1
SWIDTH 460 0
DWIDTH 11 0
BBX 12 12 -1 0
BITMAP
1C70
3CF0
3CF0
38E0
38E0
7FE0
79E0
79C0
71C0
71C0
F1F0
F0E0
ENDCHAR
STARTCHAR uni043E.end
ENCODING -1
SWIDTH 439 0
DWIDTH 11 0
BBX 9 12 0 0
BITMAP
0F00
3D80
3980
7180
F180
F180
E180
E180
E300
E700
FE00
7C00
ENDCHAR
STARTCHAR uni043F.end
ENCODING -1
SWIDTH 454 0
DWIDTH 11 0
BBX 12 12 -1 0
BITMAP
1FC0
3FE0
3CE0
38E0
38E0
79E0
79E0
71C0
71C0
71E0
F1F0
F0E0
ENDCHAR
STARTCHAR uni0441.end
ENCODING -1
SWIDTH 341 0
DWIDTH 8 0
BBX 9 12 0 0
BITMAP
0F00
3F80
7980
7100
F000
E000
E000
E000
E000
F200
FE00
7800
ENDCHAR
STARTCHAR uni0442.end
ENCODING -1
SWIDTH 701 0
DWIDTH 17 0
BBX 18 12 -1 0
BITMAP
1FEF00
3FFF80
3CF380
38E380
39E380
79E780
79E780
71C700
71C700
73C780
F3C7C0
F3C380
ENDCHAR
STARTCHAR uni0443.end
ENCODING -1
SWIDTH 460 0
DWIDTH 11 0
BBX 11 18 0 -6
BITMAP
79E0
79E0
79E0
71C0
71C0
F3C0
F3C0
E380
E380
F780
FF80
7780
1F00
2700
4F00
4F00
7E00
3C00
ENDCHAR
STARTCHAR uni0445.end
ENCODING -1
SWIDTH 500 0
DWIDTH 12 0
BBX 12 13 0 0
BITMAP
0070
0E70
1F30
2730
4760
47C0
4780
8780
8780
0B80
13C0
33E0
61C0
ENDCHAR
STARTCHAR uni0447.end
ENCODING -1
SWIDTH 459 0
DWIDTH 11 0
BBX 10 12 1 0
BITMAP
F3C0
F3C0
F380
E380
E780
E780
FF80
7700
0700
07C0
07C0
0380
ENDCHAR
STARTCHAR uni0448.end
ENCODING -1
SWIDTH 706 0
DWIDTH 17 0
BBX 17 12 0 0
BITMAP
79E780
79E780
79C700
71C700
71C700
F3CF00
F3CF00
E38E00
E38E00
F79E00
FBEF80
71C700
ENDCHAR
STARTCHAR uni044B.end
ENCODING -1
SWIDTH 608 0
DWIDTH 15 0
BBX 15 12 0 0
BITMAP
780E
783C
70FC
779C
773C
F1B8
F1B8
E3B8
E338
E73A
FE3C
7C38
ENDCHAR
STARTCHAR uni0455.end
ENCODING -1
SWIDTH 316 0
DWIDTH 8 0
BBX 9 12 -1 0
BITMAP
0F00
0F00
0F00
1700
1700
2700
2700
6780
E780
C700
7F00
3C00
ENDCHAR
STARTCHAR uni0456.end
ENCODING -1
SWIDTH 209 0
DWIDTH 5 0
BBX 6 17 0 0
BITMAP
18
3C
3C
18
00
78
78
78
70
70
F0
F0
E0
E0
E0
F8
70
ENDCHAR
STARTCHAR uni0458.end
ENCODING -1
SWIDTH 213 0
DWIDTH 5 0
BBX 11 23 -5 -6
BITMAP
00C0
01E0
01E0
00C0
0000
01C0
03C0
03C0
0380
0380
0780
0780
0780
0700
0700
0F00
0F00
3E00
4E00
8E00
9E00
FC00
7800
ENDCHAR
STARTCHAR uni044E.end
ENCODING -1
SWIDTH 675 0
DWIDTH 16 0
BBX 16 12 -1 0
BITMAP
1C1E
3C7F
3CF3
38E3
39E3
7FC3
7BC3
7BC6
73C6
73C4
F1FC
F0F0
ENDCHAR
STARTCHAR uni044F.end
ENCODING -1
SWIDTH 480 0
DWIDTH 12 0
BBX 13 12 -1 0
BITMAP
07F8
0F70
1C70
1C70
1CF0
1CE0
1FE0
04E0
EDE0
EDE0
F8F0
78E0
ENDCHAR
STARTCHAR uni0437.init
ENCODING -1
SWIDTH 455 0
DWIDTH 11 0
BBX 12 18 0 -6
BITMAP
1F00
3F80
6780
4780
8380
0780
0700
0E10
3C10
1E20
0E40
0F80
1F00
7E00
4E00
DE00
DC00
7800
ENDCHAR
STARTCHAR uni0445.init
ENCODING -1
SWIDTH 390 0
DWIDTH 9 0
BBX 11 14 -1 0
BITMAP
0180
01C0
3840
38C0
3C80
3D80
1F00
1E00
3E00
7E20
CE20
8E60
CFC0
C700
ENDCHAR
STARTCHAR uni0436.loclBGR
ENCODING -1
SWIDTH 882 0
DWIDTH 21 0
BBX 23 17 -1 0
BITMAP
000E00
000E00
001E00
001C00
001C00
1E1C78
3F1CFC
673DCC
0339C8
033980
07FF80
077B80
077380
C67382
CE7384
CC73D8
78F1E0
ENDCHAR
STARTCHAR uni043A.loclBGR
ENCODING -1
SWIDTH 518 0
DWIDTH 12 0
BBX 14 17 -1 0
BITMAP
0200
1E00
1E00
1C00
1C00
1C70
3CC0
3D80
3BC0
3FE0
7DE0
79E0
79E0
71E4
71EC
F1F8
F0F0
ENDCHAR
STARTCHAR uni044E.loclBGR
ENCODING -1
SWIDTH 675 0
DWIDTH 16 0
BBX 20 17 -1 0
BITMAP
0E0000
1E0000
1E0000
1C0000
1C0000
1C1E00
3C7F00
3CF310
38E730
39E7C0
7FC300
7BC300
7BC600
73C600
73CC00
F1FC00
F0F000
ENDCHAR
STARTCHAR uni0493.loclBSH
ENCODING -1
SWIDTH 398 0
DWIDTH 10 0
BBX 11 12 -1 0
BITMAP
3FE0
3FE0
7BC0
7800
7000
7F00
7000
F000
E200
F600
FC00
7800
ENDCHAR
STARTCHAR uni04AB.loclCHU
ENCODING -1
SWIDTH 384 0
DWIDTH 9 0
BBX 10 17 0 -5
BITMAP
0F00
3F80
7980
7100
F000
F000
E000
E000
E0C0
F180
FE00
7C00
0800
1E00
0600
2600
3C00
ENDCHAR
STARTCHAR uni0453.loclMKD
ENCODING -1
SWIDTH 267 0
DWIDTH 6 0
BBX 8 22 0 0
BITMAP
03
06
06
0C
08
7E
80
00
00
00
78
78
78
70
70
F0
F0
E0
E2
E6
FC
70
ENDCHAR
STARTCHAR uni0433.loclSRB
ENCODING -1
SWIDTH 267 0
DWIDTH 6 0
BBX 7 17 0 0
BITMAP
7E
80
00
00
00
78
78
78
70
70
F0
F0
E0
E2
E6
FC
70
ENDCHAR
STARTCHAR uni043F.loclSRB
ENCODING -1
SWIDTH 505 0
DWIDTH 12 0
BBX 13 17 0 0
BITMAP
1FE0
0000
0000
0000
0000
79E0
79E0
79C0
71C0
71C0
F3C0
F3C0
E380
E388
F790
FBF0
71C0
ENDCHAR
STARTCHAR uni0442.loclSRB
ENCODING -1
SWIDTH 752 0
DWIDTH 18 0
BBX 19 16 0 0
BITMAP
1FFF80
000000
000000
000000
79E780
79E780
79C700
71C700
71C700
F3CF00
F3CF00
E38E00
E38E20
F79E40
FBEFC0
71C700
ENDCHAR
STARTCHAR uni04150437
ENCODING -1
SWIDTH 940 0
DWIDTH 23 0
BBX 24 24 0 -6
BITMAP
03C000
076000
0E3000
1C3000
1C7000
1C6000
1E01E0
0E07F0
0F8478
3C0878
780878
781070
F01070
F021E1
F827C2
F8C1C6
7F81EC
3E00F0
0003E0
0006E0
000DE0
0009C0
000FC0
000780
ENDCHAR
STARTCHAR uni04150445
ENCODING -1
SWIDTH 797 0
DWIDTH 19 0
BBX 20 18 0 0
BITMAP
03C000
07E000
0E3000
1C3000
1C6000
1C20C0
1E00E0
0F9C60
1E1E40
3C1EC0
780E80
780F00
F80E00
F00F00
F01F10
F83720
7DC7E0
3F0380
ENDCHAR
STARTCHAR uni04010437
ENCODING -1
SWIDTH 940 0
DWIDTH 23 0
BBX 24 28 0 -6
BITMAP
033800
03B800
033000
000000
03C000
076000
0E3000
1C3000
1C7000
1C6000
1E01E0
0E07F0
0F8478
3C0878
780878
781070
F01070
F021E1
F827C2
F8C1C6
7F81EC
3E00F0
0003E0
0006E0
000DE0
0009C0
000FC0
000780
ENDCHAR
STARTCHAR uni04010445
ENCODING -1
SWIDTH 797 0
DWIDTH 19 0
BBX 20 22 0 0
BITMAP
033800
03B800
033000
000000
03C000
07E000
0E3000
1C3000
1C6000
1C20C0
1E00E0
0F9C60
1E1E40
3C1EC0
780E80
780F00
F80E00
F00F00
F01F10
F83720
7DC7E0
3F0380
ENDCHAR
STARTCHAR uni04210437
ENCODING -1
SWIDTH 973 0
DWIDTH 23 0
BBX 24 24 0 -6
BITMAP
03E000
07B000
0F1800
1E1800
3C3800
3C3000
7800F0
7803F8
780278
78043C
780C3C
F00838
F00878
7810F1
7823C1
7C60E2
3FC0F6
1F00F8
0001F0
0003F0
0004F0
0004E0
0007E0
000380
ENDCHAR
STARTCHAR uni04210445
ENCODING -1
SWIDTH 814 0
DWIDTH 20 0
BBX 21 18 0 0
BITMAP
03E000
07B000
0F1800
1E1800
3C3800
3C10E0
7800E0
781E20
780E60
780E40
780E80
F00F80
F00F00
F00F08
780F10
7837B0
3EE7E0
1F03C0
ENDCHAR
STARTCHAR uni04040437
ENCODING -1
SWIDTH 973 0
DWIDTH 23 0
BBX 24 24 0 -6
BITMAP
03E000
07B000
0F1800
1E1800
3C3800
3C3000
7C00F0
7803F8
7FC278
78043C
780C3C
F00838
F00878
7810F1
7823C1
7C60E2
3FC0F6
1F00F8
0001F0
0003F0
0004F0
0004E0
0007E0
000380
ENDCHAR
STARTCHAR uni04040445
ENCODING -1
SWIDTH 814 0
DWIDTH 20 0
BBX 21 18 0 0
BITMAP
03E000
07B000
0F1800
1E1800
3C3800
3C10E0
7C00E0
781E20
7FCE60
780E40
780EC0
F00F80
F00F00
F00708
780F10
7837B0
3EE7E0
1F03C0
ENDCHAR
STARTCHAR uni04300445
ENCODING -1
SWIDTH 899 0
DWIDTH 22 0
BBX 23 13 0 0
BITMAP
000010
0EF7B8
3DE788
78E388
71E390
F1E3B0
F1C3E0
E1C3C0
E3C1C2
E3C3C4
F7CDEC
FDF9F8
78F0F0
ENDCHAR
STARTCHAR uni04300447
ENCODING -1
SWIDTH 993 0
DWIDTH 24 0
BBX 25 12 0 0
BITMAP
0EF79E00
3DE71C00
78E71C00
71E73C00
F1EF3C00
F1CF7C00
E1CFF800
E3C7B880
E3C07900
F7C07900
FDE03E00
79C03C00
ENDCHAR
STARTCHAR uni04310433
ENCODING -1
SWIDTH 816 0
DWIDTH 20 0
BBX 21 18 0 0
BITMAP
000800
0FF800
0FF800
0FF000
060000
070000
030780
1F8FC0
3999C0
79A1C0
F1E3C0
F1C7C0
E18F00
E19E00
E33C18
E33C20
F63EC0
7C0F80
ENDCHAR
STARTCHAR uni04310453
ENCODING -1
SWIDTH 816 0
DWIDTH 20 0
BBX 21 18 0 0
BITMAP
0008E0
0FF8C0
0FF980
0FF180
060300
070000
030780
1F8FC0
3999C0
79A1C0
F1E3C0
F1C7C0
E18F00
E19E00
E33C18
E33C20
F63EC0
7C0F80
ENDCHAR
STARTCHAR uni04310451
ENCODING -1
SWIDTH 814 0
DWIDTH 20 0
BBX 20 18 0 0
BITMAP
001800
0FF230
0FF770
0FE330
0E0000
070000
0303C0
1F87E0
3D8E60
799E60
F19CE0
F1BDC0
E1BF80
E1BC00
E33C10
E33C20
FE3FC0
7C1F00
ENDCHAR
STARTCHAR uni04310436
ENCODING -1
SWIDTH 1261 0
DWIDTH 30 0
BBX 31 18 0 0
BITMAP
00080000
0FF80000
0FF80000
0FF00000
0E000000
07000000
030F0E3C
1F9F9E7E
3DA39CE6
79C39CE4
F1C39DC0
F183FFC0
E183BDC0
E183B9C0
E32339C2
E76739C4
FE6E79EC
7C3C70F0
ENDCHAR
STARTCHAR uni04310439
ENCODING -1
SWIDTH 935 0
DWIDTH 22 0
BBX 23 18 0 0
BITMAP
000800
0FFB0C
0FF788
0FE310
0E03E0
070000
030E38
1F8E38
3D9E78
799E78
F19C70
F19C70
E19CF0
E1BCF0
E33CF2
F73DF6
FE3FFC
7C1E78
ENDCHAR
STARTCHAR uni0431045E
ENCODING -1
SWIDTH 916 0
DWIDTH 22 0
BBX 23 24 0 -6
BITMAP
000800
0FFB0C
0FF788
0FE310
0E03E0
070000
030E38
1F8E38
3D9E78
799E78
F19C70
F19C70
E19CF0
E1BCF0
E33CF2
F73DE4
FE3FEC
7C1FF0
0003E0
000FC0
0009C0
001BC0
000F80
000F00
ENDCHAR
STARTCHAR uni0431044D
ENCODING -1
SWIDTH 860 0
DWIDTH 21 0
BBX 20 18 0 0
BITMAP
000800
0FF800
0FF800
0FF000
0E0000
070000
0307C0
1F8DE0
3D90F0
79A0F0
F1E0F0
F1C7E0
E180E0
E180E0
E331C0
E761C0
FE3380
7C1E00
ENDCHAR
STARTCHAR uni04310456
ENCODING -1
SWIDTH 697 0
DWIDTH 17 0
BBX 18 18 0 0
BITMAP
001000
0FF700
0FEF00
0FEF00
0E0700
070000
030E00
1F8E00
3D9E00
799E00
F19C00
F19C00
E19C00
E1BC00
E33CC0
F73C80
FE3F00
7C1E00
ENDCHAR
STARTCHAR uni04310457
ENCODING -1
SWIDTH 697 0
DWIDTH 17 0
BBX 18 18 0 0
BITMAP
001000
0FECC0
0FEFC0
0FCCC0
0E0000
070000
030E00
1F8E00
3D9E00
799E00
F19C00
F19C00
E19C00
E1BC00
E33CC0
F73C80
FE3F00
7C1E00
ENDCHAR
STARTCHAR uni04310458
ENCODING -1
SWIDTH 669 0
DWIDTH 16 0
BBX 17 24 0 -6
BITMAP
001000
0FF600
0FEF00
0FEF00
0E0600
070000
030E00
1F8E00
3D9E00
799E00
F19C00
F19C00
E19C00
E1BC00
E33C80
E73900
FE3B00
7C7C00
00F800
03F800
027000
067000
02E000
03C000
ENDCHAR
STARTCHAR uni04320433
ENCODING -1
SWIDTH 837 0
DWIDTH 20 0
BBX 21 18 0 0
BITMAP
078000
0E8000
1CC000
1CC000
38C000
388000
7883C0
718FC0
7139E0
F761E0
F7C1C0
F783C0
E18F80
E19E00
E19C08
E31C10
F71FE0
7C0F80
ENDCHAR
STARTCHAR uni04320453
ENCODING -1
SWIDTH 837 0
DWIDTH 20 0
BBX 21 18 0 0
BITMAP
0780E0
0E80C0
1CC0C0
1CC180
38C100
388000
7883C0
718FC0
7139E0
F761E0
F7C1C0
F783C0
E18F80
E19E00
E19C08
E31C10
F71FE0
7C0F80
ENDCHAR
STARTCHAR uni04320436
ENCODING -1
SWIDTH 1279 0
DWIDTH 31 0
BBX 32 18 0 0
BITMAP
07800000
0E800000
1CC00000
1CC00000
38C00000
38800000
788F0E1C
719B8E7E
7121CE66
F741DEE6
F781DCE0
E781FFC0
E1819DC0
E1839DC1
E1B3BDC2
F33339C2
FF3638FC
7C1C3878
ENDCHAR
STARTCHAR uni04320437
ENCODING -1
SWIDTH 824 0
DWIDTH 20 0
BBX 21 24 0 -6
BITMAP
078000
0E8000
1CC000
1CC000
38C000
388000
788F80
719FC0
7133C0
F763C0
F783C0
E783C0
E18380
E18708
E19E10
F32E10
FF0720
7C07C0
000F00
003F00
006700
006F00
007E00
003C00
ENDCHAR
STARTCHAR uni04320445
ENCODING -1
SWIDTH 851 0
DWIDTH 20 0
BBX 21 18 0 0
BITMAP
078000
0E8000
1CC000
1CC000
38C000
388070
788E70
719F10
712730
F74720
F78760
E787C0
E18780
E18780
E18B88
F31398
FF33F0
7C61E0
ENDCHAR
STARTCHAR uni04330437
ENCODING -1
SWIDTH 840 0
DWIDTH 20 0
BBX 22 18 -1 -6
BITMAP
0F03C0
3F87E0
2789E0
4390E0
0790E0
0F20E0
3E21C0
7843C4
708F04
F08788
7B0398
3C03E0
0007C0
000FC0
001380
001380
001F00
000E00
ENDCHAR
STARTCHAR uni04330445
ENCODING -1
SWIDTH 740 0
DWIDTH 18 0
BBX 20 13 -1 0
BITMAP
0001C0
0F3CC0
3FBC40
279C40
439C80
479D80
0F1F00
3E1E00
781E00
703E30
F04F20
7F87C0
3E0780
ENDCHAR
STARTCHAR uni04330447
ENCODING -1
SWIDTH 880 0
DWIDTH 21 0
BBX 23 12 -1 0
BITMAP
0F0E78
1F9E78
279E78
639C70
479C70
0F3CF0
3E3FF0
787FE0
704EE2
F080E4
7F00FC
3C0070
ENDCHAR
STARTCHAR uni04530437
ENCODING -1
SWIDTH 840 0
DWIDTH 20 0
BBX 22 24 -1 -6
BITMAP
00E000
01C000
018000
030000
030000
000000
0F03C0
3F87E0
2789E0
4390E0
0790E0
0F20E0
3E21C0
7843C4
708F04
F08788
7B0398
3C03E0
0007C0
000FC0
001380
001380
001F00
000E00
ENDCHAR
STARTCHAR uni04530445
ENCODING -1
SWIDTH 740 0
DWIDTH 18 0
BBX 20 18 -1 0
BITMAP
00E000
01C000
018000
030000
030000
0001C0
0F3CC0
3FBC40
279C40
439C80
479D80
0F1F00
3E1E00
781E00
703E30
F04F20
7F87C0
3E0780
ENDCHAR
STARTCHAR uni04530447
ENCODING -1
SWIDTH 880 0
DWIDTH 21 0
BBX 23 18 -1 0
BITMAP
00E000
01C000
018000
030000
030000
000000
0F0E78
1F9E78
279E78
639C70
479C70
0F3CF0
3E3FF0
787FE0
704EE2
F080E4
7F00FC
3C0070
ENDCHAR
STARTCHAR uni04340447
ENCODING -1
SWIDTH 1010 0
DWIDTH 24 0
BBX 25 18 0 -6
BITMAP
0EF38E00
3DE79E00
78E79E00
71E71C00
F1E71C00
F1C73C00
E1CFFC00
E3CBBC80
E3C83880
F7903900
FFA03F00
7BC01C00
0F800000
1F800000
27000000
27000000
3E000000
1C000000
ENDCHAR
STARTCHAR uni04340458
ENCODING -1
SWIDTH 746 0
DWIDTH 18 0
BBX 19 23 0 -6
BITMAP
000180
0003C0
0003C0
000180
000000
0EF380
3DE780
78E780
71E780
F1E700
F1C700
E1CF00
E3CF00
E3CE20
F78E40
FF8EC0
7BFF00
0F9E00
179C00
271C00
273C00
3FF800
1EF000
ENDCHAR
STARTCHAR uni04350437
ENCODING -1
SWIDTH 876 0
DWIDTH 21 0
BBX 22 18 0 -6
BITMAP
0F07C0
3F8FE0
7999E0
7190E0
F320E0
F621E0
FC41C0
E04380
E08F04
E08788
FF0398
7C03E0
0007C0
001FC0
001380
003380
001700
001E00
ENDCHAR
STARTCHAR uni04350445
ENCODING -1
SWIDTH 762 0
DWIDTH 18 0
BBX 19 13 0 0
BITMAP
000080
0F39C0
3FBCC0
79BCC0
719C80
F31D00
F61F00
FC1E00
E01E00
E03E20
F06F60
FB8FC0
7E0700
ENDCHAR
STARTCHAR uni04350447
ENCODING -1
SWIDTH 889 0
DWIDTH 21 0
BBX 22 12 0 0
BITMAP
0F1C70
3F9CF0
79BCF0
71BCF0
F338E0
F639E0
FC7FE0
E07FE0
E09DE4
E101C4
FE01F8
7C00F0
ENDCHAR
STARTCHAR uni04510437
ENCODING -1
SWIDTH 876 0
DWIDTH 21 0
BBX 22 22 0 -6
BITMAP
18C000
1DC000
18C000
000000
0F07C0
3F8FE0
7999E0
7190E0
F320E0
F621E0
FC41C0
E04380
E08F04
E08788
FF0398
7C03E0
0007C0
001FC0
001380
003380
001700
001E00
ENDCHAR
STARTCHAR uni04510445
ENCODING -1
SWIDTH 762 0
DWIDTH 18 0
BBX 19 17 0 0
BITMAP
18C000
1DC000
18C000
000000
000080
0F39C0
3FBCC0
79BCC0
719C80
F31D00
F61F00
FC1E00
E01E00
E03E20
F06F60
FB8FC0
7E0700
ENDCHAR
STARTCHAR uni04510447
ENCODING -1
SWIDTH 889 0
DWIDTH 21 0
BBX 22 17 0 0
BITMAP
18C000
1DC000
18C000
000000
000000
0F1C70
3F9CF0
79BCF0
71BCF0
F338E0
F639E0
FC7FE0
E07FE0
E09DE4
E101C4
FE01F8
7C00F0
ENDCHAR
STARTCHAR uni04360447
ENCODING -1
SWIDTH 1392 0
DWIDTH 33 0
BBX 35 12 -1 0
BITMAP
1E1C78E380
3F1CFDE780
673DCDE780
0339C9E700
033981C700
07FF81CF00
077B83FF00
077383FF00
C67384EE20
CE738C0E60
CC73D80FC0
78F1F00780
ENDCHAR
STARTCHAR uni04370437
ENCODING -1
SWIDTH 921 0
DWIDTH 22 0
BBX 23 18 0 -6
BITMAP
0F83E0
1FC7F0
33CCF0
61C870
41D070
43D070
8390E0
0721E2
1E2782
0F23C4
0741CC
07C1F0
0F83E0
3F07E0
2709C0
6F19C0
6E0F80
3C0F00
ENDCHAR
STARTCHAR uni04380447
ENCODING -1
SWIDTH 1010 0
DWIDTH 24 0
BBX 25 12 0 0
BITMAP
79E38E00
79E79E00
79C79E00
71C71C00
71C71C00
F3C73C00
F3CFFC00
E38BBC80
E3883880
F7903D00
FBE03F00
71C01C00
ENDCHAR
STARTCHAR uni04390447
ENCODING -1
SWIDTH 1010 0
DWIDTH 24 0
BBX 25 17 0 0
BITMAP
0C200000
1C600000
1CC00000
0F800000
00000000
79E38E00
79E79E00
79C79E00
71C71C00
71C71C00
F3C73C00
F3CFFC00
E38BBC80
E3883880
F7903D00
FBE03F00
71C01C00
ENDCHAR
STARTCHAR uni043A0447
ENCODING -1
SWIDTH 1016 0
DWIDTH 24 0
BBX 27 12 -1 0
BITMAP
1C71E700
3CF9C700
3DB1CF00
3B03CF00
3F83CF00
7FC3DE00
79C3FE00
71C5FE60
71C41E40
71C81EC0
F1F81F80
F0F00F00
ENDCHAR
STARTCHAR uni045C0447
ENCODING -1
SWIDTH 1016 0
DWIDTH 24 0
BBX 27 18 -1 0
BITMAP
00E00000
00C00000
00C00000
01800000
01000000
00000000
1C71E700
3CF9C700
3DB1CF00
3B03CF00
3F83CF00
7FC3DE00
79C3FE00
71C5FE60
71C41E40
71C81EC0
F1F81F80
F0F00F00
ENDCHAR
STARTCHAR uni043B0447
ENCODING -1
SWIDTH 1061 0
DWIDTH 25 0
BBX 27 12 -1 0
BITMAP
00F8E380
01F8E380
0379E780
0279E780
0671C700
0671EF00
0671FF00
44F2EF20
E4E20F20
ECF40F40
F8FC0FC0
70780780
ENDCHAR
STARTCHAR uni043C0447
ENCODING -1
SWIDTH 1276 0
DWIDTH 31 0
BBX 33 12 -1 0
BITMAP
03C1C79E00
03C3C71C00
03C3C73C00
03C7CF3C00
03C78F3C00
07CF8F7800
05CB8FF800
45DF97F880
E5D7907900
EDF7B07B00
C9E7E07E00
71E3C03C00
ENDCHAR
STARTCHAR uni043D0447
ENCODING -1
SWIDTH 1011 0
DWIDTH 24 0
BBX 26 12 -1 0
BITMAP
1C71C700
3CF3CF00
3CF3CF00
38E3CE00
38E38E00
7FE39E00
79E7FE00
79C5DE40
71C41C40
71C81C80
F1F81F80
F0E00E00
ENDCHAR
STARTCHAR uni043E0433
ENCODING -1
SWIDTH 804 0
DWIDTH 19 0
BBX 20 12 0 0
BITMAP
0F07C0
3D8FC0
3999E0
71A1E0
F1C1C0
F187C0
E18F00
E19E00
E33C10
E33C20
F63EC0
7C1F00
ENDCHAR
STARTCHAR uni043E0453
ENCODING -1
SWIDTH 804 0
DWIDTH 19 0
BBX 20 18 0 0
BITMAP
000070
000060
0000C0
0000C0
000180
000000
0F07C0
3D8FC0
3999E0
71A1E0
F1C1C0
F187C0
E18F00
E19E00
E33C10
E33C20
F63EC0
7C1F00
ENDCHAR
STARTCHAR uni043E0436
ENCODING -1
SWIDTH 1271 0
DWIDTH 31 0
BBX 32 12 0 0
BITMAP
0F0F0E3C
3D9F8E76
39A39EE6
71C1DCE4
F1C1DCC0
F183FFC0
E1839DC0
E183BDC1
E363B9C2
E76739C2
FE6638EC
7C3C7870
ENDCHAR
STARTCHAR uni043E0437
ENCODING -1
SWIDTH 837 0
DWIDTH 20 0
BBX 21 18 0 -6
BITMAP
0F0780
3D9FC0
39B3C0
71E1C0
F1C1C0
F183C0
E18380
E18708
E31E08
E70F10
FE0730
7C07C0
000F80
001F80
002700
006700
002E00
003C00
ENDCHAR
STARTCHAR uni043E043B
ENCODING -1
SWIDTH 992 0
DWIDTH 24 0
BBX 25 12 0 0
BITMAP
0F007E00
3D80FC00
39809C00
71819C00
F1813C00
F1813C00
E1833800
E1A33880
E3333900
F7723900
FFBE3E00
7E3C1C00
ENDCHAR
STARTCHAR uni043E043C
ENCODING -1
SWIDTH 1207 0
DWIDTH 29 0
BBX 30 12 0 0
BITMAP
0F00E0F0
3D80E0F0
3981E1E0
7181F1E0
F181F3E0
F181F3E0
E181F7C0
E183F5C0
E332FDC4
F77279C8
FFA679F0
7E3C70E0
ENDCHAR
STARTCHAR uni043E0445
ENCODING -1
SWIDTH 850 0
DWIDTH 20 0
BBX 21 13 0 0
BITMAP
000020
0F0F70
3F8F10
799F30
71B720
F1C740
F18780
E18780
E18F80
E31388
F72398
FE3BF0
7C31E0
ENDCHAR
STARTCHAR uni043E0459
ENCODING -1
SWIDTH 1179 0
DWIDTH 28 0
BBX 27 12 0 0
BITMAP
0F007E00
3D80FC00
39809C00
71819D80
F1813FE0
F1813CE0
E18338E0
E1A338E0
E33338E0
E77239C0
FFBE3F80
7E3C1F00
ENDCHAR
STARTCHAR uni043E044D
ENCODING -1
SWIDTH 867 0
DWIDTH 21 0
BBX 20 12 0 0
BITMAP
0F03C0
3D8DE0
3990F0
71E0F0
F180F0
F187F0
E180E0
E180E0
E331C0
E731C0
FE3380
7C1E00
ENDCHAR
STARTCHAR uni043F0447
ENCODING -1
SWIDTH 1010 0
DWIDTH 24 0
BBX 26 12 -1 0
BITMAP
1FC1C700
3FE3CF00
3CE3CF00
38E38E00
38E38E00
79E3DE00
79E7FE00
71C5DE40
71C41C40
71C81C80
F1F81F80
F0E00E00
ENDCHAR
STARTCHAR uni04400437
ENCODING -1
SWIDTH 890 0
DWIDTH 21 0
BBX 24 19 -2 -6
BITMAP
0E0000
0FE0F0
1FF378
1E7E3C
1C7C3C
1C783C
1C7038
3C7078
3870F1
38F3C1
39E0E3
7FC0F6
7F80FC
7001F0
7003F0
7006F0
F004E0
F007E0
C003C0
ENDCHAR
STARTCHAR uni04410437
ENCODING -1
SWIDTH 876 0
DWIDTH 21 0
BBX 22 18 0 -6
BITMAP
0F07C0
3F8FE0
7999E0
7110E0
F020E0
F021E0
E041C0
E04384
E08F04
E08788
FF0398
7C03E0
0007C0
001FC0
001380
003380
001700
001E00
ENDCHAR
STARTCHAR uni04410445
ENCODING -1
SWIDTH 755 0
DWIDTH 18 0
BBX 19 13 0 0
BITMAP
000180
0F39C0
3FB8C0
79BCC0
713C80
F01D00
F01E00
E01C00
E01E00
E03E20
E06E40
FB8FC0
7E0700
ENDCHAR
STARTCHAR uni04410447
ENCODING -1
SWIDTH 889 0
DWIDTH 21 0
BBX 22 12 0 0
BITMAP
0F1C70
3F9CF0
79BCF0
71BCF0
F038E0
F038E0
E07DE0
E07FE0
E09DE4
E181C4
FE01F8
7C00F0
ENDCHAR
STARTCHAR uni0441044A
ENCODING -1
SWIDTH 841 0
DWIDTH 20 0
BBX 20 12 0 0
BITMAP
0F1F80
3FBB00
79B600
71B600
F00FE0
F01EF0
E03C70
E03C70
E078E0
E0B8E0
FF3FC0
7C1F00
ENDCHAR
STARTCHAR uni04420447
ENCODING -1
SWIDTH 1257 0
DWIDTH 30 0
BBX 32 12 -1 0
BITMAP
1FEF073C
3FFF8F3C
3CF38F3C
38E38E38
39E38E78
79E79FF8
79E79FF8
71C71771
71C71071
73C72072
F3C7C07E
F3C38038
ENDCHAR
STARTCHAR uni04430447
ENCODING -1
SWIDTH 989 0
DWIDTH 24 0
BBX 25 18 0 -6
BITMAP
79E79E00
79E71C00
79C71C00
71C73C00
71CF3C00
F3CF7800
F3CFF800
E38FB880
E7907900
FF907F00
FFA03E00
77C03C00
1F000000
37000000
6F000000
4F000000
7E000000
3C000000
ENDCHAR
STARTCHAR uni04430458
ENCODING -1
SWIDTH 725 0
DWIDTH 17 0
BBX 18 23 0 -6
BITMAP
000380
000380
000380
000380
000000
79E780
79E700
79C700
71C700
71CF00
F3CF00
F3CE00
E38E00
E39E40
F79EC0
FF9F80
779F00
0FFC00
373C00
6F3C00
4F3800
7FF800
3DF000
ENDCHAR
STARTCHAR uni045E0447
ENCODING -1
SWIDTH 989 0
DWIDTH 24 0
BBX 25 23 0 -6
BITMAP
08200000
1C600000
1CC00000
0F800000
00000000
79E79E00
79E71C00
79C71C00
71C73C00
71CF3C00
F3CF7800
F3CFF800
E38FB880
E7907900
FF907F00
FFA03E00
77C03C00
1F000000
37000000
6F000000
4F000000
7E000000
3C000000
ENDCHAR
STARTCHAR uni045E0458
ENCODING -1
SWIDTH 725 0
DWIDTH 17 0
BBX 18 23 0 -6
BITMAP
0C2300
1C6380
1CC380
0F8380
000000
79E780
79E700
79C700
71C700
71CF00
F3CF00
F3CE00
E38E00
E39E40
F79EC0
FF9F80
77FF00
0F1C00
373C00
6F3C00
4F3800
7FF800
3DF000
ENDCHAR
STARTCHAR uni04440437
ENCODING -1
SWIDTH 1148 0
DWIDTH 28 0
BBX 29 23 0 -6
BITMAP
00100000
00700000
00700000
00F00000
00E00000
0EEF0F00
3DF73F80
79E3E3C0
71C3C3C0
F1C383C0
F1C38380
E1C70780
E3C70F18
E38F3E10
F79E0E10
FFFC0F20
7BF807C0
07801F00
07003700
07006F00
07004E00
0F007E00
0C003C00
ENDCHAR
STARTCHAR uni04450447
ENCODING -1
SWIDTH 1027 0
DWIDTH 25 0
BBX 26 13 0 0
BITMAP
00700000
0E73CF00
1F338E00
27338E00
47679E00
47C79E00
8787BC00
8787FC00
0F8BFC40
0B883C80
13D83C80
31F01F00
61E01E00
ENDCHAR
STARTCHAR uni0445044A
ENCODING -1
SWIDTH 1006 0
DWIDTH 24 0
BBX 23 13 0 0
BITMAP
002000
0E73F0
1F1620
273660
4726C0
4741FC
4783DE
87838E
87878E
0B8F8E
1BDF9C
33F3F8
61E1F0
ENDCHAR
STARTCHAR uni04470447
ENCODING -1
SWIDTH 1010 0
DWIDTH 24 0
BBX 24 12 1 0
BITMAP
F3C71C
F3CF3C
F38F3C
E38E38
E78E38
E78E78
FF9FF8
771779
071071
07207A
07C07E
038038
ENDCHAR
STARTCHAR uni04480447
ENCODING -1
SWIDTH 1257 0
DWIDTH 30 0
BBX 31 12 0 0
BITMAP
79E78E78
79E79E78
79C71E78
71C71C70
71C71C70
F3CF1CF0
F3CF3FF0
E38E2EE2
E38E20E2
F79E40E4
FBEF80FC
71C70070
ENDCHAR
STARTCHAR uni045F0447
ENCODING -1
SWIDTH 1010 0
DWIDTH 24 0
BBX 25 18 0 -6
BITMAP
79E38E00
79E79E00
79C79E00
71C71C00
71C71C00
F3C73C00
F3CFFC00
E38BBC80
E3883880
F7903D00
FBE03F00
71C01C00
0C000000
0C000000
0E000000
0E000000
0E000000
0C000000
ENDCHAR
STARTCHAR uni044B0447
ENCODING -1
SWIDTH 1157 0
DWIDTH 28 0
BBX 29 12 0 0
BITMAP
780E79E0
783C71C0
70FC71C0
779C73C0
773CF3C0
F1B8F780
F1B8FF80
E3B8FB88
E3390790
E77B0790
FE3E03E0
7C3C03C0
ENDCHAR
STARTCHAR uni04550437
ENCODING -1
SWIDTH 840 0
DWIDTH 20 0
BBX 22 19 -1 -6
BITMAP
010000
0F07C0
0F0FE0
0F19E0
1710E0
1730E0
2720E0
2721C0
67C3C4
C74F04
C78788
7F0398
3E03E0
0007C0
000FC0
001380
001380
001F00
000E00
ENDCHAR
STARTCHAR uni04550445
ENCODING -1
SWIDTH 727 0
DWIDTH 17 0
BBX 19 13 -1 0
BITMAP
0101C0
0F3DC0
0F3C40
171CC0
171C80
171D00
271F00
271E00
679E00
E7FE20
C7CF60
7F0FC0
3C0780
ENDCHAR
STARTCHAR uni04550447
ENCODING -1
SWIDTH 909 0
DWIDTH 22 0
BBX 24 13 -1 0
BITMAP
030000
0F0F3C
0F0E38
1F0E38
170E78
171E78
271EF8
273FF0
67AF71
C740F2
C780F2
7F007C
3C0078
ENDCHAR
STARTCHAR uni04540437
ENCODING -1
SWIDTH 876 0
DWIDTH 21 0
BBX 22 18 0 -6
BITMAP
0F07C0
3F8FE0
7999E0
7110E0
F020E0
FE21E0
E041C0
E04384
E08F04
E08788
FF0398
7C03E0
0007C0
001FC0
001380
003380
001700
001E00
ENDCHAR
STARTCHAR uni04540445
ENCODING -1
SWIDTH 755 0
DWIDTH 18 0
BBX 19 13 0 0
BITMAP
000180
0F39C0
3FB8C0
79BCC0
713C80
F01D00
FE1E00
E01C00
E01E00
E03E20
E06E40
FB8FC0
7E0700
ENDCHAR
STARTCHAR uni04540447
ENCODING -1
SWIDTH 889 0
DWIDTH 21 0
BBX 22 12 0 0
BITMAP
0F1C70
3F9CF0
79BCF0
713CF0
F038E0
FE39E0
E07FE0
E07FE0
E09DE4
E101C4
FE01F8
7C00F0
ENDCHAR
STARTCHAR uni044D0437
ENCODING -1
SWIDTH 837 0
DWIDTH 20 0
BBX 22 18 -1 -6
BITMAP
0F83C0
1FCFE0
33D9E0
41F0E0
01E0E0
0FC1E0
01C1C0
438384
C38F04
C70788
EE0398
7C03E0
0007C0
001FC0
001380
003380
001700
001E00
ENDCHAR
STARTCHAR uni04560447
ENCODING -1
SWIDTH 763 0
DWIDTH 18 0
BBX 19 17 0 0
BITMAP
180000
3C0000
3C0000
180000
000000
78E380
79E780
79E780
71E700
71C700
F1CF00
F3FF00
E2EF20
E20E20
E40F40
FC0FC0
700700
ENDCHAR
STARTCHAR uni04570447
ENCODING -1
SWIDTH 763 0
DWIDTH 18 0
BBX 19 17 0 0
BITMAP
660000
E70000
660000
000000
000000
78E380
79E780
79E780
71E700
71C700
F1CF00
F3FF00
E2EF20
E20E20
E40F40
FC0FC0
700700
ENDCHAR
STARTCHAR uni04570457
ENCODING -1
SWIDTH 543 0
DWIDTH 13 0
BBX 14 17 0 0
BITMAP
6CC8
EEDC
6EDC
0000
0000
78F0
78E0
79E0
71E0
71E0
F1C0
F1C0
E3C0
E3CC
E7D8
FFF0
71E0
ENDCHAR
STARTCHAR uni04580447
ENCODING -1
SWIDTH 743 0
DWIDTH 18 0
BBX 24 23 -5 -6
BITMAP
00C000
01E000
01E000
00C000
000000
01CF3C
03CE38
03CE38
038E78
039E78
079EF8
079FF0
071F71
0720F2
0720FE
0F407C
0F8078
1E0000
7E0000
CE0000
9E0000
FC0000
780000
ENDCHAR
STARTCHAR uni04580458
ENCODING -1
SWIDTH 480 0
DWIDTH 12 0
BBX 18 23 -5 -6
BITMAP
00C700
01E700
01E780
00C700
000000
01CF00
03CF00
03CE00
038E00
039E00
039E00
079C00
071CC0
073C80
073D80
0F3F00
0FFC00
1E3800
6E7800
CE7800
DE7000
FFF000
79E000
ENDCHAR
STARTCHAR uni045B0447
ENCODING -1
SWIDTH 990 0
DWIDTH 24 0
BBX 26 23 -1 -6
BITMAP
02000000
1E000000
1E000000
1C000000
7F800000
1C03CE00
3C038E00
3FC39E00
3FE79E00
3DE79E00
78E7BC00
79E7FC00
79CBFC40
71C83C80
71C83D80
F3D03F00
F3E01E00
07800000
1F800000
33800000
37000000
3F000000
1E000000
ENDCHAR
STARTCHAR uni045B0458
ENCODING -1
SWIDTH 722 0
DWIDTH 17 0
BBX 19 23 -1 -6
BITMAP
0201C0
1E03C0
1E01C0
1C0180
7F8000
1C03C0
3C0380
3FC380
3FE780
3DE780
78E780
79E700
79C700
71CF20
71CF20
F3CEC0
F3EF80
079E00
1B9E00
339E00
37BC00
3FFC00
1EF800
ENDCHAR
STARTCHAR uni044E0433
ENCODING -1
SWIDTH 1050 0
DWIDTH 25 0
BBX 27 12 -1 0
BITMAP
1C1E0F00
3C7F3F80
3CF36380
38E78380
39E70780
7FC31F00
7BC33E00
7BC67C00
73C67820
73CC7040
F1FC7F80
F0F03E00
ENDCHAR
STARTCHAR uni044E0453
ENCODING -1
SWIDTH 1050 0
DWIDTH 25 0
BBX 27 18 -1 0
BITMAP
000000E0
000001C0
00000180
00000300
00000300
00000000
1C1E0F00
3C7F3F80
3CF36380
38E78380
39E70780
7FC31F00
7BC33E00
7BC67C00
73C67820
73CC7040
F1FC7F80
F0F03E00
ENDCHAR
STARTCHAR uni044E0436
ENCODING -1
SWIDTH 1507 0
DWIDTH 36 0
BBX 38 12 -1 0
BITMAP
1C1E1E3C78
3C7F3F38F8
3CF34739CC
38E7873998
39E7073B80
7FC307FF80
7BC3077380
7BC6077380
73C6CE7384
73CCCE7388
F1FCDCF3D0
F0F078E1E0
ENDCHAR
STARTCHAR uni044E0437
ENCODING -1
SWIDTH 1073 0
DWIDTH 26 0
BBX 28 18 -1 -6
BITMAP
1C1E1E00
3C7F3F00
3CF34780
38E78780
39E70780
7FC30780
7BC30700
7BC60E10
73C63C20
73CC5C20
F1FC0E40
F0F00F80
00001E00
00007E00
0000CE00
00009E00
0000FC00
00007800
ENDCHAR
STARTCHAR uni044E043B
ENCODING -1
SWIDTH 1228 0
DWIDTH 29 0
BBX 31 12 -1 0
BITMAP
1C1E00F8
3C7F01F8
3CF30338
38E30278
39E30270
7FC30670
7BC30670
7BC604F0
73C6E4F2
73CCECF6
F1FFF8FC
F0F87878
ENDCHAR
STARTCHAR uni044E043C
ENCODING -1
SWIDTH 1443 0
DWIDTH 35 0
BBX 37 12 -1 0
BITMAP
1C1E01C1E0
3C7F03C3C0
3CF303C3C0
38E303C7C0
39E303C7C0
7FC307CF80
7BC307CB80
7BC605DB88
73C6E5D790
73CCEDF7B0
F1FFC9E3E0
F0F879E3C0
ENDCHAR
ENDFONT
